<svg width="320" height="192" viewBox="0 0 320 192" fill="none" xmlns="http://www.w3.org/2000/svg">
<g filter="url(#filter0_d_10530_17102)">
<rect x="16" y="19" width="288" height="152" rx="12" fill="white" shape-rendering="crispEdges"/>
<path d="M43.7494 59.4688C43.7494 58.2967 44.702 57.3441 45.8741 57.3441H51.9999V47.9186C51.9999 45.485 50.0282 43.5133 47.5946 43.5133H36.4053C33.9717 43.5133 32 45.485 32 47.9186V62.0756C32 64.5091 33.9717 66.4808 36.4053 66.4808H43.7494V59.4659V59.4688Z" fill="#31508F"/>
<path d="M45.1777 66.4839V59.9972C45.1777 59.4429 45.6281 58.9926 46.1823 58.9926H51.9993L45.1777 66.4867V66.4839Z" fill="#FFCC4A"/>
<path d="M42.6237 53.9734L44.1941 52.3683C44.4251 52.1316 44.4222 51.7534 44.1855 51.5225C43.9488 51.2915 43.5706 51.2944 43.3396 51.5312L41.7894 53.116L40.1526 51.4301C41.1572 51.2425 41.9193 50.362 41.9193 49.3054C41.9193 48.1132 40.9494 47.1432 39.7571 47.1432H37.1503C36.8212 47.1432 36.5527 47.4117 36.5527 47.7408V54.8741C36.5527 55.2032 36.8212 55.4717 37.1503 55.4717C37.4794 55.4717 37.7479 55.2032 37.7479 54.8741V51.4648H38.5244L40.9522 53.9676L39.3616 55.5929C39.1307 55.8296 39.1336 56.2078 39.3703 56.4387C39.4857 56.5513 39.6387 56.6091 39.7889 56.6091C39.939 56.6091 40.0977 56.5484 40.2161 56.4301L41.7837 54.8279L43.3339 56.4272C43.4522 56.5484 43.6081 56.6091 43.764 56.6091C43.9199 56.6091 44.0642 56.5542 44.1797 56.4416C44.4164 56.2107 44.4222 55.8325 44.1941 55.5958L42.6208 53.9734H42.6237ZM37.7508 48.3354H39.76C40.2941 48.3354 40.7271 48.7685 40.7271 49.3025C40.7271 49.8366 40.2941 50.2696 39.76 50.2696H37.7508V48.3354Z" fill="white"/>
<path d="M73.18 50.147C72.312 50.147 71.535 49.944 70.849 49.538C70.1677 49.132 69.631 48.5393 69.239 47.76C68.847 46.976 68.651 46.0193 68.651 44.89C68.651 43.8213 68.8423 42.895 69.225 42.111C69.6077 41.3223 70.142 40.7133 70.828 40.284C71.514 39.85 72.3097 39.633 73.215 39.633C73.8823 39.633 74.496 39.7637 75.056 40.025C75.6207 40.2863 76.0757 40.6737 76.421 41.187C76.771 41.6957 76.9577 42.3257 76.981 43.077H75.644C75.616 42.5777 75.4853 42.1647 75.252 41.838C75.0233 41.5067 74.727 41.2593 74.363 41.096C73.999 40.928 73.5977 40.844 73.159 40.844C72.557 40.844 72.0157 41.005 71.535 41.327C71.059 41.6443 70.6833 42.104 70.408 42.706C70.1327 43.308 69.995 44.0337 69.995 44.883C69.995 45.849 70.1397 46.6307 70.429 47.228C70.7183 47.8207 71.1057 48.2547 71.591 48.53C72.0763 48.8007 72.613 48.936 73.201 48.936C73.7377 48.936 74.181 48.8403 74.531 48.649C74.8857 48.453 75.1563 48.1963 75.343 47.879C75.5297 47.5617 75.6347 47.2187 75.658 46.85H76.981C76.939 47.5267 76.7593 48.1123 76.442 48.607C76.1293 49.1017 75.6977 49.482 75.147 49.748C74.5963 50.014 73.9407 50.147 73.18 50.147ZM81.4099 50.105C80.7379 50.105 80.1476 49.9533 79.6389 49.65C79.1349 49.3467 78.7406 48.901 78.4559 48.313C78.1759 47.7203 78.0359 46.9947 78.0359 46.136C78.0359 45.324 78.1853 44.624 78.4839 44.036C78.7826 43.448 79.1886 42.9977 79.7019 42.685C80.2199 42.3677 80.7986 42.209 81.4379 42.209C82.1333 42.209 82.7329 42.3677 83.2369 42.685C83.7456 42.9977 84.1376 43.448 84.4129 44.036C84.6883 44.624 84.8259 45.324 84.8259 46.136C84.8259 46.9947 84.6719 47.7203 84.3639 48.313C84.0606 48.901 83.6499 49.3467 83.1319 49.65C82.6139 49.9533 82.0399 50.105 81.4099 50.105ZM81.4379 48.957C82.0633 48.957 82.5626 48.7237 82.9359 48.257C83.3093 47.7903 83.4959 47.0833 83.4959 46.136C83.4959 45.2307 83.3116 44.5423 82.9429 44.071C82.5789 43.595 82.0679 43.357 81.4099 43.357C80.7893 43.357 80.2923 43.595 79.9189 44.071C79.5503 44.5423 79.3659 45.2307 79.3659 46.136C79.3659 47.0507 79.5526 47.7507 79.9259 48.236C80.3039 48.7167 80.8079 48.957 81.4379 48.957ZM86.5933 50V42.356H87.6993L87.8393 45.24L87.7133 44.659C87.774 44.2063 87.9 43.7957 88.0913 43.427C88.2873 43.0537 88.5603 42.7573 88.9103 42.538C89.265 42.314 89.7106 42.202 90.2473 42.202C90.9566 42.202 91.5073 42.4213 91.8993 42.86C92.296 43.294 92.4943 43.9427 92.4943 44.806V50H91.1923V45.233C91.1923 44.799 91.1433 44.449 91.0453 44.183C90.952 43.917 90.8003 43.7233 90.5903 43.602C90.385 43.4807 90.1096 43.42 89.7643 43.42C89.349 43.42 88.9826 43.5343 88.6653 43.763C88.3526 43.9917 88.096 44.3067 87.8953 44.708V50H86.5933ZM97.5634 53.115C96.9847 53.115 96.4597 53.0147 95.9884 52.814C95.5171 52.6133 95.1507 52.3053 94.8894 51.89C94.6281 51.4793 94.5231 50.959 94.5744 50.329H95.8344C95.8204 50.679 95.8647 50.9777 95.9674 51.225C96.0701 51.4723 96.2521 51.6613 96.5134 51.792C96.7747 51.9227 97.1341 51.988 97.5914 51.988C98.0394 51.988 98.3824 51.9227 98.6204 51.792C98.8584 51.6613 99.0217 51.4583 99.1104 51.183C99.2037 50.9077 99.2504 50.553 99.2504 50.119V48.068C99.2084 48.278 99.1127 48.5043 98.9634 48.747C98.8187 48.9897 98.5994 49.1973 98.3054 49.37C98.0161 49.5427 97.6287 49.629 97.1434 49.629C96.7001 49.629 96.2987 49.5357 95.9394 49.349C95.5801 49.1577 95.2697 48.8963 95.0084 48.565C94.7517 48.2337 94.5534 47.8487 94.4134 47.41C94.2781 46.9713 94.2104 46.5047 94.2104 46.01C94.2104 45.1793 94.3504 44.484 94.6304 43.924C94.9104 43.3593 95.2767 42.9347 95.7294 42.65C96.1821 42.3607 96.6674 42.216 97.1854 42.216C97.6101 42.216 97.9577 42.2743 98.2284 42.391C98.5037 42.503 98.7231 42.643 98.8864 42.811C99.0497 42.979 99.1711 43.1423 99.2504 43.301V42.363H100.531V50.077C100.531 50.8143 100.403 51.4047 100.146 51.848C99.8897 52.2913 99.5374 52.611 99.0894 52.807C98.6461 53.0077 98.1374 53.1103 97.5634 53.115ZM97.5424 48.544C97.8924 48.544 98.1841 48.488 98.4174 48.376C98.6507 48.2593 98.8351 48.117 98.9704 47.949C99.1057 47.781 99.1991 47.62 99.2504 47.466V44.218C99.2084 44.106 99.1174 43.9823 98.9774 43.847C98.8374 43.7117 98.6507 43.595 98.4174 43.497C98.1841 43.399 97.8994 43.35 97.5634 43.35C96.9661 43.35 96.4831 43.5647 96.1144 43.994C95.7457 44.4187 95.5614 45.0697 95.5614 45.947C95.5614 46.7963 95.7457 47.4427 96.1144 47.886C96.4877 48.3247 96.9637 48.544 97.5424 48.544ZM102.849 50V42.356H103.955L104.095 45.296L103.941 44.897C103.974 44.6077 104.037 44.3067 104.13 43.994C104.228 43.6813 104.366 43.3897 104.543 43.119C104.725 42.8437 104.956 42.622 105.236 42.454C105.521 42.286 105.869 42.202 106.279 42.202C106.359 42.202 106.433 42.2067 106.503 42.216C106.578 42.2253 106.65 42.237 106.72 42.251V43.63C106.604 43.5927 106.48 43.5693 106.349 43.56C106.223 43.546 106.104 43.539 105.992 43.539C105.764 43.539 105.533 43.5833 105.299 43.672C105.066 43.7607 104.849 43.903 104.648 44.099C104.448 44.2903 104.282 44.54 104.151 44.848V50H102.849ZM109.838 50.084C109.353 50.084 108.933 49.993 108.578 49.811C108.228 49.6243 107.958 49.3723 107.766 49.055C107.58 48.7377 107.486 48.3783 107.486 47.977C107.486 47.5617 107.568 47.2117 107.731 46.927C107.895 46.6377 108.13 46.402 108.438 46.22C108.746 46.0333 109.12 45.8933 109.558 45.8C109.848 45.7347 110.153 45.6833 110.475 45.646C110.802 45.6087 111.115 45.5783 111.413 45.555C111.712 45.5317 111.966 45.5153 112.176 45.506V45.079C112.176 44.4677 112.048 44.029 111.791 43.763C111.535 43.4923 111.136 43.357 110.594 43.357C110.258 43.357 109.962 43.4013 109.705 43.49C109.453 43.5787 109.257 43.7443 109.117 43.987C108.977 44.225 108.91 44.575 108.914 45.037H107.696C107.64 44.407 107.729 43.8843 107.962 43.469C108.196 43.049 108.546 42.7363 109.012 42.531C109.479 42.321 110.032 42.216 110.671 42.216C111.035 42.216 111.383 42.2603 111.714 42.349C112.046 42.433 112.34 42.5777 112.596 42.783C112.853 42.9837 113.056 43.259 113.205 43.609C113.355 43.959 113.429 44.3977 113.429 44.925V50H112.162L112.176 48.341C112.06 48.8683 111.796 49.2907 111.385 49.608C110.979 49.9253 110.464 50.084 109.838 50.084ZM110.139 49.055C110.48 49.055 110.793 48.992 111.077 48.866C111.367 48.74 111.609 48.579 111.805 48.383C112.001 48.187 112.125 47.9863 112.176 47.781V46.297C111.906 46.3157 111.605 46.3483 111.273 46.395C110.942 46.437 110.65 46.4883 110.398 46.549C109.894 46.6657 109.519 46.822 109.271 47.018C109.029 47.214 108.907 47.4963 108.907 47.865C108.907 48.0843 108.954 48.285 109.047 48.467C109.145 48.6443 109.285 48.7867 109.467 48.894C109.649 48.9967 109.873 49.0503 110.139 49.055ZM117.647 50.105C117.054 50.105 116.602 49.9533 116.289 49.65C115.981 49.342 115.827 48.9057 115.827 48.341V44.197C115.827 44.0477 115.857 43.91 115.918 43.784C115.979 43.6533 116.067 43.5693 116.184 43.532L115.827 42.664V42.426L116.142 40.144H117.115V48.124C117.115 48.4227 117.185 48.6257 117.325 48.733C117.465 48.8357 117.705 48.887 118.046 48.887C118.293 48.887 118.503 48.887 118.676 48.887C118.849 48.8823 119.028 48.873 119.215 48.859V50.007C118.958 50.0537 118.692 50.0817 118.417 50.091C118.146 50.1003 117.89 50.105 117.647 50.105ZM114.714 43.532V42.356H119.152V43.532H114.714ZM122.853 50.154C122.195 50.154 121.665 49.93 121.264 49.482C120.863 49.034 120.662 48.4087 120.662 47.606V42.356H121.964V47.256C121.964 47.6387 122.008 47.9537 122.097 48.201C122.186 48.4483 122.326 48.6327 122.517 48.754C122.713 48.8707 122.965 48.9313 123.273 48.936C123.693 48.936 124.057 48.824 124.365 48.6C124.678 48.3713 124.937 48.0563 125.142 47.655V42.356H126.437V50H125.331L125.184 47.347L125.324 47.697C125.263 48.145 125.135 48.5557 124.939 48.929C124.748 49.2977 124.479 49.594 124.134 49.818C123.793 50.042 123.366 50.154 122.853 50.154ZM128.771 50V39.115H130.073V50H128.771ZM134.243 50.084C133.757 50.084 133.337 49.993 132.983 49.811C132.633 49.6243 132.362 49.3723 132.171 49.055C131.984 48.7377 131.891 48.3783 131.891 47.977C131.891 47.5617 131.972 47.2117 132.136 46.927C132.299 46.6377 132.535 46.402 132.843 46.22C133.151 46.0333 133.524 45.8933 133.963 45.8C134.252 45.7347 134.558 45.6833 134.88 45.646C135.206 45.6087 135.519 45.5783 135.818 45.555C136.116 45.5317 136.371 45.5153 136.581 45.506V45.079C136.581 44.4677 136.452 44.029 136.196 43.763C135.939 43.4923 135.54 43.357 134.999 43.357C134.663 43.357 134.366 43.4013 134.11 43.49C133.858 43.5787 133.662 43.7443 133.522 43.987C133.382 44.225 133.314 44.575 133.319 45.037H132.101C132.045 44.407 132.133 43.8843 132.367 43.469C132.6 43.049 132.95 42.7363 133.417 42.531C133.883 42.321 134.436 42.216 135.076 42.216C135.44 42.216 135.787 42.2603 136.119 42.349C136.45 42.433 136.744 42.5777 137.001 42.783C137.257 42.9837 137.46 43.259 137.61 43.609C137.759 43.959 137.834 44.3977 137.834 44.925V50H136.567L136.581 48.341C136.464 48.8683 136.2 49.2907 135.79 49.608C135.384 49.9253 134.868 50.084 134.243 50.084ZM134.544 49.055C134.884 49.055 135.197 48.992 135.482 48.866C135.771 48.74 136.014 48.579 136.21 48.383C136.406 48.187 136.529 47.9863 136.581 47.781V46.297C136.31 46.3157 136.009 46.3483 135.678 46.395C135.346 46.437 135.055 46.4883 134.803 46.549C134.299 46.6657 133.923 46.822 133.676 47.018C133.433 47.214 133.312 47.4963 133.312 47.865C133.312 48.0843 133.358 48.285 133.452 48.467C133.55 48.6443 133.69 48.7867 133.872 48.894C134.054 48.9967 134.278 49.0503 134.544 49.055ZM142.051 50.105C141.459 50.105 141.006 49.9533 140.693 49.65C140.385 49.342 140.231 48.9057 140.231 48.341V44.197C140.231 44.0477 140.262 43.91 140.322 43.784C140.383 43.6533 140.472 43.5693 140.588 43.532L140.231 42.664V42.426L140.546 40.144H141.519V48.124C141.519 48.4227 141.589 48.6257 141.729 48.733C141.869 48.8357 142.11 48.887 142.45 48.887C142.698 48.887 142.908 48.887 143.08 48.887C143.253 48.8823 143.433 48.873 143.619 48.859V50.007C143.363 50.0537 143.097 50.0817 142.821 50.091C142.551 50.1003 142.294 50.105 142.051 50.105ZM139.118 43.532V42.356H143.556V43.532H139.118ZM145.105 50V42.405H146.421L146.4 50H145.105ZM145.77 41.18C145.513 41.18 145.294 41.0913 145.112 40.914C144.935 40.7367 144.846 40.508 144.846 40.228C144.846 39.9527 144.935 39.7263 145.112 39.549C145.294 39.3717 145.513 39.283 145.77 39.283C146.022 39.283 146.237 39.3717 146.414 39.549C146.596 39.7263 146.687 39.9527 146.687 40.228C146.687 40.508 146.596 40.7367 146.414 40.914C146.232 41.0913 146.017 41.18 145.77 41.18ZM151.588 50.105C150.916 50.105 150.325 49.9533 149.817 49.65C149.313 49.3467 148.918 48.901 148.634 48.313C148.354 47.7203 148.214 46.9947 148.214 46.136C148.214 45.324 148.363 44.624 148.662 44.036C148.96 43.448 149.366 42.9977 149.88 42.685C150.398 42.3677 150.976 42.209 151.616 42.209C152.311 42.209 152.911 42.3677 153.415 42.685C153.923 42.9977 154.315 43.448 154.591 44.036C154.866 44.624 155.004 45.324 155.004 46.136C155.004 46.9947 154.85 47.7203 154.542 48.313C154.238 48.901 153.828 49.3467 153.31 49.65C152.792 49.9533 152.218 50.105 151.588 50.105ZM151.616 48.957C152.241 48.957 152.74 48.7237 153.114 48.257C153.487 47.7903 153.674 47.0833 153.674 46.136C153.674 45.2307 153.489 44.5423 153.121 44.071C152.757 43.595 152.246 43.357 151.588 43.357C150.967 43.357 150.47 43.595 150.097 44.071C149.728 44.5423 149.544 45.2307 149.544 46.136C149.544 47.0507 149.73 47.7507 150.104 48.236C150.482 48.7167 150.986 48.957 151.616 48.957ZM156.771 50V42.356H157.877L158.017 45.24L157.891 44.659C157.952 44.2063 158.078 43.7957 158.269 43.427C158.465 43.0537 158.738 42.7573 159.088 42.538C159.443 42.314 159.888 42.202 160.425 42.202C161.134 42.202 161.685 42.4213 162.077 42.86C162.474 43.294 162.672 43.9427 162.672 44.806V50H161.37V45.233C161.37 44.799 161.321 44.449 161.223 44.183C161.13 43.917 160.978 43.7233 160.768 43.602C160.563 43.4807 160.287 43.42 159.942 43.42C159.527 43.42 159.16 43.5343 158.843 43.763C158.53 43.9917 158.274 44.3067 158.073 44.708V50H156.771ZM167.184 50.119C166.657 50.119 166.174 50.0397 165.735 49.881C165.301 49.7177 164.949 49.4657 164.678 49.125C164.408 48.7797 164.256 48.3363 164.223 47.795H165.511C165.595 48.2617 165.78 48.5837 166.064 48.761C166.354 48.9337 166.72 49.02 167.163 49.02C167.467 49.02 167.74 48.9873 167.982 48.922C168.23 48.8567 168.426 48.747 168.57 48.593C168.715 48.439 168.787 48.229 168.787 47.963C168.787 47.7577 168.743 47.592 168.654 47.466C168.566 47.34 168.442 47.2373 168.283 47.158C168.125 47.074 167.938 47.0017 167.723 46.941C167.513 46.8803 167.285 46.815 167.037 46.745C166.575 46.6097 166.148 46.4533 165.756 46.276C165.364 46.094 165.049 45.8513 164.811 45.548C164.573 45.2447 164.454 44.8387 164.454 44.33C164.454 43.7047 164.692 43.1983 165.168 42.811C165.644 42.419 166.27 42.223 167.044 42.223C167.534 42.223 167.975 42.2977 168.367 42.447C168.764 42.5963 169.086 42.8367 169.333 43.168C169.585 43.4947 169.739 43.9333 169.795 44.484H168.514C168.468 44.232 168.381 44.0197 168.255 43.847C168.134 43.6743 167.973 43.5437 167.772 43.455C167.572 43.3663 167.327 43.322 167.037 43.322C166.795 43.322 166.575 43.357 166.379 43.427C166.183 43.4923 166.027 43.5973 165.91 43.742C165.794 43.8867 165.735 44.078 165.735 44.316C165.735 44.5773 165.805 44.7873 165.945 44.946C166.085 45.1047 166.284 45.2377 166.54 45.345C166.797 45.4477 167.098 45.5503 167.443 45.653C167.709 45.737 167.994 45.8257 168.297 45.919C168.601 46.0077 168.885 46.1267 169.151 46.276C169.422 46.4253 169.641 46.626 169.809 46.878C169.982 47.1253 170.068 47.4497 170.068 47.851C170.068 48.5697 169.802 49.1273 169.27 49.524C168.738 49.9207 168.043 50.119 167.184 50.119ZM177.168 50.105C176.496 50.105 175.905 49.9533 175.397 49.65C174.893 49.3467 174.498 48.901 174.214 48.313C173.934 47.7203 173.794 46.9947 173.794 46.136C173.794 45.324 173.943 44.624 174.242 44.036C174.54 43.448 174.946 42.9977 175.46 42.685C175.978 42.3677 176.556 42.209 177.196 42.209C177.891 42.209 178.491 42.3677 178.995 42.685C179.503 42.9977 179.895 43.448 180.171 44.036C180.446 44.624 180.584 45.324 180.584 46.136C180.584 46.9947 180.43 47.7203 180.122 48.313C179.818 48.901 179.408 49.3467 178.89 49.65C178.372 49.9533 177.798 50.105 177.168 50.105ZM177.196 48.957C177.821 48.957 178.32 48.7237 178.694 48.257C179.067 47.7903 179.254 47.0833 179.254 46.136C179.254 45.2307 179.069 44.5423 178.701 44.071C178.337 43.595 177.826 43.357 177.168 43.357C176.547 43.357 176.05 43.595 175.677 44.071C175.308 44.5423 175.124 45.2307 175.124 46.136C175.124 47.0507 175.31 47.7507 175.684 48.236C176.062 48.7167 176.566 48.957 177.196 48.957ZM182.351 50V42.356H183.457L183.597 45.24L183.471 44.659C183.532 44.2063 183.658 43.7957 183.849 43.427C184.045 43.0537 184.318 42.7573 184.668 42.538C185.023 42.314 185.468 42.202 186.005 42.202C186.714 42.202 187.265 42.4213 187.657 42.86C188.054 43.294 188.252 43.9427 188.252 44.806V50H186.95V45.233C186.95 44.799 186.901 44.449 186.803 44.183C186.71 43.917 186.558 43.7233 186.348 43.602C186.143 43.4807 185.867 43.42 185.522 43.42C185.107 43.42 184.74 43.5343 184.423 43.763C184.11 43.9917 183.854 44.3067 183.653 44.708V50H182.351ZM195.837 53.115C195.258 53.115 194.733 53.0147 194.262 52.814C193.791 52.6133 193.424 52.3053 193.163 51.89C192.902 51.4793 192.797 50.959 192.848 50.329H194.108C194.094 50.679 194.138 50.9777 194.241 51.225C194.344 51.4723 194.526 51.6613 194.787 51.792C195.048 51.9227 195.408 51.988 195.865 51.988C196.313 51.988 196.656 51.9227 196.894 51.792C197.132 51.6613 197.295 51.4583 197.384 51.183C197.477 50.9077 197.524 50.553 197.524 50.119V48.068C197.482 48.278 197.386 48.5043 197.237 48.747C197.092 48.9897 196.873 49.1973 196.579 49.37C196.29 49.5427 195.902 49.629 195.417 49.629C194.974 49.629 194.572 49.5357 194.213 49.349C193.854 49.1577 193.543 48.8963 193.282 48.565C193.025 48.2337 192.827 47.8487 192.687 47.41C192.552 46.9713 192.484 46.5047 192.484 46.01C192.484 45.1793 192.624 44.484 192.904 43.924C193.184 43.3593 193.55 42.9347 194.003 42.65C194.456 42.3607 194.941 42.216 195.459 42.216C195.884 42.216 196.231 42.2743 196.502 42.391C196.777 42.503 196.997 42.643 197.16 42.811C197.323 42.979 197.445 43.1423 197.524 43.301V42.363H198.805V50.077C198.805 50.8143 198.677 51.4047 198.42 51.848C198.163 52.2913 197.811 52.611 197.363 52.807C196.92 53.0077 196.411 53.1103 195.837 53.115ZM195.816 48.544C196.166 48.544 196.458 48.488 196.691 48.376C196.924 48.2593 197.109 48.117 197.244 47.949C197.379 47.781 197.473 47.62 197.524 47.466V44.218C197.482 44.106 197.391 43.9823 197.251 43.847C197.111 43.7117 196.924 43.595 196.691 43.497C196.458 43.399 196.173 43.35 195.837 43.35C195.24 43.35 194.757 43.5647 194.388 43.994C194.019 44.4187 193.835 45.0697 193.835 45.947C193.835 46.7963 194.019 47.4427 194.388 47.886C194.761 48.3247 195.237 48.544 195.816 48.544ZM204.055 50.105C203.36 50.105 202.748 49.9533 202.221 49.65C201.698 49.3467 201.292 48.901 201.003 48.313C200.714 47.7203 200.569 46.997 200.569 46.143C200.569 45.3217 200.718 44.617 201.017 44.029C201.316 43.441 201.726 42.9907 202.249 42.678C202.772 42.3653 203.367 42.209 204.034 42.209C204.697 42.209 205.264 42.3513 205.735 42.636C206.211 42.9207 206.577 43.329 206.834 43.861C207.091 44.3883 207.217 45.0207 207.212 45.758C207.212 45.9073 207.207 46.031 207.198 46.129C207.189 46.227 207.182 46.3297 207.177 46.437H201.871C201.904 47.277 202.114 47.914 202.501 48.348C202.893 48.7773 203.392 48.992 203.999 48.992C204.512 48.992 204.909 48.8847 205.189 48.67C205.474 48.4507 205.653 48.1707 205.728 47.83H207.002C206.969 48.3153 206.82 48.7283 206.554 49.069C206.293 49.4097 205.947 49.6687 205.518 49.846C205.089 50.0187 204.601 50.105 204.055 50.105ZM202.564 45.457H205.903C205.894 44.8037 205.733 44.2903 205.42 43.917C205.107 43.5437 204.629 43.357 203.985 43.357C203.308 43.357 202.795 43.588 202.445 44.05C202.095 44.5073 201.904 45.1397 201.871 45.947C201.908 45.7557 201.983 45.6273 202.095 45.562C202.212 45.492 202.368 45.457 202.564 45.457ZM211.108 50.105C210.515 50.105 210.063 49.9533 209.75 49.65C209.442 49.342 209.288 48.9057 209.288 48.341V44.197C209.288 44.0477 209.318 43.91 209.379 43.784C209.44 43.6533 209.528 43.5693 209.645 43.532L209.288 42.664V42.426L209.603 40.144H210.576V48.124C210.576 48.4227 210.646 48.6257 210.786 48.733C210.926 48.8357 211.166 48.887 211.507 48.887C211.754 48.887 211.964 48.887 212.137 48.887C212.31 48.8823 212.489 48.873 212.676 48.859V50.007C212.419 50.0537 212.153 50.0817 211.878 50.091C211.607 50.1003 211.351 50.105 211.108 50.105ZM208.175 43.532V42.356H212.613V43.532H208.175ZM216.563 50.105C215.97 50.105 215.518 49.9533 215.205 49.65C214.897 49.342 214.743 48.9057 214.743 48.341V44.197C214.743 44.0477 214.773 43.91 214.834 43.784C214.895 43.6533 214.983 43.5693 215.1 43.532L214.743 42.664V42.426L215.058 40.144H216.031V48.124C216.031 48.4227 216.101 48.6257 216.241 48.733C216.381 48.8357 216.621 48.887 216.962 48.887C217.209 48.887 217.419 48.887 217.592 48.887C217.765 48.8823 217.944 48.873 218.131 48.859V50.007C217.874 50.0537 217.608 50.0817 217.333 50.091C217.062 50.1003 216.806 50.105 216.563 50.105ZM213.63 43.532V42.356H218.068V43.532H213.63ZM219.617 50V42.405H220.933L220.912 50H219.617ZM220.282 41.18C220.025 41.18 219.806 41.0913 219.624 40.914C219.446 40.7367 219.358 40.508 219.358 40.228C219.358 39.9527 219.446 39.7263 219.624 39.549C219.806 39.3717 220.025 39.283 220.282 39.283C220.534 39.283 220.748 39.3717 220.926 39.549C221.108 39.7263 221.199 39.9527 221.199 40.228C221.199 40.508 221.108 40.7367 220.926 40.914C220.744 41.0913 220.529 41.18 220.282 41.18ZM223.285 50V42.356H224.391L224.531 45.24L224.405 44.659C224.465 44.2063 224.591 43.7957 224.783 43.427C224.979 43.0537 225.252 42.7573 225.602 42.538C225.956 42.314 226.402 42.202 226.939 42.202C227.648 42.202 228.199 42.4213 228.591 42.86C228.987 43.294 229.186 43.9427 229.186 44.806V50H227.884V45.233C227.884 44.799 227.835 44.449 227.737 44.183C227.643 43.917 227.492 43.7233 227.282 43.602C227.076 43.4807 226.801 43.42 226.456 43.42C226.04 43.42 225.674 43.5343 225.357 43.763C225.044 43.9917 224.787 44.3067 224.587 44.708V50H223.285ZM234.255 53.115C233.676 53.115 233.151 53.0147 232.68 52.814C232.208 52.6133 231.842 52.3053 231.581 51.89C231.319 51.4793 231.214 50.959 231.266 50.329H232.526C232.512 50.679 232.556 50.9777 232.659 51.225C232.761 51.4723 232.943 51.6613 233.205 51.792C233.466 51.9227 233.825 51.988 234.283 51.988C234.731 51.988 235.074 51.9227 235.312 51.792C235.55 51.6613 235.713 51.4583 235.802 51.183C235.895 50.9077 235.942 50.553 235.942 50.119V48.068C235.9 48.278 235.804 48.5043 235.655 48.747C235.51 48.9897 235.291 49.1973 234.997 49.37C234.707 49.5427 234.32 49.629 233.835 49.629C233.391 49.629 232.99 49.5357 232.631 49.349C232.271 49.1577 231.961 48.8963 231.7 48.565C231.443 48.2337 231.245 47.8487 231.105 47.41C230.969 46.9713 230.902 46.5047 230.902 46.01C230.902 45.1793 231.042 44.484 231.322 43.924C231.602 43.3593 231.968 42.9347 232.421 42.65C232.873 42.3607 233.359 42.216 233.877 42.216C234.301 42.216 234.649 42.2743 234.92 42.391C235.195 42.503 235.414 42.643 235.578 42.811C235.741 42.979 235.862 43.1423 235.942 43.301V42.363H237.223V50.077C237.223 50.8143 237.094 51.4047 236.838 51.848C236.581 52.2913 236.229 52.611 235.781 52.807C235.337 53.0077 234.829 53.1103 234.255 53.115ZM234.234 48.544C234.584 48.544 234.875 48.488 235.109 48.376C235.342 48.2593 235.526 48.117 235.662 47.949C235.797 47.781 235.89 47.62 235.942 47.466V44.218C235.9 44.106 235.809 43.9823 235.669 43.847C235.529 43.7117 235.342 43.595 235.109 43.497C234.875 43.399 234.591 43.35 234.255 43.35C233.657 43.35 233.174 43.5647 232.806 43.994C232.437 44.4187 232.253 45.0697 232.253 45.947C232.253 46.7963 232.437 47.4427 232.806 47.886C233.179 48.3247 233.655 48.544 234.234 48.544ZM241.702 53.017V51.771H242.269C242.605 51.771 242.864 51.729 243.046 51.645C243.232 51.5657 243.372 51.4513 243.466 51.302C243.559 51.1527 243.634 50.9753 243.69 50.77C243.76 50.5227 243.823 50.343 243.879 50.231C243.935 50.1237 244.007 50.0467 244.096 50H243.676L241.114 42.363H242.563L243.536 45.786L244.397 48.677H244.453L245.286 45.786L246.259 42.363H247.708L245.139 50C244.985 50.462 244.833 50.8773 244.684 51.246C244.534 51.6193 244.359 51.9367 244.159 52.198C243.958 52.464 243.706 52.667 243.403 52.807C243.104 52.947 242.726 53.017 242.269 53.017H241.702ZM251.844 50.105C251.172 50.105 250.581 49.9533 250.073 49.65C249.569 49.3467 249.174 48.901 248.89 48.313C248.61 47.7203 248.47 46.9947 248.47 46.136C248.47 45.324 248.619 44.624 248.918 44.036C249.216 43.448 249.622 42.9977 250.136 42.685C250.654 42.3677 251.232 42.209 251.872 42.209C252.567 42.209 253.167 42.3677 253.671 42.685C254.179 42.9977 254.571 43.448 254.847 44.036C255.122 44.624 255.26 45.324 255.26 46.136C255.26 46.9947 255.106 47.7203 254.798 48.313C254.494 48.901 254.084 49.3467 253.566 49.65C253.048 49.9533 252.474 50.105 251.844 50.105ZM251.872 48.957C252.497 48.957 252.996 48.7237 253.37 48.257C253.743 47.7903 253.93 47.0833 253.93 46.136C253.93 45.2307 253.745 44.5423 253.377 44.071C253.013 43.595 252.502 43.357 251.844 43.357C251.223 43.357 250.726 43.595 250.353 44.071C249.984 44.5423 249.8 45.2307 249.8 46.136C249.8 47.0507 249.986 47.7507 250.36 48.236C250.738 48.7167 251.242 48.957 251.872 48.957ZM259.134 50.154C258.476 50.154 257.947 49.93 257.545 49.482C257.144 49.034 256.943 48.4087 256.943 47.606V42.356H258.245V47.256C258.245 47.6387 258.29 47.9537 258.378 48.201C258.467 48.4483 258.607 48.6327 258.798 48.754C258.994 48.8707 259.246 48.9313 259.554 48.936C259.974 48.936 260.338 48.824 260.646 48.6C260.959 48.3713 261.218 48.0563 261.423 47.655V42.356H262.718V50H261.612L261.465 47.347L261.605 47.697C261.545 48.145 261.416 48.5557 261.22 48.929C261.029 49.2977 260.761 49.594 260.415 49.818C260.075 50.042 259.648 50.154 259.134 50.154ZM265.039 50V42.356H266.145L266.285 45.296L266.131 44.897C266.163 44.6077 266.226 44.3067 266.32 43.994C266.418 43.6813 266.555 43.3897 266.733 43.119C266.915 42.8437 267.146 42.622 267.426 42.454C267.71 42.286 268.058 42.202 268.469 42.202C268.548 42.202 268.623 42.2067 268.693 42.216C268.767 42.2253 268.84 42.237 268.91 42.251V43.63C268.793 43.5927 268.669 43.5693 268.539 43.56C268.413 43.546 268.294 43.539 268.182 43.539C267.953 43.539 267.722 43.5833 267.489 43.672C267.255 43.7607 267.038 43.903 266.838 44.099C266.637 44.2903 266.471 44.54 266.341 44.848V50H265.039ZM74.692 70L72.193 65.849H70.324L69.855 65.744L70.058 64.883V64.659H72.046C72.4847 64.659 72.8347 64.5727 73.096 64.4C73.362 64.2273 73.5533 63.994 73.67 63.7C73.7867 63.406 73.845 63.0793 73.845 62.72C73.845 62.328 73.7727 62.0107 73.628 61.768C73.4833 61.5253 73.278 61.348 73.012 61.236C72.7507 61.1193 72.438 61.061 72.074 61.061H70.45V60.718L69.848 59.822C70.0673 59.822 70.2937 59.822 70.527 59.822C70.765 59.822 71.01 59.822 71.262 59.822C71.5187 59.822 71.7777 59.822 72.039 59.822C72.6783 59.822 73.2337 59.9247 73.705 60.13C74.1763 60.3353 74.5427 60.6433 74.804 61.054C75.0653 61.46 75.196 61.971 75.196 62.587C75.196 63.0397 75.119 63.4807 74.965 63.91C74.8157 64.3347 74.5683 64.7033 74.223 65.016C73.8777 65.3287 73.418 65.541 72.844 65.653L72.865 65.555C73.0283 65.5503 73.1637 65.5643 73.271 65.597C73.3783 65.6297 73.4763 65.6903 73.565 65.779C73.6537 65.8677 73.7493 65.9937 73.852 66.157L76.288 70H74.692ZM69.19 70V59.822H70.492V70H69.19ZM76.6796 70L79.4796 65.723L79.4936 66.668L76.7776 62.363H78.3596L79.6476 64.638L80.0956 65.485L80.4596 64.659L81.7126 62.363H83.2806L80.5156 66.668L80.5296 65.723L83.3646 70H81.7616L80.3686 67.683L79.9276 66.934L79.5496 67.718L78.2406 70H76.6796ZM85.0913 66.934L84.8813 62.363L84.7973 59.64H86.2813L86.1973 62.363L85.9873 66.934H85.0913ZM85.5393 70.105C85.2919 70.105 85.0819 70.0187 84.9093 69.846C84.7366 69.6733 84.6503 69.4493 84.6503 69.174C84.6503 68.908 84.7366 68.6887 84.9093 68.516C85.0819 68.3433 85.2919 68.257 85.5393 68.257C85.7866 68.257 85.9966 68.3433 86.1693 68.516C86.3466 68.6887 86.4353 68.908 86.4353 69.174C86.4353 69.4493 86.3466 69.6733 86.1693 69.846C85.9966 70.0187 85.7866 70.105 85.5393 70.105Z" fill="#1A1628"/>
<path d="M190.115 139.867L188.33 136.902H186.995L186.66 136.827L186.805 136.212V136.052H188.225C188.539 136.052 188.789 135.99 188.975 135.867C189.165 135.743 189.302 135.577 189.385 135.367C189.469 135.157 189.51 134.923 189.51 134.667C189.51 134.387 189.459 134.16 189.355 133.987C189.252 133.813 189.105 133.687 188.915 133.607C188.729 133.523 188.505 133.482 188.245 133.482H187.085V133.237L186.655 132.597C186.812 132.597 186.974 132.597 187.14 132.597C187.31 132.597 187.485 132.597 187.665 132.597C187.849 132.597 188.034 132.597 188.22 132.597C188.677 132.597 189.074 132.67 189.41 132.817C189.747 132.963 190.009 133.183 190.195 133.477C190.382 133.767 190.475 134.132 190.475 134.572C190.475 134.895 190.42 135.21 190.31 135.517C190.204 135.82 190.027 136.083 189.78 136.307C189.534 136.53 189.205 136.682 188.795 136.762L188.81 136.692C188.927 136.688 189.024 136.698 189.1 136.722C189.177 136.745 189.247 136.788 189.31 136.852C189.374 136.915 189.442 137.005 189.515 137.122L191.255 139.867H190.115ZM186.185 139.867V132.597H187.115V139.867H186.185ZM191.535 139.867L193.535 136.812L193.545 137.487L191.605 134.412H192.735L193.655 136.037L193.975 136.642L194.235 136.052L195.13 134.412H196.25L194.275 137.487L194.285 136.812L196.31 139.867H195.165L194.17 138.212L193.855 137.677L193.585 138.237L192.65 139.867H191.535ZM203.035 139.867L201.25 136.902H199.915L199.58 136.827L199.725 136.212V136.052H201.145C201.459 136.052 201.709 135.99 201.895 135.867C202.085 135.743 202.222 135.577 202.305 135.367C202.389 135.157 202.43 134.923 202.43 134.667C202.43 134.387 202.379 134.16 202.275 133.987C202.172 133.813 202.025 133.687 201.835 133.607C201.649 133.523 201.425 133.482 201.165 133.482H200.005V133.237L199.575 132.597C199.732 132.597 199.894 132.597 200.06 132.597C200.23 132.597 200.405 132.597 200.585 132.597C200.769 132.597 200.954 132.597 201.14 132.597C201.597 132.597 201.994 132.67 202.33 132.817C202.667 132.963 202.929 133.183 203.115 133.477C203.302 133.767 203.395 134.132 203.395 134.572C203.395 134.895 203.34 135.21 203.23 135.517C203.124 135.82 202.947 136.083 202.7 136.307C202.454 136.53 202.125 136.682 201.715 136.762L201.73 136.692C201.847 136.688 201.944 136.698 202.02 136.722C202.097 136.745 202.167 136.788 202.23 136.852C202.294 136.915 202.362 137.005 202.435 137.122L204.175 139.867H203.035ZM199.105 139.867V132.597H200.035V139.867H199.105ZM207.088 139.942C206.591 139.942 206.155 139.833 205.778 139.617C205.405 139.4 205.115 139.082 204.908 138.662C204.701 138.238 204.598 137.722 204.598 137.112C204.598 136.525 204.705 136.022 204.918 135.602C205.131 135.182 205.425 134.86 205.798 134.637C206.171 134.413 206.596 134.302 207.073 134.302C207.546 134.302 207.951 134.403 208.288 134.607C208.628 134.81 208.89 135.102 209.073 135.482C209.256 135.858 209.346 136.31 209.343 136.837C209.343 136.943 209.34 137.032 209.333 137.102C209.326 137.172 209.321 137.245 209.318 137.322H205.528C205.551 137.922 205.701 138.377 205.978 138.687C206.258 138.993 206.615 139.147 207.048 139.147C207.415 139.147 207.698 139.07 207.898 138.917C208.101 138.76 208.23 138.56 208.283 138.317H209.193C209.17 138.663 209.063 138.958 208.873 139.202C208.686 139.445 208.44 139.63 208.133 139.757C207.826 139.88 207.478 139.942 207.088 139.942ZM206.023 136.622H208.408C208.401 136.155 208.286 135.788 208.063 135.522C207.84 135.255 207.498 135.122 207.038 135.122C206.555 135.122 206.188 135.287 205.938 135.617C205.688 135.943 205.551 136.395 205.528 136.972C205.555 136.835 205.608 136.743 205.688 136.697C205.771 136.647 205.883 136.622 206.023 136.622ZM211.861 139.927C211.514 139.927 211.214 139.862 210.961 139.732C210.711 139.598 210.517 139.418 210.381 139.192C210.247 138.965 210.181 138.708 210.181 138.422C210.181 138.125 210.239 137.875 210.356 137.672C210.472 137.465 210.641 137.297 210.861 137.167C211.081 137.033 211.347 136.933 211.661 136.867C211.867 136.82 212.086 136.783 212.316 136.757C212.549 136.73 212.772 136.708 212.986 136.692C213.199 136.675 213.381 136.663 213.531 136.657V136.352C213.531 135.915 213.439 135.602 213.256 135.412C213.072 135.218 212.787 135.122 212.401 135.122C212.161 135.122 211.949 135.153 211.766 135.217C211.586 135.28 211.446 135.398 211.346 135.572C211.246 135.742 211.197 135.992 211.201 136.322H210.331C210.291 135.872 210.354 135.498 210.521 135.202C210.687 134.902 210.937 134.678 211.271 134.532C211.604 134.382 211.999 134.307 212.456 134.307C212.716 134.307 212.964 134.338 213.201 134.402C213.437 134.462 213.647 134.565 213.831 134.712C214.014 134.855 214.159 135.052 214.266 135.302C214.372 135.552 214.426 135.865 214.426 136.242V139.867H213.521L213.531 138.682C213.447 139.058 213.259 139.36 212.966 139.587C212.676 139.813 212.307 139.927 211.861 139.927ZM212.076 139.192C212.319 139.192 212.542 139.147 212.746 139.057C212.952 138.967 213.126 138.852 213.266 138.712C213.406 138.572 213.494 138.428 213.531 138.282V137.222C213.337 137.235 213.122 137.258 212.886 137.292C212.649 137.322 212.441 137.358 212.261 137.402C211.901 137.485 211.632 137.597 211.456 137.737C211.282 137.877 211.196 138.078 211.196 138.342C211.196 138.498 211.229 138.642 211.296 138.772C211.366 138.898 211.466 139 211.596 139.077C211.726 139.15 211.886 139.188 212.076 139.192ZM217.794 139.927C217.351 139.927 216.967 139.81 216.644 139.577C216.324 139.343 216.077 139.015 215.904 138.592C215.734 138.168 215.649 137.673 215.649 137.107C215.649 136.48 215.754 135.96 215.964 135.547C216.177 135.13 216.451 134.82 216.784 134.617C217.121 134.41 217.476 134.307 217.849 134.307C218.212 134.307 218.497 134.368 218.704 134.492C218.914 134.615 219.067 134.758 219.164 134.922C219.264 135.082 219.324 135.22 219.344 135.337L219.639 135.387L219.279 135.702C219.256 135.632 219.199 135.552 219.109 135.462C219.019 135.368 218.891 135.288 218.724 135.222C218.557 135.152 218.346 135.117 218.089 135.117C217.659 135.117 217.304 135.278 217.024 135.602C216.744 135.922 216.604 136.43 216.604 137.127C216.604 137.773 216.736 138.27 216.999 138.617C217.266 138.963 217.607 139.137 218.024 139.137C218.284 139.137 218.499 139.092 218.669 139.002C218.842 138.912 218.977 138.802 219.074 138.672C219.174 138.542 219.242 138.42 219.279 138.307L219.329 138.487L219.279 138.672C219.262 138.782 219.226 138.908 219.169 139.052C219.112 139.192 219.027 139.328 218.914 139.462C218.801 139.595 218.652 139.707 218.469 139.797C218.289 139.883 218.064 139.927 217.794 139.927ZM219.284 139.867L219.279 132.087H220.204L220.209 139.867H219.284ZM221.615 142.022V141.132H222.02C222.26 141.132 222.445 141.102 222.575 141.042C222.709 140.985 222.809 140.903 222.875 140.797C222.942 140.69 222.995 140.563 223.035 140.417C223.085 140.24 223.13 140.112 223.17 140.032C223.21 139.955 223.262 139.9 223.325 139.867H223.025L221.195 134.412H222.23L222.925 136.857L223.54 138.922H223.58L224.175 136.857L224.87 134.412H225.905L224.07 139.867C223.96 140.197 223.852 140.493 223.745 140.757C223.639 141.023 223.514 141.25 223.37 141.437C223.227 141.627 223.047 141.772 222.83 141.872C222.617 141.972 222.347 142.022 222.02 142.022H221.615Z" fill="#1A1628"/>
<path d="M110.607 139.867V132.597H111.562V139.867H110.607ZM113.228 139.867V134.407H114.018L114.118 136.467L114.028 136.052C114.072 135.728 114.162 135.435 114.298 135.172C114.438 134.905 114.633 134.693 114.883 134.537C115.137 134.377 115.455 134.297 115.838 134.297C116.345 134.297 116.738 134.453 117.018 134.767C117.302 135.077 117.443 135.54 117.443 136.157V139.867H116.513V136.462C116.513 136.152 116.478 135.902 116.408 135.712C116.342 135.522 116.233 135.383 116.083 135.297C115.937 135.21 115.74 135.167 115.493 135.167C115.197 135.167 114.935 135.248 114.708 135.412C114.485 135.575 114.302 135.8 114.158 136.087V139.867H113.228ZM120.666 139.952C120.29 139.952 119.945 139.895 119.631 139.782C119.321 139.665 119.07 139.485 118.876 139.242C118.683 138.995 118.575 138.678 118.551 138.292H119.471C119.531 138.625 119.663 138.855 119.866 138.982C120.073 139.105 120.335 139.167 120.651 139.167C120.868 139.167 121.063 139.143 121.236 139.097C121.413 139.05 121.553 138.972 121.656 138.862C121.76 138.752 121.811 138.602 121.811 138.412C121.811 138.265 121.78 138.147 121.716 138.057C121.653 137.967 121.565 137.893 121.451 137.837C121.338 137.777 121.205 137.725 121.051 137.682C120.901 137.638 120.738 137.592 120.561 137.542C120.231 137.445 119.926 137.333 119.646 137.207C119.366 137.077 119.141 136.903 118.971 136.687C118.801 136.47 118.716 136.18 118.716 135.817C118.716 135.37 118.886 135.008 119.226 134.732C119.566 134.452 120.013 134.312 120.566 134.312C120.916 134.312 121.231 134.365 121.511 134.472C121.795 134.578 122.025 134.75 122.201 134.987C122.381 135.22 122.491 135.533 122.531 135.927H121.616C121.583 135.747 121.521 135.595 121.431 135.472C121.345 135.348 121.23 135.255 121.086 135.192C120.943 135.128 120.768 135.097 120.561 135.097C120.388 135.097 120.231 135.122 120.091 135.172C119.951 135.218 119.84 135.293 119.756 135.397C119.673 135.5 119.631 135.637 119.631 135.807C119.631 135.993 119.681 136.143 119.781 136.257C119.881 136.37 120.023 136.465 120.206 136.542C120.39 136.615 120.605 136.688 120.851 136.762C121.041 136.822 121.245 136.885 121.461 136.952C121.678 137.015 121.881 137.1 122.071 137.207C122.265 137.313 122.421 137.457 122.541 137.637C122.665 137.813 122.726 138.045 122.726 138.332C122.726 138.845 122.536 139.243 122.156 139.527C121.776 139.81 121.28 139.952 120.666 139.952ZM125.417 139.977C124.947 139.977 124.569 139.817 124.282 139.497C123.995 139.177 123.852 138.73 123.852 138.157V134.407H124.782V137.907C124.782 138.18 124.814 138.405 124.877 138.582C124.94 138.758 125.04 138.89 125.177 138.977C125.317 139.06 125.497 139.103 125.717 139.107C126.017 139.107 126.277 139.027 126.497 138.867C126.72 138.703 126.905 138.478 127.052 138.192V134.407H127.977V139.867H127.187L127.082 137.972L127.182 138.222C127.139 138.542 127.047 138.835 126.907 139.102C126.77 139.365 126.579 139.577 126.332 139.737C126.089 139.897 125.784 139.977 125.417 139.977ZM129.634 139.867V134.407H130.424L130.524 136.507L130.414 136.222C130.438 136.015 130.483 135.8 130.549 135.577C130.619 135.353 130.718 135.145 130.844 134.952C130.974 134.755 131.139 134.597 131.339 134.477C131.543 134.357 131.791 134.297 132.084 134.297C132.141 134.297 132.194 134.3 132.244 134.307C132.298 134.313 132.349 134.322 132.399 134.332V135.317C132.316 135.29 132.228 135.273 132.134 135.267C132.044 135.257 131.959 135.252 131.879 135.252C131.716 135.252 131.551 135.283 131.384 135.347C131.218 135.41 131.063 135.512 130.919 135.652C130.776 135.788 130.658 135.967 130.564 136.187V139.867H129.634ZM134.627 139.927C134.28 139.927 133.98 139.862 133.727 139.732C133.477 139.598 133.283 139.418 133.147 139.192C133.013 138.965 132.947 138.708 132.947 138.422C132.947 138.125 133.005 137.875 133.122 137.672C133.238 137.465 133.407 137.297 133.627 137.167C133.847 137.033 134.113 136.933 134.427 136.867C134.633 136.82 134.852 136.783 135.082 136.757C135.315 136.73 135.538 136.708 135.752 136.692C135.965 136.675 136.147 136.663 136.297 136.657V136.352C136.297 135.915 136.205 135.602 136.022 135.412C135.838 135.218 135.553 135.122 135.167 135.122C134.927 135.122 134.715 135.153 134.532 135.217C134.352 135.28 134.212 135.398 134.112 135.572C134.012 135.742 133.963 135.992 133.967 136.322H133.097C133.057 135.872 133.12 135.498 133.287 135.202C133.453 134.902 133.703 134.678 134.037 134.532C134.37 134.382 134.765 134.307 135.222 134.307C135.482 134.307 135.73 134.338 135.967 134.402C136.203 134.462 136.413 134.565 136.597 134.712C136.78 134.855 136.925 135.052 137.032 135.302C137.138 135.552 137.192 135.865 137.192 136.242V139.867H136.287L136.297 138.682C136.213 139.058 136.025 139.36 135.732 139.587C135.442 139.813 135.073 139.927 134.627 139.927ZM134.842 139.192C135.085 139.192 135.308 139.147 135.512 139.057C135.718 138.967 135.892 138.852 136.032 138.712C136.172 138.572 136.26 138.428 136.297 138.282V137.222C136.103 137.235 135.888 137.258 135.652 137.292C135.415 137.322 135.207 137.358 135.027 137.402C134.667 137.485 134.398 137.597 134.222 137.737C134.048 137.877 133.962 138.078 133.962 138.342C133.962 138.498 133.995 138.642 134.062 138.772C134.132 138.898 134.232 139 134.362 139.077C134.492 139.15 134.652 139.188 134.842 139.192ZM138.765 139.867V134.407H139.555L139.655 136.467L139.565 136.052C139.609 135.728 139.699 135.435 139.835 135.172C139.975 134.905 140.17 134.693 140.42 134.537C140.674 134.377 140.992 134.297 141.375 134.297C141.882 134.297 142.275 134.453 142.555 134.767C142.839 135.077 142.98 135.54 142.98 136.157V139.867H142.05V136.462C142.05 136.152 142.015 135.902 141.945 135.712C141.879 135.522 141.77 135.383 141.62 135.297C141.474 135.21 141.277 135.167 141.03 135.167C140.734 135.167 140.472 135.248 140.245 135.412C140.022 135.575 139.839 135.8 139.695 136.087V139.867H138.765ZM146.676 139.957C146.169 139.957 145.729 139.842 145.356 139.612C144.983 139.382 144.694 139.055 144.491 138.632C144.288 138.208 144.186 137.71 144.186 137.137C144.186 136.533 144.289 136.022 144.496 135.602C144.706 135.182 144.994 134.862 145.361 134.642C145.731 134.418 146.153 134.307 146.626 134.307C147.079 134.307 147.464 134.395 147.781 134.572C148.098 134.745 148.339 134.977 148.506 135.267C148.676 135.557 148.766 135.877 148.776 136.227H147.861C147.854 136.093 147.826 135.962 147.776 135.832C147.726 135.702 147.651 135.585 147.551 135.482C147.451 135.375 147.323 135.29 147.166 135.227C147.013 135.16 146.828 135.127 146.611 135.127C146.108 135.123 145.736 135.298 145.496 135.652C145.256 136.005 145.136 136.49 145.136 137.107C145.136 137.767 145.269 138.27 145.536 138.617C145.803 138.963 146.203 139.137 146.736 139.137C146.943 139.137 147.128 139.09 147.291 138.997C147.454 138.903 147.584 138.782 147.681 138.632C147.781 138.482 147.834 138.322 147.841 138.152H148.756C148.746 138.495 148.649 138.803 148.466 139.077C148.283 139.35 148.036 139.565 147.726 139.722C147.416 139.878 147.066 139.957 146.676 139.957ZM152.041 139.942C151.545 139.942 151.108 139.833 150.731 139.617C150.358 139.4 150.068 139.082 149.861 138.662C149.655 138.238 149.551 137.722 149.551 137.112C149.551 136.525 149.658 136.022 149.871 135.602C150.085 135.182 150.378 134.86 150.751 134.637C151.125 134.413 151.55 134.302 152.026 134.302C152.5 134.302 152.905 134.403 153.241 134.607C153.581 134.81 153.843 135.102 154.026 135.482C154.21 135.858 154.3 136.31 154.296 136.837C154.296 136.943 154.293 137.032 154.286 137.102C154.28 137.172 154.275 137.245 154.271 137.322H150.481C150.505 137.922 150.655 138.377 150.931 138.687C151.211 138.993 151.568 139.147 152.001 139.147C152.368 139.147 152.651 139.07 152.851 138.917C153.055 138.76 153.183 138.56 153.236 138.317H154.146C154.123 138.663 154.016 138.958 153.826 139.202C153.64 139.445 153.393 139.63 153.086 139.757C152.78 139.88 152.431 139.942 152.041 139.942ZM150.976 136.622H153.361C153.355 136.155 153.24 135.788 153.016 135.522C152.793 135.255 152.451 135.122 151.991 135.122C151.508 135.122 151.141 135.287 150.891 135.617C150.641 135.943 150.505 136.395 150.481 136.972C150.508 136.835 150.561 136.743 150.641 136.697C150.725 136.647 150.836 136.622 150.976 136.622ZM121.466 153.867L119.681 150.902H118.346L118.011 150.827L118.156 150.212V150.052H119.576C119.889 150.052 120.139 149.99 120.326 149.867C120.516 149.743 120.652 149.577 120.736 149.367C120.819 149.157 120.861 148.923 120.861 148.667C120.861 148.387 120.809 148.16 120.706 147.987C120.602 147.813 120.456 147.687 120.266 147.607C120.079 147.523 119.856 147.482 119.596 147.482H118.436V147.237L118.006 146.597C118.162 146.597 118.324 146.597 118.491 146.597C118.661 146.597 118.836 146.597 119.016 146.597C119.199 146.597 119.384 146.597 119.571 146.597C120.027 146.597 120.424 146.67 120.761 146.817C121.097 146.963 121.359 147.183 121.546 147.477C121.732 147.767 121.826 148.132 121.826 148.572C121.826 148.895 121.771 149.21 121.661 149.517C121.554 149.82 121.377 150.083 121.131 150.307C120.884 150.53 120.556 150.682 120.146 150.762L120.161 150.692C120.277 150.688 120.374 150.698 120.451 150.722C120.527 150.745 120.597 150.788 120.661 150.852C120.724 150.915 120.792 151.005 120.866 151.122L122.606 153.867H121.466ZM117.536 153.867V146.597H118.466V153.867H117.536ZM125.518 153.942C125.021 153.942 124.585 153.833 124.208 153.617C123.835 153.4 123.545 153.082 123.338 152.662C123.131 152.238 123.028 151.722 123.028 151.112C123.028 150.525 123.135 150.022 123.348 149.602C123.561 149.182 123.855 148.86 124.228 148.637C124.601 148.413 125.026 148.302 125.503 148.302C125.976 148.302 126.381 148.403 126.718 148.607C127.058 148.81 127.32 149.102 127.503 149.482C127.686 149.858 127.776 150.31 127.773 150.837C127.773 150.943 127.77 151.032 127.763 151.102C127.756 151.172 127.751 151.245 127.748 151.322H123.958C123.981 151.922 124.131 152.377 124.408 152.687C124.688 152.993 125.045 153.147 125.478 153.147C125.845 153.147 126.128 153.07 126.328 152.917C126.531 152.76 126.66 152.56 126.713 152.317H127.623C127.6 152.663 127.493 152.958 127.303 153.202C127.116 153.445 126.87 153.63 126.563 153.757C126.256 153.88 125.908 153.942 125.518 153.942ZM124.453 150.622H126.838C126.831 150.155 126.716 149.788 126.493 149.522C126.27 149.255 125.928 149.122 125.468 149.122C124.985 149.122 124.618 149.287 124.368 149.617C124.118 149.943 123.981 150.395 123.958 150.972C123.985 150.835 124.038 150.743 124.118 150.697C124.201 150.647 124.313 150.622 124.453 150.622ZM130.242 153.867L128.272 148.412H129.332L130.092 150.887L130.732 152.922H130.767L131.402 150.892L132.167 148.412H133.222L131.252 153.867H130.242ZM134.202 153.867V148.442H135.142L135.127 153.867H134.202ZM134.677 147.567C134.494 147.567 134.337 147.503 134.207 147.377C134.08 147.25 134.017 147.087 134.017 146.887C134.017 146.69 134.08 146.528 134.207 146.402C134.337 146.275 134.494 146.212 134.677 146.212C134.857 146.212 135.01 146.275 135.137 146.402C135.267 146.528 135.332 146.69 135.332 146.887C135.332 147.087 135.267 147.25 135.137 147.377C135.007 147.503 134.854 147.567 134.677 147.567ZM138.897 153.942C138.4 153.942 137.964 153.833 137.587 153.617C137.214 153.4 136.924 153.082 136.717 152.662C136.51 152.238 136.407 151.722 136.407 151.112C136.407 150.525 136.514 150.022 136.727 149.602C136.94 149.182 137.234 148.86 137.607 148.637C137.98 148.413 138.405 148.302 138.882 148.302C139.355 148.302 139.76 148.403 140.097 148.607C140.437 148.81 140.699 149.102 140.882 149.482C141.065 149.858 141.155 150.31 141.152 150.837C141.152 150.943 141.149 151.032 141.142 151.102C141.135 151.172 141.13 151.245 141.127 151.322H137.337C137.36 151.922 137.51 152.377 137.787 152.687C138.067 152.993 138.424 153.147 138.857 153.147C139.224 153.147 139.507 153.07 139.707 152.917C139.91 152.76 140.039 152.56 140.092 152.317H141.002C140.979 152.663 140.872 152.958 140.682 153.202C140.495 153.445 140.249 153.63 139.942 153.757C139.635 153.88 139.287 153.942 138.897 153.942ZM137.832 150.622H140.217C140.21 150.155 140.095 149.788 139.872 149.522C139.649 149.255 139.307 149.122 138.847 149.122C138.364 149.122 137.997 149.287 137.747 149.617C137.497 149.943 137.36 150.395 137.337 150.972C137.364 150.835 137.417 150.743 137.497 150.697C137.58 150.647 137.692 150.622 137.832 150.622ZM143.325 153.867L141.625 148.412H142.665L143.375 151.042L143.84 153.057H143.89L144.265 151.062L144.935 148.412H146.11L146.765 151.067L147.145 153.097L147.195 153.092L147.67 151.047L148.38 148.412H149.415L147.72 153.867H146.62L145.91 151.147L145.555 149.447H145.495L145.13 151.152L144.425 153.867H143.325Z" fill="#1A1628"/>
<circle cx="131" cy="107" r="10" fill="#31508F"/>
<path d="M128 107.351L129.959 109.311L134.662 105" stroke="white" stroke-width="1.17568" stroke-linecap="round" stroke-linejoin="round"/>
<circle cx="201" cy="107" r="10" fill="#31508F"/>
<path d="M198 107.351L199.959 109.311L204.662 105" stroke="white" stroke-width="1.17568" stroke-linecap="round" stroke-linejoin="round"/>
<circle cx="271" cy="107" r="10" fill="#31508F"/>
<path d="M268 107.351L269.959 109.311L274.662 105" stroke="white" stroke-width="1.17568" stroke-linecap="round" stroke-linejoin="round"/>
<path d="M34.4412 137.232C34.3379 137.232 34.2429 137.202 34.1562 137.142C34.0695 137.078 34.0262 136.995 34.0262 136.892L33.6762 136.617L34.0262 136.377H35.4562C35.7629 136.377 36.0195 136.318 36.2262 136.202C36.4362 136.082 36.5945 135.91 36.7012 135.687C36.8112 135.46 36.8662 135.187 36.8662 134.867C36.8662 134.373 36.7345 134.018 36.4712 133.802C36.2079 133.582 35.8429 133.472 35.3762 133.472H33.9962L33.5662 132.597C33.7229 132.597 33.9145 132.597 34.1412 132.597C34.3712 132.597 34.5929 132.597 34.8062 132.597C35.0195 132.597 35.1795 132.597 35.2862 132.597C36.1195 132.597 36.7495 132.778 37.1762 133.142C37.6062 133.502 37.8212 134.06 37.8212 134.817C37.8212 135.143 37.7729 135.452 37.6762 135.742C37.5829 136.032 37.4345 136.288 37.2312 136.512C37.0312 136.735 36.7712 136.912 36.4512 137.042C36.1312 137.168 35.7479 137.232 35.3012 137.232H34.4412ZM33.0912 139.867V132.597H34.0262V139.867H33.0912ZM38.8913 139.867V134.407H39.6813L39.7813 136.507L39.6713 136.222C39.6946 136.015 39.7396 135.8 39.8063 135.577C39.8763 135.353 39.9746 135.145 40.1013 134.952C40.2313 134.755 40.3963 134.597 40.5963 134.477C40.7996 134.357 41.048 134.297 41.3413 134.297C41.398 134.297 41.4513 134.3 41.5013 134.307C41.5546 134.313 41.6063 134.322 41.6563 134.332V135.317C41.573 135.29 41.4846 135.273 41.3913 135.267C41.3013 135.257 41.2163 135.252 41.1363 135.252C40.973 135.252 40.808 135.283 40.6413 135.347C40.4746 135.41 40.3196 135.512 40.1763 135.652C40.033 135.788 39.9146 135.967 39.8213 136.187V139.867H38.8913ZM44.7261 139.942C44.2294 139.942 43.7927 139.833 43.4161 139.617C43.0427 139.4 42.7527 139.082 42.5461 138.662C42.3394 138.238 42.2361 137.722 42.2361 137.112C42.2361 136.525 42.3427 136.022 42.5561 135.602C42.7694 135.182 43.0627 134.86 43.4361 134.637C43.8094 134.413 44.2344 134.302 44.7111 134.302C45.1844 134.302 45.5894 134.403 45.9261 134.607C46.2661 134.81 46.5277 135.102 46.7111 135.482C46.8944 135.858 46.9844 136.31 46.9811 136.837C46.9811 136.943 46.9777 137.032 46.9711 137.102C46.9644 137.172 46.9594 137.245 46.9561 137.322H43.1661C43.1894 137.922 43.3394 138.377 43.6161 138.687C43.8961 138.993 44.2527 139.147 44.6861 139.147C45.0527 139.147 45.3361 139.07 45.5361 138.917C45.7394 138.76 45.8677 138.56 45.9211 138.317H46.8311C46.8077 138.663 46.7011 138.958 46.5111 139.202C46.3244 139.445 46.0777 139.63 45.7711 139.757C45.4644 139.88 45.1161 139.942 44.7261 139.942ZM43.6611 136.622H46.0461C46.0394 136.155 45.9244 135.788 45.7011 135.522C45.4777 135.255 45.1361 135.122 44.6761 135.122C44.1927 135.122 43.8261 135.287 43.5761 135.617C43.3261 135.943 43.1894 136.395 43.1661 136.972C43.1927 136.835 43.2461 136.743 43.3261 136.697C43.4094 136.647 43.5211 136.622 43.6611 136.622ZM49.8939 139.952C49.5172 139.952 49.1722 139.895 48.8589 139.782C48.5489 139.665 48.2972 139.485 48.1039 139.242C47.9105 138.995 47.8022 138.678 47.7789 138.292H48.6989C48.7589 138.625 48.8905 138.855 49.0939 138.982C49.3005 139.105 49.5622 139.167 49.8789 139.167C50.0955 139.167 50.2905 139.143 50.4639 139.097C50.6405 139.05 50.7805 138.972 50.8839 138.862C50.9872 138.752 51.0389 138.602 51.0389 138.412C51.0389 138.265 51.0072 138.147 50.9439 138.057C50.8805 137.967 50.7922 137.893 50.6789 137.837C50.5655 137.777 50.4322 137.725 50.2789 137.682C50.1289 137.638 49.9655 137.592 49.7889 137.542C49.4589 137.445 49.1539 137.333 48.8739 137.207C48.5939 137.077 48.3689 136.903 48.1989 136.687C48.0289 136.47 47.9439 136.18 47.9439 135.817C47.9439 135.37 48.1139 135.008 48.4539 134.732C48.7939 134.452 49.2405 134.312 49.7939 134.312C50.1439 134.312 50.4589 134.365 50.7389 134.472C51.0222 134.578 51.2522 134.75 51.4289 134.987C51.6089 135.22 51.7189 135.533 51.7589 135.927H50.8439C50.8105 135.747 50.7489 135.595 50.6589 135.472C50.5722 135.348 50.4572 135.255 50.3139 135.192C50.1705 135.128 49.9955 135.097 49.7889 135.097C49.6155 135.097 49.4589 135.122 49.3189 135.172C49.1789 135.218 49.0672 135.293 48.9839 135.397C48.9005 135.5 48.8589 135.637 48.8589 135.807C48.8589 135.993 48.9089 136.143 49.0089 136.257C49.1089 136.37 49.2505 136.465 49.4339 136.542C49.6172 136.615 49.8322 136.688 50.0789 136.762C50.2689 136.822 50.4722 136.885 50.6889 136.952C50.9055 137.015 51.1089 137.1 51.2989 137.207C51.4922 137.313 51.6489 137.457 51.7689 137.637C51.8922 137.813 51.9539 138.045 51.9539 138.332C51.9539 138.845 51.7639 139.243 51.3839 139.527C51.0039 139.81 50.5072 139.952 49.8939 139.952ZM55.3079 139.957C54.8013 139.957 54.3613 139.842 53.9879 139.612C53.6146 139.382 53.3263 139.055 53.1229 138.632C52.9196 138.208 52.8179 137.71 52.8179 137.137C52.8179 136.533 52.9213 136.022 53.1279 135.602C53.3379 135.182 53.6263 134.862 53.9929 134.642C54.3629 134.418 54.7846 134.307 55.2579 134.307C55.7113 134.307 56.0963 134.395 56.4129 134.572C56.7296 134.745 56.9713 134.977 57.1379 135.267C57.3079 135.557 57.3979 135.877 57.4079 136.227H56.4929C56.4863 136.093 56.4579 135.962 56.4079 135.832C56.3579 135.702 56.2829 135.585 56.1829 135.482C56.0829 135.375 55.9546 135.29 55.7979 135.227C55.6446 135.16 55.4596 135.127 55.2429 135.127C54.7396 135.123 54.3679 135.298 54.1279 135.652C53.8879 136.005 53.7679 136.49 53.7679 137.107C53.7679 137.767 53.9013 138.27 54.1679 138.617C54.4346 138.963 54.8346 139.137 55.3679 139.137C55.5746 139.137 55.7596 139.09 55.9229 138.997C56.0863 138.903 56.2163 138.782 56.3129 138.632C56.4129 138.482 56.4663 138.322 56.4729 138.152H57.3879C57.3779 138.495 57.2813 138.803 57.0979 139.077C56.9146 139.35 56.6679 139.565 56.3579 139.722C56.0479 139.878 55.6979 139.957 55.3079 139.957ZM58.53 139.867V134.407H59.32L59.42 136.507L59.31 136.222C59.3333 136.015 59.3783 135.8 59.445 135.577C59.515 135.353 59.6133 135.145 59.74 134.952C59.87 134.755 60.035 134.597 60.235 134.477C60.4383 134.357 60.6866 134.297 60.98 134.297C61.0366 134.297 61.09 134.3 61.14 134.307C61.1933 134.313 61.245 134.322 61.295 134.332V135.317C61.2116 135.29 61.1233 135.273 61.03 135.267C60.94 135.257 60.855 135.252 60.775 135.252C60.6116 135.252 60.4466 135.283 60.28 135.347C60.1133 135.41 59.9583 135.512 59.815 135.652C59.6716 135.788 59.5533 135.967 59.46 136.187V139.867H58.53ZM62.238 139.867V134.442H63.178L63.163 139.867H62.238ZM62.713 133.567C62.5297 133.567 62.373 133.503 62.243 133.377C62.1163 133.25 62.053 133.087 62.053 132.887C62.053 132.69 62.1163 132.528 62.243 132.402C62.373 132.275 62.5297 132.212 62.713 132.212C62.893 132.212 63.0463 132.275 63.173 132.402C63.303 132.528 63.368 132.69 63.368 132.887C63.368 133.087 63.303 133.25 63.173 133.377C63.043 133.503 62.8897 133.567 62.713 133.567ZM67.2333 139.927C66.88 139.927 66.595 139.865 66.3783 139.742C66.165 139.615 66.0067 139.47 65.9033 139.307C65.8 139.143 65.7383 139.007 65.7183 138.897L65.4233 138.847L65.7783 138.587C65.8083 138.667 65.8733 138.752 65.9733 138.842C66.0733 138.932 66.2083 139.01 66.3783 139.077C66.5517 139.14 66.7567 139.172 66.9933 139.172C67.4033 139.172 67.7433 139.003 68.0133 138.667C68.2867 138.33 68.4233 137.802 68.4233 137.082C68.4233 136.435 68.2967 135.948 68.0433 135.622C67.7933 135.292 67.4733 135.127 67.0833 135.127C66.82 135.127 66.5967 135.168 66.4133 135.252C66.2333 135.335 66.09 135.437 65.9833 135.557C65.88 135.673 65.8117 135.787 65.7783 135.897V135.527C65.785 135.42 65.8183 135.298 65.8783 135.162C65.9383 135.022 66.03 134.887 66.1533 134.757C66.28 134.627 66.4417 134.52 66.6383 134.437C66.835 134.35 67.075 134.307 67.3583 134.307C67.775 134.307 68.135 134.418 68.4383 134.642C68.7417 134.865 68.975 135.18 69.1383 135.587C69.3017 135.993 69.3833 136.47 69.3833 137.017C69.3833 137.513 69.3217 137.945 69.1983 138.312C69.075 138.675 68.9083 138.977 68.6983 139.217C68.4917 139.457 68.26 139.635 68.0033 139.752C67.75 139.868 67.4933 139.927 67.2333 139.927ZM64.8533 141.882V134.407H65.7683L65.7783 135.147V138.587L65.7183 138.897L65.7783 139.872L65.7833 141.882H64.8533ZM72.2639 139.942C71.8405 139.942 71.5172 139.833 71.2939 139.617C71.0739 139.397 70.9639 139.085 70.9639 138.682V135.722C70.9639 135.615 70.9855 135.517 71.0289 135.427C71.0722 135.333 71.1355 135.273 71.2189 135.247L70.9639 134.627V134.457L71.1889 132.827H71.8839V138.527C71.8839 138.74 71.9339 138.885 72.0339 138.962C72.1339 139.035 72.3055 139.072 72.5489 139.072C72.7255 139.072 72.8755 139.072 72.9989 139.072C73.1222 139.068 73.2505 139.062 73.3839 139.052V139.872C73.2005 139.905 73.0105 139.925 72.8139 139.932C72.6205 139.938 72.4372 139.942 72.2639 139.942ZM70.1689 135.247V134.407H73.3389V135.247H70.1689ZM74.445 139.867V134.442H75.385L75.37 139.867H74.445ZM74.92 133.567C74.7367 133.567 74.58 133.503 74.45 133.377C74.3234 133.25 74.26 133.087 74.26 132.887C74.26 132.69 74.3234 132.528 74.45 132.402C74.58 132.275 74.7367 132.212 74.92 132.212C75.1 132.212 75.2534 132.275 75.38 132.402C75.51 132.528 75.575 132.69 75.575 132.887C75.575 133.087 75.51 133.25 75.38 133.377C75.25 133.503 75.0967 133.567 74.92 133.567ZM79.0756 139.942C78.5956 139.942 78.1739 139.833 77.8106 139.617C77.4506 139.4 77.1689 139.082 76.9656 138.662C76.7656 138.238 76.6656 137.72 76.6656 137.107C76.6656 136.527 76.7723 136.027 76.9856 135.607C77.1989 135.187 77.4889 134.865 77.8556 134.642C78.2256 134.415 78.6389 134.302 79.0956 134.302C79.5923 134.302 80.0206 134.415 80.3806 134.642C80.7439 134.865 81.0239 135.187 81.2206 135.607C81.4173 136.027 81.5156 136.527 81.5156 137.107C81.5156 137.72 81.4056 138.238 81.1856 138.662C80.9689 139.082 80.6756 139.4 80.3056 139.617C79.9356 139.833 79.5256 139.942 79.0756 139.942ZM79.0956 139.122C79.5423 139.122 79.8989 138.955 80.1656 138.622C80.4323 138.288 80.5656 137.783 80.5656 137.107C80.5656 136.46 80.4339 135.968 80.1706 135.632C79.9106 135.292 79.5456 135.122 79.0756 135.122C78.6323 135.122 78.2773 135.292 78.0106 135.632C77.7473 135.968 77.6156 136.46 77.6156 137.107C77.6156 137.76 77.7489 138.26 78.0156 138.607C78.2856 138.95 78.6456 139.122 79.0956 139.122ZM82.778 139.867V134.407H83.568L83.668 136.467L83.578 136.052C83.6213 135.728 83.7113 135.435 83.848 135.172C83.988 134.905 84.183 134.693 84.433 134.537C84.6863 134.377 85.0047 134.297 85.388 134.297C85.8947 134.297 86.288 134.453 86.568 134.767C86.8513 135.077 86.993 135.54 86.993 136.157V139.867H86.063V136.462C86.063 136.152 86.028 135.902 85.958 135.712C85.8913 135.522 85.783 135.383 85.633 135.297C85.4863 135.21 85.2897 135.167 85.043 135.167C84.7463 135.167 84.4847 135.248 84.258 135.412C84.0347 135.575 83.8513 135.8 83.708 136.087V139.867H82.778Z" fill="#1A1628"/>
<circle cx="61" cy="107" r="10" fill="#31508F"/>
<path d="M58 107.351L59.9595 109.311L64.6622 105" stroke="white" stroke-width="1.17568" stroke-linecap="round" stroke-linejoin="round"/>
<path d="M256.35 137.232C256.247 137.232 256.152 137.202 256.065 137.142C255.979 137.078 255.935 136.995 255.935 136.892L255.585 136.617L255.935 136.377H257.365C257.672 136.377 257.929 136.318 258.135 136.202C258.345 136.082 258.504 135.91 258.61 135.687C258.72 135.46 258.775 135.187 258.775 134.867C258.775 134.373 258.644 134.018 258.38 133.802C258.117 133.582 257.752 133.472 257.285 133.472H255.905L255.475 132.597C255.632 132.597 255.824 132.597 256.05 132.597C256.28 132.597 256.502 132.597 256.715 132.597C256.929 132.597 257.089 132.597 257.195 132.597C258.029 132.597 258.659 132.778 259.085 133.142C259.515 133.502 259.73 134.06 259.73 134.817C259.73 135.143 259.682 135.452 259.585 135.742C259.492 136.032 259.344 136.288 259.14 136.512C258.94 136.735 258.68 136.912 258.36 137.042C258.04 137.168 257.657 137.232 257.21 137.232H256.35ZM255 139.867V132.597H255.935V139.867H255ZM260.905 139.867V134.442H261.845L261.83 139.867H260.905ZM261.38 133.567C261.197 133.567 261.04 133.503 260.91 133.377C260.783 133.25 260.72 133.087 260.72 132.887C260.72 132.69 260.783 132.528 260.91 132.402C261.04 132.275 261.197 132.212 261.38 132.212C261.56 132.212 261.713 132.275 261.84 132.402C261.97 132.528 262.035 132.69 262.035 132.887C262.035 133.087 261.97 133.25 261.84 133.377C261.71 133.503 261.557 133.567 261.38 133.567ZM265.616 139.957C265.109 139.957 264.669 139.842 264.296 139.612C263.922 139.382 263.634 139.055 263.431 138.632C263.227 138.208 263.126 137.71 263.126 137.137C263.126 136.533 263.229 136.022 263.436 135.602C263.646 135.182 263.934 134.862 264.301 134.642C264.671 134.418 265.092 134.307 265.566 134.307C266.019 134.307 266.404 134.395 266.721 134.572C267.037 134.745 267.279 134.977 267.446 135.267C267.616 135.557 267.706 135.877 267.716 136.227H266.801C266.794 136.093 266.766 135.962 266.716 135.832C266.666 135.702 266.591 135.585 266.491 135.482C266.391 135.375 266.262 135.29 266.106 135.227C265.952 135.16 265.767 135.127 265.551 135.127C265.047 135.123 264.676 135.298 264.436 135.652C264.196 136.005 264.076 136.49 264.076 137.107C264.076 137.767 264.209 138.27 264.476 138.617C264.742 138.963 265.142 139.137 265.676 139.137C265.882 139.137 266.067 139.09 266.231 138.997C266.394 138.903 266.524 138.782 266.621 138.632C266.721 138.482 266.774 138.322 266.781 138.152H267.696C267.686 138.495 267.589 138.803 267.406 139.077C267.222 139.35 266.976 139.565 266.666 139.722C266.356 139.878 266.006 139.957 265.616 139.957ZM271.948 139.867L269.668 136.892L270.528 136.742L271.108 137.327L273.178 139.867H271.948ZM268.833 139.867V132.092H269.758V136.147L269.688 136.877V136.917L269.758 137.677V139.867H268.833ZM270.533 137.057L269.668 136.892L270.723 135.607L271.743 134.412H273.003L271.108 136.447L270.533 137.057ZM278.247 139.967C277.74 139.967 277.289 139.86 276.892 139.647C276.495 139.433 276.184 139.11 275.957 138.677C275.73 138.243 275.617 137.697 275.617 137.037V132.587H276.572V137.047C276.572 137.437 276.617 137.763 276.707 138.027C276.8 138.29 276.925 138.5 277.082 138.657C277.242 138.813 277.422 138.927 277.622 138.997C277.822 139.063 278.032 139.097 278.252 139.097C278.462 139.097 278.664 139.063 278.857 138.997C279.05 138.927 279.224 138.813 279.377 138.657C279.534 138.5 279.657 138.29 279.747 138.027C279.837 137.763 279.882 137.437 279.882 137.047V132.597H280.832V137.037C280.832 137.697 280.717 138.243 280.487 138.677C280.257 139.11 279.947 139.433 279.557 139.647C279.167 139.86 278.73 139.967 278.247 139.967ZM284.709 139.927C284.356 139.927 284.071 139.865 283.854 139.742C283.641 139.615 283.482 139.47 283.379 139.307C283.276 139.143 283.214 139.007 283.194 138.897L282.899 138.847L283.254 138.587C283.284 138.667 283.349 138.752 283.449 138.842C283.549 138.932 283.684 139.01 283.854 139.077C284.027 139.14 284.232 139.172 284.469 139.172C284.879 139.172 285.219 139.003 285.489 138.667C285.762 138.33 285.899 137.802 285.899 137.082C285.899 136.435 285.772 135.948 285.519 135.622C285.269 135.292 284.949 135.127 284.559 135.127C284.296 135.127 284.072 135.168 283.889 135.252C283.709 135.335 283.566 135.437 283.459 135.557C283.356 135.673 283.287 135.787 283.254 135.897V135.527C283.261 135.42 283.294 135.298 283.354 135.162C283.414 135.022 283.506 134.887 283.629 134.757C283.756 134.627 283.917 134.52 284.114 134.437C284.311 134.35 284.551 134.307 284.834 134.307C285.251 134.307 285.611 134.418 285.914 134.642C286.217 134.865 286.451 135.18 286.614 135.587C286.777 135.993 286.859 136.47 286.859 137.017C286.859 137.513 286.797 137.945 286.674 138.312C286.551 138.675 286.384 138.977 286.174 139.217C285.967 139.457 285.736 139.635 285.479 139.752C285.226 139.868 284.969 139.927 284.709 139.927ZM282.329 141.882V134.407H283.244L283.254 135.147V138.587L283.194 138.897L283.254 139.872L283.259 141.882H282.329Z" fill="#1A1628"/>
<path d="M73.3228 109.267L117.669 109.267" stroke="#31508F" stroke-width="1.5" stroke-linecap="round"/>
<path d="M143.874 109.267L188.22 109.267" stroke="#31508F" stroke-width="1.5" stroke-linecap="round"/>
<path d="M214.425 109.267L258.772 109.267" stroke="#31508F" stroke-width="1.5" stroke-linecap="round"/>
</g>
<defs>
<filter id="filter0_d_10530_17102" x="-3" y="0" width="328" height="192" filterUnits="userSpaceOnUse" color-interpolation-filters="sRGB">
<feFlood flood-opacity="0" result="BackgroundImageFix"/>
<feColorMatrix in="SourceAlpha" type="matrix" values="0 0 0 0 0 0 0 0 0 0 0 0 0 0 0 0 0 0 127 0" result="hardAlpha"/>
<feOffset dx="1" dy="1"/>
<feGaussianBlur stdDeviation="10"/>
<feComposite in2="hardAlpha" operator="out"/>
<feColorMatrix type="matrix" values="0 0 0 0 0.909804 0 0 0 0 0.917647 0 0 0 0 0.929412 0 0 0 0.7 0"/>
<feBlend mode="normal" in2="BackgroundImageFix" result="effect1_dropShadow_10530_17102"/>
<feBlend mode="normal" in="SourceGraphic" in2="effect1_dropShadow_10530_17102" result="shape"/>
</filter>
</defs>
</svg>
