<svg width="256" height="40" viewBox="0 0 256 40" fill="none" xmlns="http://www.w3.org/2000/svg" >
<path d="M11.7494 24.4688C11.7494 23.2967 12.702 22.3441 13.8741 22.3441H19.9999V12.9186C19.9999 10.485 18.0282 8.51331 15.5946 8.51331H4.40529C1.9717 8.51331 0 10.485 0 12.9186V27.0756C0 29.5091 1.9717 31.4808 4.40529 31.4808H11.7494V24.4659V24.4688Z" fill="#31508F"/>
<path d="M13.1777 31.4839V24.9972C13.1777 24.4429 13.6281 23.9926 14.1823 23.9926H19.9993L13.1777 31.4867V31.4839Z" fill="#FFCC4A"/>
<path d="M10.6237 18.9734L12.1941 17.3683C12.4251 17.1316 12.4222 16.7534 12.1855 16.5225C11.9488 16.2915 11.5706 16.2944 11.3396 16.5312L9.78943 18.116L8.1526 16.4301C9.15721 16.2425 9.91933 15.362 9.91933 14.3054C9.91933 13.1132 8.94936 12.1432 7.7571 12.1432H5.15031C4.82121 12.1432 4.55273 12.4117 4.55273 12.7408V19.8741C4.55273 20.2032 4.82121 20.4717 5.15031 20.4717C5.4794 20.4717 5.74788 20.2032 5.74788 19.8741V16.4648H6.52443L8.95225 18.9676L7.36161 20.5929C7.13066 20.8296 7.13355 21.2078 7.37027 21.4387C7.48574 21.5513 7.63874 21.6091 7.78886 21.6091C7.93897 21.6091 8.09775 21.5484 8.21611 21.4301L9.78365 19.8279L11.3339 21.4272C11.4522 21.5484 11.6081 21.6091 11.764 21.6091C11.9199 21.6091 12.0642 21.5542 12.1797 21.4416C12.4164 21.2107 12.4222 20.8325 12.1941 20.5958L10.6208 18.9734H10.6237ZM5.75076 13.3354H7.75999C8.29405 13.3354 8.72708 13.7685 8.72708 14.3025C8.72708 14.8366 8.29405 15.2696 7.75999 15.2696H5.75076V13.3354Z" fill="white"/>
<path d="M41.18 15.147C40.312 15.147 39.535 14.944 38.849 14.538C38.1677 14.132 37.631 13.5393 37.239 12.76C36.847 11.976 36.651 11.0193 36.651 9.89C36.651 8.82133 36.8423 7.895 37.225 7.111C37.6077 6.32233 38.142 5.71333 38.828 5.284C39.514 4.85 40.3097 4.633 41.215 4.633C41.8823 4.633 42.496 4.76367 43.056 5.025C43.6207 5.28633 44.0757 5.67367 44.421 6.187C44.771 6.69567 44.9577 7.32567 44.981 8.077H43.644C43.616 7.57767 43.4853 7.16467 43.252 6.838C43.0233 6.50667 42.727 6.25933 42.363 6.096C41.999 5.928 41.5977 5.844 41.159 5.844C40.557 5.844 40.0157 6.005 39.535 6.327C39.059 6.64433 38.6833 7.104 38.408 7.706C38.1327 8.308 37.995 9.03367 37.995 9.883C37.995 10.849 38.1397 11.6307 38.429 12.228C38.7183 12.8207 39.1057 13.2547 39.591 13.53C40.0763 13.8007 40.613 13.936 41.201 13.936C41.7377 13.936 42.181 13.8403 42.531 13.649C42.8857 13.453 43.1563 13.1963 43.343 12.879C43.5297 12.5617 43.6347 12.2187 43.658 11.85H44.981C44.939 12.5267 44.7593 13.1123 44.442 13.607C44.1293 14.1017 43.6977 14.482 43.147 14.748C42.5963 15.014 41.9407 15.147 41.18 15.147ZM49.4099 15.105C48.7379 15.105 48.1476 14.9533 47.6389 14.65C47.1349 14.3467 46.7406 13.901 46.4559 13.313C46.1759 12.7203 46.0359 11.9947 46.0359 11.136C46.0359 10.324 46.1853 9.624 46.4839 9.036C46.7826 8.448 47.1886 7.99767 47.7019 7.685C48.2199 7.36767 48.7986 7.209 49.4379 7.209C50.1333 7.209 50.7329 7.36767 51.2369 7.685C51.7456 7.99767 52.1376 8.448 52.4129 9.036C52.6883 9.624 52.8259 10.324 52.8259 11.136C52.8259 11.9947 52.6719 12.7203 52.3639 13.313C52.0606 13.901 51.6499 14.3467 51.1319 14.65C50.6139 14.9533 50.0399 15.105 49.4099 15.105ZM49.4379 13.957C50.0633 13.957 50.5626 13.7237 50.9359 13.257C51.3093 12.7903 51.4959 12.0833 51.4959 11.136C51.4959 10.2307 51.3116 9.54233 50.9429 9.071C50.5789 8.595 50.0679 8.357 49.4099 8.357C48.7893 8.357 48.2923 8.595 47.9189 9.071C47.5503 9.54233 47.3659 10.2307 47.3659 11.136C47.3659 12.0507 47.5526 12.7507 47.9259 13.236C48.3039 13.7167 48.8079 13.957 49.4379 13.957ZM54.5933 15V7.356H55.6993L55.8393 10.24L55.7133 9.659C55.774 9.20633 55.9 8.79567 56.0913 8.427C56.2873 8.05367 56.5603 7.75733 56.9103 7.538C57.265 7.314 57.7106 7.202 58.2473 7.202C58.9566 7.202 59.5073 7.42133 59.8993 7.86C60.296 8.294 60.4943 8.94267 60.4943 9.806V15H59.1923V10.233C59.1923 9.799 59.1433 9.449 59.0453 9.183C58.952 8.917 58.8003 8.72333 58.5903 8.602C58.385 8.48067 58.1096 8.42 57.7643 8.42C57.349 8.42 56.9826 8.53433 56.6653 8.763C56.3526 8.99167 56.096 9.30667 55.8953 9.708V15H54.5933ZM65.5634 18.115C64.9847 18.115 64.4597 18.0147 63.9884 17.814C63.5171 17.6133 63.1507 17.3053 62.8894 16.89C62.6281 16.4793 62.5231 15.959 62.5744 15.329H63.8344C63.8204 15.679 63.8647 15.9777 63.9674 16.225C64.0701 16.4723 64.2521 16.6613 64.5134 16.792C64.7747 16.9227 65.1341 16.988 65.5914 16.988C66.0394 16.988 66.3824 16.9227 66.6204 16.792C66.8584 16.6613 67.0217 16.4583 67.1104 16.183C67.2037 15.9077 67.2504 15.553 67.2504 15.119V13.068C67.2084 13.278 67.1127 13.5043 66.9634 13.747C66.8187 13.9897 66.5994 14.1973 66.3054 14.37C66.0161 14.5427 65.6287 14.629 65.1434 14.629C64.7001 14.629 64.2987 14.5357 63.9394 14.349C63.5801 14.1577 63.2697 13.8963 63.0084 13.565C62.7517 13.2337 62.5534 12.8487 62.4134 12.41C62.2781 11.9713 62.2104 11.5047 62.2104 11.01C62.2104 10.1793 62.3504 9.484 62.6304 8.924C62.9104 8.35933 63.2767 7.93467 63.7294 7.65C64.1821 7.36067 64.6674 7.216 65.1854 7.216C65.6101 7.216 65.9577 7.27433 66.2284 7.391C66.5037 7.503 66.7231 7.643 66.8864 7.811C67.0497 7.979 67.1711 8.14233 67.2504 8.301V7.363H68.5314V15.077C68.5314 15.8143 68.4031 16.4047 68.1464 16.848C67.8897 17.2913 67.5374 17.611 67.0894 17.807C66.6461 18.0077 66.1374 18.1103 65.5634 18.115ZM65.5424 13.544C65.8924 13.544 66.1841 13.488 66.4174 13.376C66.6507 13.2593 66.8351 13.117 66.9704 12.949C67.1057 12.781 67.1991 12.62 67.2504 12.466V9.218C67.2084 9.106 67.1174 8.98233 66.9774 8.847C66.8374 8.71167 66.6507 8.595 66.4174 8.497C66.1841 8.399 65.8994 8.35 65.5634 8.35C64.9661 8.35 64.4831 8.56467 64.1144 8.994C63.7457 9.41867 63.5614 10.0697 63.5614 10.947C63.5614 11.7963 63.7457 12.4427 64.1144 12.886C64.4877 13.3247 64.9637 13.544 65.5424 13.544ZM70.8492 15V7.356H71.9552L72.0952 10.296L71.9412 9.897C71.9738 9.60767 72.0368 9.30667 72.1302 8.994C72.2282 8.68133 72.3658 8.38967 72.5432 8.119C72.7252 7.84367 72.9562 7.622 73.2362 7.454C73.5208 7.286 73.8685 7.202 74.2792 7.202C74.3585 7.202 74.4332 7.20667 74.5032 7.216C74.5778 7.22533 74.6502 7.237 74.7202 7.251V8.63C74.6035 8.59267 74.4798 8.56933 74.3492 8.56C74.2232 8.546 74.1042 8.539 73.9922 8.539C73.7635 8.539 73.5325 8.58333 73.2992 8.672C73.0658 8.76067 72.8488 8.903 72.6482 9.099C72.4475 9.29033 72.2818 9.54 72.1512 9.848V15H70.8492ZM77.8385 15.084C77.3531 15.084 76.9331 14.993 76.5785 14.811C76.2285 14.6243 75.9578 14.3723 75.7665 14.055C75.5798 13.7377 75.4865 13.3783 75.4865 12.977C75.4865 12.5617 75.5681 12.2117 75.7315 11.927C75.8948 11.6377 76.1305 11.402 76.4385 11.22C76.7465 11.0333 77.1198 10.8933 77.5585 10.8C77.8478 10.7347 78.1535 10.6833 78.4755 10.646C78.8021 10.6087 79.1148 10.5783 79.4135 10.555C79.7121 10.5317 79.9665 10.5153 80.1765 10.506V10.079C80.1765 9.46767 80.0481 9.029 79.7915 8.763C79.5348 8.49233 79.1358 8.357 78.5945 8.357C78.2585 8.357 77.9621 8.40133 77.7055 8.49C77.4535 8.57867 77.2575 8.74433 77.1175 8.987C76.9775 9.225 76.9098 9.575 76.9145 10.037H75.6965C75.6405 9.407 75.7291 8.88433 75.9625 8.469C76.1958 8.049 76.5458 7.73633 77.0125 7.531C77.4791 7.321 78.0321 7.216 78.6715 7.216C79.0355 7.216 79.3831 7.26033 79.7145 7.349C80.0458 7.433 80.3398 7.57767 80.5965 7.783C80.8531 7.98367 81.0561 8.259 81.2055 8.609C81.3548 8.959 81.4295 9.39767 81.4295 9.925V15H80.1625L80.1765 13.341C80.0598 13.8683 79.7961 14.2907 79.3855 14.608C78.9795 14.9253 78.4638 15.084 77.8385 15.084ZM78.1395 14.055C78.4801 14.055 78.7928 13.992 79.0775 13.866C79.3668 13.74 79.6095 13.579 79.8055 13.383C80.0015 13.187 80.1251 12.9863 80.1765 12.781V11.297C79.9058 11.3157 79.6048 11.3483 79.2735 11.395C78.9421 11.437 78.6505 11.4883 78.3985 11.549C77.8945 11.6657 77.5188 11.822 77.2715 12.018C77.0288 12.214 76.9075 12.4963 76.9075 12.865C76.9075 13.0843 76.9541 13.285 77.0475 13.467C77.1455 13.6443 77.2855 13.7867 77.4675 13.894C77.6495 13.9967 77.8735 14.0503 78.1395 14.055ZM85.647 15.105C85.0543 15.105 84.6016 14.9533 84.289 14.65C83.981 14.342 83.827 13.9057 83.827 13.341V9.197C83.827 9.04767 83.8573 8.91 83.918 8.784C83.9786 8.65333 84.0673 8.56933 84.184 8.532L83.827 7.664V7.426L84.142 5.144H85.115V13.124C85.115 13.4227 85.185 13.6257 85.325 13.733C85.465 13.8357 85.7053 13.887 86.046 13.887C86.2933 13.887 86.5033 13.887 86.676 13.887C86.8486 13.8823 87.0283 13.873 87.215 13.859V15.007C86.9583 15.0537 86.6923 15.0817 86.417 15.091C86.1463 15.1003 85.8896 15.105 85.647 15.105ZM82.714 8.532V7.356H87.152V8.532H82.714ZM90.853 15.154C90.195 15.154 89.6653 14.93 89.264 14.482C88.8627 14.034 88.662 13.4087 88.662 12.606V7.356H89.964V12.256C89.964 12.6387 90.0083 12.9537 90.097 13.201C90.1857 13.4483 90.3257 13.6327 90.517 13.754C90.713 13.8707 90.965 13.9313 91.273 13.936C91.693 13.936 92.057 13.824 92.365 13.6C92.6777 13.3713 92.9367 13.0563 93.142 12.655V7.356H94.437V15H93.331L93.184 12.347L93.324 12.697C93.2633 13.145 93.135 13.5557 92.939 13.929C92.7477 14.2977 92.4793 14.594 92.134 14.818C91.7933 15.042 91.3663 15.154 90.853 15.154ZM96.7714 15V4.115H98.0734V15H96.7714ZM102.243 15.084C101.757 15.084 101.337 14.993 100.983 14.811C100.633 14.6243 100.362 14.3723 100.171 14.055C99.9841 13.7377 99.8908 13.3783 99.8908 12.977C99.8908 12.5617 99.9724 12.2117 100.136 11.927C100.299 11.6377 100.535 11.402 100.843 11.22C101.151 11.0333 101.524 10.8933 101.963 10.8C102.252 10.7347 102.558 10.6833 102.88 10.646C103.206 10.6087 103.519 10.5783 103.818 10.555C104.116 10.5317 104.371 10.5153 104.581 10.506V10.079C104.581 9.46767 104.452 9.029 104.196 8.763C103.939 8.49233 103.54 8.357 102.999 8.357C102.663 8.357 102.366 8.40133 102.11 8.49C101.858 8.57867 101.662 8.74433 101.522 8.987C101.382 9.225 101.314 9.575 101.319 10.037H100.101C100.045 9.407 100.133 8.88433 100.367 8.469C100.6 8.049 100.95 7.73633 101.417 7.531C101.883 7.321 102.436 7.216 103.076 7.216C103.44 7.216 103.787 7.26033 104.119 7.349C104.45 7.433 104.744 7.57767 105.001 7.783C105.257 7.98367 105.46 8.259 105.61 8.609C105.759 8.959 105.834 9.39767 105.834 9.925V15H104.567L104.581 13.341C104.464 13.8683 104.2 14.2907 103.79 14.608C103.384 14.9253 102.868 15.084 102.243 15.084ZM102.544 14.055C102.884 14.055 103.197 13.992 103.482 13.866C103.771 13.74 104.014 13.579 104.21 13.383C104.406 13.187 104.529 12.9863 104.581 12.781V11.297C104.31 11.3157 104.009 11.3483 103.678 11.395C103.346 11.437 103.055 11.4883 102.803 11.549C102.299 11.6657 101.923 11.822 101.676 12.018C101.433 12.214 101.312 12.4963 101.312 12.865C101.312 13.0843 101.358 13.285 101.452 13.467C101.55 13.6443 101.69 13.7867 101.872 13.894C102.054 13.9967 102.278 14.0503 102.544 14.055ZM110.051 15.105C109.459 15.105 109.006 14.9533 108.693 14.65C108.385 14.342 108.231 13.9057 108.231 13.341V9.197C108.231 9.04767 108.262 8.91 108.322 8.784C108.383 8.65333 108.472 8.56933 108.588 8.532L108.231 7.664V7.426L108.546 5.144H109.519V13.124C109.519 13.4227 109.589 13.6257 109.729 13.733C109.869 13.8357 110.11 13.887 110.45 13.887C110.698 13.887 110.908 13.887 111.08 13.887C111.253 13.8823 111.433 13.873 111.619 13.859V15.007C111.363 15.0537 111.097 15.0817 110.821 15.091C110.551 15.1003 110.294 15.105 110.051 15.105ZM107.118 8.532V7.356H111.556V8.532H107.118ZM113.105 15V7.405H114.421L114.4 15H113.105ZM113.77 6.18C113.513 6.18 113.294 6.09133 113.112 5.914C112.935 5.73667 112.846 5.508 112.846 5.228C112.846 4.95267 112.935 4.72633 113.112 4.549C113.294 4.37167 113.513 4.283 113.77 4.283C114.022 4.283 114.237 4.37167 114.414 4.549C114.596 4.72633 114.687 4.95267 114.687 5.228C114.687 5.508 114.596 5.73667 114.414 5.914C114.232 6.09133 114.017 6.18 113.77 6.18ZM119.588 15.105C118.916 15.105 118.325 14.9533 117.817 14.65C117.313 14.3467 116.918 13.901 116.634 13.313C116.354 12.7203 116.214 11.9947 116.214 11.136C116.214 10.324 116.363 9.624 116.662 9.036C116.96 8.448 117.366 7.99767 117.88 7.685C118.398 7.36767 118.976 7.209 119.616 7.209C120.311 7.209 120.911 7.36767 121.415 7.685C121.923 7.99767 122.315 8.448 122.591 9.036C122.866 9.624 123.004 10.324 123.004 11.136C123.004 11.9947 122.85 12.7203 122.542 13.313C122.238 13.901 121.828 14.3467 121.31 14.65C120.792 14.9533 120.218 15.105 119.588 15.105ZM119.616 13.957C120.241 13.957 120.74 13.7237 121.114 13.257C121.487 12.7903 121.674 12.0833 121.674 11.136C121.674 10.2307 121.489 9.54233 121.121 9.071C120.757 8.595 120.246 8.357 119.588 8.357C118.967 8.357 118.47 8.595 118.097 9.071C117.728 9.54233 117.544 10.2307 117.544 11.136C117.544 12.0507 117.73 12.7507 118.104 13.236C118.482 13.7167 118.986 13.957 119.616 13.957ZM124.771 15V7.356H125.877L126.017 10.24L125.891 9.659C125.952 9.20633 126.078 8.79567 126.269 8.427C126.465 8.05367 126.738 7.75733 127.088 7.538C127.443 7.314 127.888 7.202 128.425 7.202C129.134 7.202 129.685 7.42133 130.077 7.86C130.474 8.294 130.672 8.94267 130.672 9.806V15H129.37V10.233C129.37 9.799 129.321 9.449 129.223 9.183C129.13 8.917 128.978 8.72333 128.768 8.602C128.563 8.48067 128.287 8.42 127.942 8.42C127.527 8.42 127.16 8.53433 126.843 8.763C126.53 8.99167 126.274 9.30667 126.073 9.708V15H124.771ZM135.184 15.119C134.657 15.119 134.174 15.0397 133.735 14.881C133.301 14.7177 132.949 14.4657 132.678 14.125C132.408 13.7797 132.256 13.3363 132.223 12.795H133.511C133.595 13.2617 133.78 13.5837 134.064 13.761C134.354 13.9337 134.72 14.02 135.163 14.02C135.467 14.02 135.74 13.9873 135.982 13.922C136.23 13.8567 136.426 13.747 136.57 13.593C136.715 13.439 136.787 13.229 136.787 12.963C136.787 12.7577 136.743 12.592 136.654 12.466C136.566 12.34 136.442 12.2373 136.283 12.158C136.125 12.074 135.938 12.0017 135.723 11.941C135.513 11.8803 135.285 11.815 135.037 11.745C134.575 11.6097 134.148 11.4533 133.756 11.276C133.364 11.094 133.049 10.8513 132.811 10.548C132.573 10.2447 132.454 9.83867 132.454 9.33C132.454 8.70467 132.692 8.19833 133.168 7.811C133.644 7.419 134.27 7.223 135.044 7.223C135.534 7.223 135.975 7.29767 136.367 7.447C136.764 7.59633 137.086 7.83667 137.333 8.168C137.585 8.49467 137.739 8.93333 137.795 9.484H136.514C136.468 9.232 136.381 9.01967 136.255 8.847C136.134 8.67433 135.973 8.54367 135.772 8.455C135.572 8.36633 135.327 8.322 135.037 8.322C134.795 8.322 134.575 8.357 134.379 8.427C134.183 8.49233 134.027 8.59733 133.91 8.742C133.794 8.88667 133.735 9.078 133.735 9.316C133.735 9.57733 133.805 9.78733 133.945 9.946C134.085 10.1047 134.284 10.2377 134.54 10.345C134.797 10.4477 135.098 10.5503 135.443 10.653C135.709 10.737 135.994 10.8257 136.297 10.919C136.601 11.0077 136.885 11.1267 137.151 11.276C137.422 11.4253 137.641 11.626 137.809 11.878C137.982 12.1253 138.068 12.4497 138.068 12.851C138.068 13.5697 137.802 14.1273 137.27 14.524C136.738 14.9207 136.043 15.119 135.184 15.119ZM145.168 15.105C144.496 15.105 143.905 14.9533 143.397 14.65C142.893 14.3467 142.498 13.901 142.214 13.313C141.934 12.7203 141.794 11.9947 141.794 11.136C141.794 10.324 141.943 9.624 142.242 9.036C142.54 8.448 142.946 7.99767 143.46 7.685C143.978 7.36767 144.556 7.209 145.196 7.209C145.891 7.209 146.491 7.36767 146.995 7.685C147.503 7.99767 147.895 8.448 148.171 9.036C148.446 9.624 148.584 10.324 148.584 11.136C148.584 11.9947 148.43 12.7203 148.122 13.313C147.818 13.901 147.408 14.3467 146.89 14.65C146.372 14.9533 145.798 15.105 145.168 15.105ZM145.196 13.957C145.821 13.957 146.32 13.7237 146.694 13.257C147.067 12.7903 147.254 12.0833 147.254 11.136C147.254 10.2307 147.069 9.54233 146.701 9.071C146.337 8.595 145.826 8.357 145.168 8.357C144.547 8.357 144.05 8.595 143.677 9.071C143.308 9.54233 143.124 10.2307 143.124 11.136C143.124 12.0507 143.31 12.7507 143.684 13.236C144.062 13.7167 144.566 13.957 145.196 13.957ZM150.351 15V7.356H151.457L151.597 10.24L151.471 9.659C151.532 9.20633 151.658 8.79567 151.849 8.427C152.045 8.05367 152.318 7.75733 152.668 7.538C153.023 7.314 153.468 7.202 154.005 7.202C154.714 7.202 155.265 7.42133 155.657 7.86C156.054 8.294 156.252 8.94267 156.252 9.806V15H154.95V10.233C154.95 9.799 154.901 9.449 154.803 9.183C154.71 8.917 154.558 8.72333 154.348 8.602C154.143 8.48067 153.867 8.42 153.522 8.42C153.107 8.42 152.74 8.53433 152.423 8.763C152.11 8.99167 151.854 9.30667 151.653 9.708V15H150.351ZM163.837 18.115C163.258 18.115 162.733 18.0147 162.262 17.814C161.791 17.6133 161.424 17.3053 161.163 16.89C160.902 16.4793 160.797 15.959 160.848 15.329H162.108C162.094 15.679 162.138 15.9777 162.241 16.225C162.344 16.4723 162.526 16.6613 162.787 16.792C163.048 16.9227 163.408 16.988 163.865 16.988C164.313 16.988 164.656 16.9227 164.894 16.792C165.132 16.6613 165.295 16.4583 165.384 16.183C165.477 15.9077 165.524 15.553 165.524 15.119V13.068C165.482 13.278 165.386 13.5043 165.237 13.747C165.092 13.9897 164.873 14.1973 164.579 14.37C164.29 14.5427 163.902 14.629 163.417 14.629C162.974 14.629 162.572 14.5357 162.213 14.349C161.854 14.1577 161.543 13.8963 161.282 13.565C161.025 13.2337 160.827 12.8487 160.687 12.41C160.552 11.9713 160.484 11.5047 160.484 11.01C160.484 10.1793 160.624 9.484 160.904 8.924C161.184 8.35933 161.55 7.93467 162.003 7.65C162.456 7.36067 162.941 7.216 163.459 7.216C163.884 7.216 164.231 7.27433 164.502 7.391C164.777 7.503 164.997 7.643 165.16 7.811C165.323 7.979 165.445 8.14233 165.524 8.301V7.363H166.805V15.077C166.805 15.8143 166.677 16.4047 166.42 16.848C166.163 17.2913 165.811 17.611 165.363 17.807C164.92 18.0077 164.411 18.1103 163.837 18.115ZM163.816 13.544C164.166 13.544 164.458 13.488 164.691 13.376C164.924 13.2593 165.109 13.117 165.244 12.949C165.379 12.781 165.473 12.62 165.524 12.466V9.218C165.482 9.106 165.391 8.98233 165.251 8.847C165.111 8.71167 164.924 8.595 164.691 8.497C164.458 8.399 164.173 8.35 163.837 8.35C163.24 8.35 162.757 8.56467 162.388 8.994C162.019 9.41867 161.835 10.0697 161.835 10.947C161.835 11.7963 162.019 12.4427 162.388 12.886C162.761 13.3247 163.237 13.544 163.816 13.544ZM172.055 15.105C171.36 15.105 170.748 14.9533 170.221 14.65C169.698 14.3467 169.292 13.901 169.003 13.313C168.714 12.7203 168.569 11.997 168.569 11.143C168.569 10.3217 168.718 9.617 169.017 9.029C169.316 8.441 169.726 7.99067 170.249 7.678C170.772 7.36533 171.367 7.209 172.034 7.209C172.697 7.209 173.264 7.35133 173.735 7.636C174.211 7.92067 174.577 8.329 174.834 8.861C175.091 9.38833 175.217 10.0207 175.212 10.758C175.212 10.9073 175.207 11.031 175.198 11.129C175.189 11.227 175.182 11.3297 175.177 11.437H169.871C169.904 12.277 170.114 12.914 170.501 13.348C170.893 13.7773 171.392 13.992 171.999 13.992C172.512 13.992 172.909 13.8847 173.189 13.67C173.474 13.4507 173.653 13.1707 173.728 12.83H175.002C174.969 13.3153 174.82 13.7283 174.554 14.069C174.293 14.4097 173.947 14.6687 173.518 14.846C173.089 15.0187 172.601 15.105 172.055 15.105ZM170.564 10.457H173.903C173.894 9.80367 173.733 9.29033 173.42 8.917C173.107 8.54367 172.629 8.357 171.985 8.357C171.308 8.357 170.795 8.588 170.445 9.05C170.095 9.50733 169.904 10.1397 169.871 10.947C169.908 10.7557 169.983 10.6273 170.095 10.562C170.212 10.492 170.368 10.457 170.564 10.457ZM179.108 15.105C178.515 15.105 178.063 14.9533 177.75 14.65C177.442 14.342 177.288 13.9057 177.288 13.341V9.197C177.288 9.04767 177.318 8.91 177.379 8.784C177.44 8.65333 177.528 8.56933 177.645 8.532L177.288 7.664V7.426L177.603 5.144H178.576V13.124C178.576 13.4227 178.646 13.6257 178.786 13.733C178.926 13.8357 179.166 13.887 179.507 13.887C179.754 13.887 179.964 13.887 180.137 13.887C180.31 13.8823 180.489 13.873 180.676 13.859V15.007C180.419 15.0537 180.153 15.0817 179.878 15.091C179.607 15.1003 179.351 15.105 179.108 15.105ZM176.175 8.532V7.356H180.613V8.532H176.175ZM184.563 15.105C183.97 15.105 183.518 14.9533 183.205 14.65C182.897 14.342 182.743 13.9057 182.743 13.341V9.197C182.743 9.04767 182.773 8.91 182.834 8.784C182.895 8.65333 182.983 8.56933 183.1 8.532L182.743 7.664V7.426L183.058 5.144H184.031V13.124C184.031 13.4227 184.101 13.6257 184.241 13.733C184.381 13.8357 184.621 13.887 184.962 13.887C185.209 13.887 185.419 13.887 185.592 13.887C185.765 13.8823 185.944 13.873 186.131 13.859V15.007C185.874 15.0537 185.608 15.0817 185.333 15.091C185.062 15.1003 184.806 15.105 184.563 15.105ZM181.63 8.532V7.356H186.068V8.532H181.63ZM187.617 15V7.405H188.933L188.912 15H187.617ZM188.282 6.18C188.025 6.18 187.806 6.09133 187.624 5.914C187.446 5.73667 187.358 5.508 187.358 5.228C187.358 4.95267 187.446 4.72633 187.624 4.549C187.806 4.37167 188.025 4.283 188.282 4.283C188.534 4.283 188.748 4.37167 188.926 4.549C189.108 4.72633 189.199 4.95267 189.199 5.228C189.199 5.508 189.108 5.73667 188.926 5.914C188.744 6.09133 188.529 6.18 188.282 6.18ZM191.285 15V7.356H192.391L192.531 10.24L192.405 9.659C192.465 9.20633 192.591 8.79567 192.783 8.427C192.979 8.05367 193.252 7.75733 193.602 7.538C193.956 7.314 194.402 7.202 194.939 7.202C195.648 7.202 196.199 7.42133 196.591 7.86C196.987 8.294 197.186 8.94267 197.186 9.806V15H195.884V10.233C195.884 9.799 195.835 9.449 195.737 9.183C195.643 8.917 195.492 8.72333 195.282 8.602C195.076 8.48067 194.801 8.42 194.456 8.42C194.04 8.42 193.674 8.53433 193.357 8.763C193.044 8.99167 192.787 9.30667 192.587 9.708V15H191.285ZM202.255 18.115C201.676 18.115 201.151 18.0147 200.68 17.814C200.208 17.6133 199.842 17.3053 199.581 16.89C199.319 16.4793 199.214 15.959 199.266 15.329H200.526C200.512 15.679 200.556 15.9777 200.659 16.225C200.761 16.4723 200.943 16.6613 201.205 16.792C201.466 16.9227 201.825 16.988 202.283 16.988C202.731 16.988 203.074 16.9227 203.312 16.792C203.55 16.6613 203.713 16.4583 203.802 16.183C203.895 15.9077 203.942 15.553 203.942 15.119V13.068C203.9 13.278 203.804 13.5043 203.655 13.747C203.51 13.9897 203.291 14.1973 202.997 14.37C202.707 14.5427 202.32 14.629 201.835 14.629C201.391 14.629 200.99 14.5357 200.631 14.349C200.271 14.1577 199.961 13.8963 199.7 13.565C199.443 13.2337 199.245 12.8487 199.105 12.41C198.969 11.9713 198.902 11.5047 198.902 11.01C198.902 10.1793 199.042 9.484 199.322 8.924C199.602 8.35933 199.968 7.93467 200.421 7.65C200.873 7.36067 201.359 7.216 201.877 7.216C202.301 7.216 202.649 7.27433 202.92 7.391C203.195 7.503 203.414 7.643 203.578 7.811C203.741 7.979 203.862 8.14233 203.942 8.301V7.363H205.223V15.077C205.223 15.8143 205.094 16.4047 204.838 16.848C204.581 17.2913 204.229 17.611 203.781 17.807C203.337 18.0077 202.829 18.1103 202.255 18.115ZM202.234 13.544C202.584 13.544 202.875 13.488 203.109 13.376C203.342 13.2593 203.526 13.117 203.662 12.949C203.797 12.781 203.89 12.62 203.942 12.466V9.218C203.9 9.106 203.809 8.98233 203.669 8.847C203.529 8.71167 203.342 8.595 203.109 8.497C202.875 8.399 202.591 8.35 202.255 8.35C201.657 8.35 201.174 8.56467 200.806 8.994C200.437 9.41867 200.253 10.0697 200.253 10.947C200.253 11.7963 200.437 12.4427 200.806 12.886C201.179 13.3247 201.655 13.544 202.234 13.544ZM209.702 18.017V16.771H210.269C210.605 16.771 210.864 16.729 211.046 16.645C211.232 16.5657 211.372 16.4513 211.466 16.302C211.559 16.1527 211.634 15.9753 211.69 15.77C211.76 15.5227 211.823 15.343 211.879 15.231C211.935 15.1237 212.007 15.0467 212.096 15H211.676L209.114 7.363H210.563L211.536 10.786L212.397 13.677H212.453L213.286 10.786L214.259 7.363H215.708L213.139 15C212.985 15.462 212.833 15.8773 212.684 16.246C212.534 16.6193 212.359 16.9367 212.159 17.198C211.958 17.464 211.706 17.667 211.403 17.807C211.104 17.947 210.726 18.017 210.269 18.017H209.702ZM219.844 15.105C219.172 15.105 218.581 14.9533 218.073 14.65C217.569 14.3467 217.174 13.901 216.89 13.313C216.61 12.7203 216.47 11.9947 216.47 11.136C216.47 10.324 216.619 9.624 216.918 9.036C217.216 8.448 217.622 7.99767 218.136 7.685C218.654 7.36767 219.232 7.209 219.872 7.209C220.567 7.209 221.167 7.36767 221.671 7.685C222.179 7.99767 222.571 8.448 222.847 9.036C223.122 9.624 223.26 10.324 223.26 11.136C223.26 11.9947 223.106 12.7203 222.798 13.313C222.494 13.901 222.084 14.3467 221.566 14.65C221.048 14.9533 220.474 15.105 219.844 15.105ZM219.872 13.957C220.497 13.957 220.996 13.7237 221.37 13.257C221.743 12.7903 221.93 12.0833 221.93 11.136C221.93 10.2307 221.745 9.54233 221.377 9.071C221.013 8.595 220.502 8.357 219.844 8.357C219.223 8.357 218.726 8.595 218.353 9.071C217.984 9.54233 217.8 10.2307 217.8 11.136C217.8 12.0507 217.986 12.7507 218.36 13.236C218.738 13.7167 219.242 13.957 219.872 13.957ZM227.134 15.154C226.476 15.154 225.947 14.93 225.545 14.482C225.144 14.034 224.943 13.4087 224.943 12.606V7.356H226.245V12.256C226.245 12.6387 226.29 12.9537 226.378 13.201C226.467 13.4483 226.607 13.6327 226.798 13.754C226.994 13.8707 227.246 13.9313 227.554 13.936C227.974 13.936 228.338 13.824 228.646 13.6C228.959 13.3713 229.218 13.0563 229.423 12.655V7.356H230.718V15H229.612L229.465 12.347L229.605 12.697C229.545 13.145 229.416 13.5557 229.22 13.929C229.029 14.2977 228.761 14.594 228.415 14.818C228.075 15.042 227.648 15.154 227.134 15.154ZM233.039 15V7.356H234.145L234.285 10.296L234.131 9.897C234.163 9.60767 234.226 9.30667 234.32 8.994C234.418 8.68133 234.555 8.38967 234.733 8.119C234.915 7.84367 235.146 7.622 235.426 7.454C235.71 7.286 236.058 7.202 236.469 7.202C236.548 7.202 236.623 7.20667 236.693 7.216C236.767 7.22533 236.84 7.237 236.91 7.251V8.63C236.793 8.59267 236.669 8.56933 236.539 8.56C236.413 8.546 236.294 8.539 236.182 8.539C235.953 8.539 235.722 8.58333 235.489 8.672C235.255 8.76067 235.038 8.903 234.838 9.099C234.637 9.29033 234.471 9.54 234.341 9.848V15H233.039ZM42.692 35L40.193 30.849H38.324L37.855 30.744L38.058 29.883V29.659H40.046C40.4847 29.659 40.8347 29.5727 41.096 29.4C41.362 29.2273 41.5533 28.994 41.67 28.7C41.7867 28.406 41.845 28.0793 41.845 27.72C41.845 27.328 41.7727 27.0107 41.628 26.768C41.4833 26.5253 41.278 26.348 41.012 26.236C40.7507 26.1193 40.438 26.061 40.074 26.061H38.45V25.718L37.848 24.822C38.0673 24.822 38.2937 24.822 38.527 24.822C38.765 24.822 39.01 24.822 39.262 24.822C39.5187 24.822 39.7777 24.822 40.039 24.822C40.6783 24.822 41.2337 24.9247 41.705 25.13C42.1763 25.3353 42.5427 25.6433 42.804 26.054C43.0653 26.46 43.196 26.971 43.196 27.587C43.196 28.0397 43.119 28.4807 42.965 28.91C42.8157 29.3347 42.5683 29.7033 42.223 30.016C41.8777 30.3287 41.418 30.541 40.844 30.653L40.865 30.555C41.0283 30.5503 41.1637 30.5643 41.271 30.597C41.3783 30.6297 41.4763 30.6903 41.565 30.779C41.6537 30.8677 41.7493 30.9937 41.852 31.157L44.288 35H42.692ZM37.19 35V24.822H38.492V35H37.19ZM44.6796 35L47.4796 30.723L47.4936 31.668L44.7776 27.363H46.3596L47.6476 29.638L48.0956 30.485L48.4596 29.659L49.7126 27.363H51.2806L48.5156 31.668L48.5296 30.723L51.3646 35H49.7616L48.3686 32.683L47.9276 31.934L47.5496 32.718L46.2406 35H44.6796ZM53.0913 31.934L52.8813 27.363L52.7973 24.64H54.2813L54.1973 27.363L53.9873 31.934H53.0913ZM53.5393 35.105C53.2919 35.105 53.0819 35.0187 52.9093 34.846C52.7366 34.6733 52.6503 34.4493 52.6503 34.174C52.6503 33.908 52.7366 33.6887 52.9093 33.516C53.0819 33.3433 53.2919 33.257 53.5393 33.257C53.7866 33.257 53.9966 33.3433 54.1693 33.516C54.3466 33.6887 54.4353 33.908 54.4353 34.174C54.4353 34.4493 54.3466 34.6733 54.1693 34.846C53.9966 35.0187 53.7866 35.105 53.5393 35.105Z" fill="#1A1628"/>
</svg>
