<svg width="200" height="200" viewBox="0 0 200 200" fill="none" xmlns="http://www.w3.org/2000/svg" class="InformationCard_image__1_nKL undefined"><circle cx="107" cy="90" r="90" fill="#83C0FF"></circle><rect x="50" y="2" width="113" height="170" rx="10" fill="#31508F"></rect><rect x="53" y="6" width="107" height="163" rx="10" fill="white"></rect><path d="M132 6L132.178 31.2101C132.178 33.5036 134.09 35.3454 136.404 35.28L160.425 34.6478L132 6Z" fill="#A0AEC0"></path><path d="M160.428 39.3298L134.859 35.1299L160.428 34.6436V39.3298Z" fill="#C7D2EB"></path><path d="M160.812 35L160.812 9.03246C160.812 6.76093 158.794 4.93687 156.351 5.00167L131.5 5.5L160.812 35Z" fill="#31508F"></path><path d="M76.7812 72.7441H114.807" stroke="#7B9ACF" stroke-width="1.97012" stroke-linecap="round"></path><path d="M121.219 72.7441L132.347 72.7441" stroke="#7B9ACF" stroke-width="1.97012" stroke-linecap="round"></path><path d="M77.2383 103.338H95.5639" stroke="#7B9ACF" stroke-width="1.97012" stroke-linecap="round"></path><path d="M101.055 103.338L140.455 103.338" stroke="#334F8F" stroke-width="1.97012" stroke-linecap="round"></path><path d="M112.062 88.043L140.467 88.043" stroke="#7B9ACF" stroke-width="1.97012" stroke-linecap="round"></path><path d="M99.2227 88.043L106.553 88.043" stroke="#7B9ACF" stroke-width="1.97012" stroke-linecap="round"></path><path d="M77.2383 88.043L93.7313 88.043" stroke="#7B9ACF" stroke-width="1.97012" stroke-linecap="round"></path><path d="M123.965 118.634L140.458 118.634" stroke="#334F8F" stroke-width="1.97012" stroke-linecap="round"></path><path d="M92.8203 118.634L119.392 118.634" stroke="#334F8F" stroke-width="1.97012" stroke-linecap="round"></path><path d="M77.2383 118.634L86.4011 118.634" stroke="#334F8F" stroke-width="1.97012" stroke-linecap="round"></path><path d="M77.2383 133.93L96.4802 133.93" stroke="#334F8F" stroke-width="1.97012" stroke-linecap="round"></path><path d="M101.977 133.93L114.805 133.93" stroke="#334F8F" stroke-width="1.97012" stroke-linecap="round"></path><path d="M87.8995 31.474V35.9904H87.4565C87.194 34.9484 86.9027 34.2019 86.5828 33.7506C86.2628 33.2912 85.8239 32.9261 85.266 32.6554C84.9543 32.5077 84.4087 32.4339 83.6293 32.4339H82.3864V45.3061C82.3864 46.1593 82.4315 46.6926 82.5218 46.9059C82.6202 47.1192 82.8048 47.3079 83.0755 47.472C83.3545 47.6279 83.7319 47.7058 84.2077 47.7058H84.7615V48.1611H76.0241V47.7058H76.5779C77.0619 47.7058 77.4516 47.6197 77.747 47.4474C77.9603 47.3325 78.1285 47.1356 78.2515 46.8567C78.3418 46.6598 78.3869 46.1429 78.3869 45.3061V32.4339H77.1809C76.0569 32.4339 75.2406 32.6718 74.732 33.1476C74.0182 33.8122 73.567 34.7597 73.3783 35.9904H72.9107V31.474H87.8995Z" fill="#334F8F"></path><rect width="93.7962" height="66.8192" rx="5.23867" transform="matrix(0.979429 -0.203377 0.155196 0.988151 0.0234375 113.521)" fill="#FFCC4A"></rect><ellipse cx="11.1702" cy="11.7675" rx="11.1702" ry="11.7675" transform="matrix(0.97938 -0.203656 0.15498 0.988191 38.8281 128.151)" fill="#E69D28"></ellipse><ellipse cx="2.01455" cy="2.12201" rx="2.01455" ry="2.12201" transform="matrix(0.97938 -0.203655 0.154981 0.988191 29.3203 163.271)" fill="white"></ellipse><path d="M34.457 164.4L93.2965 152.824" stroke="white" stroke-width="0.582074" stroke-linecap="round"></path><path d="M17.2656 167.782L28.7854 165.516" stroke="white" stroke-width="0.582074" stroke-linecap="round"></path><path d="M18.293 171.767L18.7731 174.662" stroke="white" stroke-width="0.582074" stroke-linecap="round"></path><path d="M20.0664 171.417L20.5466 174.313" stroke="white" stroke-width="0.582074" stroke-linecap="round"></path><rect x="0.330172" y="0.228358" width="2.70676" height="2.11087" rx="0.291037" transform="matrix(0.9794 -0.20354 0.155069 0.988174 90.573 157.651)" stroke="white" stroke-width="0.582074"></rect><path d="M56.1933 135.787C56.7936 136.009 56.9194 136.811 56.4245 137.261L50.6615 142.501C50.1465 142.969 49.3519 142.707 49.2464 142.034L48.0189 134.207C47.9133 133.534 48.578 132.968 49.2027 133.199L56.1933 135.787Z" fill="white"></path><path d="M166.319 143.813L144.327 136.466C142.047 135.704 139.704 136.956 139.093 139.262L132.72 163.307C132.108 165.613 133.461 168.099 135.74 168.861L157.732 176.209C160.012 176.97 162.355 175.718 162.966 173.412L169.339 149.368C169.95 147.062 168.598 144.575 166.319 143.813Z" fill="#E69D28"></path><path d="M159.952 170.22L137.344 162.686L146.171 155.848L149.841 161.961L156 155.861L159.952 170.22Z" fill="white"></path><path d="M150.463 155.03C151.679 155.436 152.944 154.71 153.29 153.408C153.635 152.106 152.929 150.721 151.713 150.315C150.497 149.908 149.232 150.635 148.887 151.937C148.542 153.239 149.247 154.624 150.463 155.03Z" fill="white"></path><path d="M31.8361 63.1155C26.4874 64.4653 23.1433 70.1241 23.999 75.7391L25.1942 83.5814C25.4907 85.5273 27.2451 86.8216 29.1218 86.479L30.2524 86.2726C31.496 86.0456 32.3527 84.8048 32.1562 83.5154L31.4416 78.8264C31.2451 77.537 30.0668 76.6677 28.8232 76.8947L26.5621 77.3075L26.2566 75.3029C25.5706 70.8015 28.3203 66.2754 32.6307 65.356C37.0994 64.4078 41.3287 67.4551 42.0325 72.0737L42.3898 74.4182L40.1287 74.8309C38.8851 75.058 38.0284 76.2987 38.2249 77.5882L38.9395 82.2771C39.136 83.5666 40.3143 84.4359 41.5579 84.2088L42.6885 84.0025C44.5652 83.6599 45.8407 81.8125 45.5442 79.8666L44.2937 71.661C43.37 65.6005 37.6994 61.6355 31.8361 63.1155Z" fill="white"></path><path d="M188.05 67.6631H151.645C145.607 67.6631 140.711 73.0216 140.711 79.6303C140.711 86.1963 145.544 91.5285 151.531 91.5942V98.7869C151.531 99.6663 152.488 100.122 153.076 99.5252L160.898 91.5974H188.05C194.088 91.5974 198.984 86.2389 198.984 79.6303C198.984 73.0216 194.088 67.6631 188.05 67.6631Z" fill="#31508F"></path><path d="M180.741 82.8451C179.343 82.8451 178.209 81.6044 178.209 80.0739C178.209 78.5434 179.343 77.3027 180.741 77.3027C182.14 77.3027 183.273 78.5434 183.273 80.0739C183.273 81.6044 182.14 82.8451 180.741 82.8451Z" fill="white"></path><path d="M170.07 82.8451C168.671 82.8451 167.537 81.6044 167.537 80.0739C167.537 78.5434 168.671 77.3027 170.07 77.3027C171.468 77.3027 172.602 78.5434 172.602 80.0739C172.602 81.6044 171.468 82.8451 170.07 82.8451Z" fill="white"></path><path d="M159.382 82.8451C157.984 82.8451 156.85 81.6044 156.85 80.0739C156.85 78.5434 157.984 77.3027 159.382 77.3027C160.78 77.3027 161.914 78.5434 161.914 80.0739C161.914 81.6044 160.78 82.8451 159.382 82.8451Z" fill="white"></path></svg>