<svg width="106" height="42" viewBox="0 0 106 42" fill="none" xmlns="http://www.w3.org/2000/svg"><path d="M31.6661 35.0481C35.1147 31.2087 32.7728 23.4817 26.4354 17.7895C20.098 12.0973 12.1649 10.5953 8.71631 14.4347C5.26776 18.2741 7.60965 26.0011 13.9471 31.6933C20.2845 37.3855 28.2176 38.8875 31.6661 35.0481Z" fill="#1943DA" fill-opacity="0.6"></path><path d="M15.0698 36.9426C23.3926 36.9426 30.1396 30.4356 30.1396 22.4089C30.1396 14.3822 23.3926 7.87524 15.0698 7.87524C6.74698 7.87524 0 14.3822 0 22.4089C0 30.4356 6.74698 36.9426 15.0698 36.9426Z" fill="#1943DA" fill-opacity="0.7"></path><path d="M26.4066 32.1935C32.0115 32.1935 36.5552 27.8127 36.5552 22.4087C36.5552 17.0047 32.0115 12.6238 26.4066 12.6238C20.8016 12.6238 16.2579 17.0047 16.2579 22.4087C16.2579 27.8127 20.8016 32.1935 26.4066 32.1935Z" fill="#1943DA" fill-opacity="0.5"></path><path d="M30.1707 25.5488C34.956 17.2603 34.7481 8.18146 29.7064 5.27059C24.6646 2.35971 16.6981 6.71913 11.9127 15.0076C7.12739 23.2961 7.33526 32.375 12.377 35.2859C17.4188 38.1967 25.3853 33.8373 30.1707 25.5488Z" fill="#1943DA" fill-opacity="0.4"></path><path d="M24.6356 16.8246C24.6453 16.7537 24.7016 16.6982 24.7726 16.6895L30.7555 15.9497C30.9399 15.9269 30.9403 15.6597 30.756 15.6364L24.8732 14.8909C24.8018 14.8819 24.7456 14.8257 24.7365 14.7542L23.9896 8.88428C23.9663 8.70047 23.7001 8.70031 23.6765 8.88409L22.9216 14.7612C22.9123 14.834 22.854 14.8907 22.781 14.8981L16.9513 15.4914C16.7651 15.5104 16.7608 15.78 16.9462 15.8049L22.7825 16.589C22.8548 16.5987 22.911 16.6566 22.9185 16.7291L23.5288 22.5908C23.5481 22.7764 23.8168 22.7808 23.8422 22.5959L24.6356 16.8246Z" fill="#FFCC4A"></path><path d="M17.5867 27.6635C17.5154 27.6544 17.4593 27.5982 17.4502 27.5269L17.0236 24.189C17.0001 24.0052 16.7339 24.0052 16.7104 24.189L16.2839 27.5336C16.2746 27.6064 16.2164 27.6632 16.1434 27.6706L12.8681 28.006C12.682 28.0251 12.6778 28.2947 12.8633 28.3195L16.1448 28.7584C16.2171 28.7681 16.2734 28.8261 16.2809 28.8987L16.6232 32.2134C16.6423 32.399 16.9109 32.4037 16.9366 32.219L17.3891 28.9641C17.3989 28.8933 17.4551 28.838 17.526 28.8292L20.9344 28.4054C21.1186 28.3825 21.1191 28.1157 20.935 28.0921L17.5867 27.6635Z" fill="#FFCC4A"></path><path d="M8.47825 21.244C8.48799 21.173 8.54432 21.1175 8.61545 21.1088L13.0506 20.5653C13.235 20.5427 13.2357 20.2755 13.0514 20.252L8.69593 19.6958C8.62451 19.6867 8.56831 19.6304 8.5593 19.5589L8.01069 15.2115C7.98749 15.0277 7.7213 15.0273 7.69751 15.211L7.13366 19.566C7.12424 19.6387 7.06599 19.6954 6.99303 19.7028L2.69331 20.1391C2.50727 20.1579 2.5027 20.4274 2.688 20.4526L6.99468 21.0377C7.06682 21.0475 7.1229 21.1053 7.13045 21.1777L7.58073 25.4968C7.60008 25.6824 7.86878 25.6867 7.89414 25.5018L8.47825 21.244Z" fill="#FFCC4A"></path><path d="M54.3679 37.2624H52.4617L50.2555 31.2011L48.1345 37.2624H46.2062L41.0455 22.9975H43.1223L47.1495 34.1564L49.2057 28.3097L47.2773 22.9975H49.3556L51.2414 28.2229L53.4034 34.1564L57.3027 22.9975H59.3794L54.3687 37.2632L54.3679 37.2624Z" fill="#1943DA"></path><path d="M60.419 24.7207C60.2264 24.5281 60.1293 24.296 60.1293 24.0253C60.1293 23.7545 60.2264 23.5224 60.419 23.3298C60.6116 23.1372 60.8437 23.0402 61.1144 23.0402C61.3851 23.0402 61.6172 23.1372 61.8098 23.3298C62.0024 23.5224 62.0995 23.7545 62.0995 24.0253C62.0995 24.296 62.0024 24.5281 61.8098 24.7207C61.6172 24.9148 61.3851 25.0103 61.1144 25.0103C60.8437 25.0103 60.6116 24.9148 60.419 24.7207ZM60.2367 37.2624V26.5535H62.0356V37.2624H60.2367Z" fill="#1943DA"></path><path d="M64.0286 37.2624V35.5267L70.0473 28.545H64.0286V26.6387H72.7019V28.395L66.7053 35.3562H72.7019V37.2624H64.0286Z" fill="#1943DA"></path><path d="M82.8764 37.2624V35.634C82.4194 36.1629 81.8913 36.5836 81.2906 36.8978C80.6923 37.2135 80.0561 37.3698 79.3844 37.3698C78.6424 37.3698 77.9454 37.2332 77.2958 36.9625C76.6462 36.6917 76.0715 36.3058 75.5719 35.8069C75.0722 35.3207 74.6839 34.746 74.4037 34.0814C74.1258 33.4184 73.9877 32.7222 73.9877 31.9944C73.9877 31.2666 74.1258 30.5689 74.4037 29.9058C74.6831 29.2412 75.0722 28.6595 75.5719 28.1598C76.0715 27.6602 76.6462 27.275 77.2958 27.0018C77.9454 26.7311 78.6424 26.5961 79.3844 26.5961C80.0695 26.5961 80.716 26.739 81.323 27.0239C81.93 27.3105 82.4486 27.7091 82.8764 28.2222V26.8085H84.8048V37.2616H82.8764V37.2624ZM78.0259 28.77C77.5894 28.9491 77.2145 29.1946 76.9003 29.508C76.587 29.8237 76.3391 30.1971 76.1623 30.6336C75.9831 31.0685 75.8947 31.5216 75.8947 31.9944C75.8947 32.4672 75.9831 32.9148 76.1623 33.3434C76.3399 33.7712 76.587 34.143 76.9003 34.4563C77.2137 34.7721 77.5894 35.0176 78.0259 35.196C78.4609 35.3751 78.9139 35.4635 79.3852 35.4635C79.8564 35.4635 80.3079 35.3751 80.7357 35.196C81.1635 35.0168 81.5353 34.7713 81.8487 34.4563C82.1621 34.143 82.4099 33.7712 82.5867 33.3434C82.7659 32.9156 82.8559 32.4656 82.8559 31.9944C82.8559 31.5232 82.7659 31.0685 82.5867 30.6336C82.4091 30.1971 82.1621 29.8237 81.8487 29.508C81.5353 29.1946 81.1635 28.9491 80.7357 28.77C80.3079 28.5908 79.858 28.5024 79.3852 28.5024C78.9124 28.5024 78.4609 28.5908 78.0259 28.77Z" fill="#1943DA"></path><path d="M91.7217 28.6097C91.3791 28.4526 91.0705 28.3729 90.799 28.3729C90.2275 28.3729 89.7571 28.5742 89.3853 28.9728C88.9867 29.4006 88.787 29.8932 88.787 30.4512V37.2624H86.9439V30.4512C86.9439 29.6809 87.1396 28.9728 87.5335 28.3303C87.9258 27.6878 88.4641 27.1881 89.1501 26.8313C89.6647 26.589 90.2141 26.4667 90.799 26.4667C91.271 26.4667 91.7217 26.5535 92.1495 26.724C92.5774 26.8961 93.0273 27.1739 93.4985 27.5591L91.7217 28.6097Z" fill="#1943DA"></path><path d="M60.7908 20.8726V19.1218C60.2998 19.6894 59.7299 20.1432 59.0858 20.4811C58.4393 20.8205 57.7558 20.9894 57.0351 20.9894C56.2355 20.9894 55.4872 20.8426 54.7879 20.5513C54.0885 20.2601 53.4697 19.8441 52.9329 19.3066C52.3938 18.7848 51.9762 18.166 51.6763 17.4516C51.3779 16.7373 51.228 15.9874 51.228 15.2044C51.228 14.4213 51.3779 13.6715 51.6763 12.9571C51.9762 12.2428 52.3938 11.6168 52.9329 11.0785C53.4697 10.5418 54.0885 10.1274 54.7879 9.83372C55.4872 9.54245 56.2355 9.39722 57.0351 9.39722C57.7716 9.39722 58.467 9.55035 59.1205 9.8574C59.7741 10.1645 60.3314 10.5954 60.7916 11.148V9.62691H62.8667V20.8726H60.7916H60.7908ZM55.5717 11.736C55.1028 11.927 54.6987 12.193 54.3608 12.5309C54.023 12.8687 53.757 13.2729 53.566 13.7417C53.3734 14.2106 53.2779 14.6968 53.2779 15.2044C53.2779 15.7119 53.3734 16.195 53.566 16.6552C53.757 17.1169 54.023 17.5163 54.3608 17.8534C54.6987 18.1928 55.1028 18.4572 55.5717 18.6498C56.039 18.8408 56.5284 18.9379 57.0343 18.9379C57.5403 18.9379 58.0249 18.8408 58.4851 18.6498C58.9469 18.4572 59.3463 18.1928 59.6833 17.8534C60.0212 17.5155 60.2872 17.1169 60.4798 16.6552C60.6708 16.195 60.7679 15.7103 60.7679 15.2044C60.7679 14.6984 60.6708 14.2106 60.4798 13.7417C60.2872 13.2729 60.0212 12.8687 59.6833 12.5309C59.3455 12.193 58.9469 11.927 58.4851 11.736C58.0249 11.5434 57.5403 11.4479 57.0343 11.4479C56.5284 11.4479 56.039 11.5434 55.5717 11.736Z" fill="#1943DA"></path><path d="M68.6249 11.4243V20.8734H66.6658V11.4243H64.9387V9.35069H66.6658V5.54688H68.6249V9.35069H70.3536V11.4243H68.6249Z" fill="#1943DA"></path><path d="M72.739 7.37972C72.5329 7.17134 72.4287 6.92269 72.4287 6.63143C72.4287 6.34016 72.5329 6.08916 72.739 5.88156C72.9473 5.67554 73.196 5.57135 73.4888 5.57135C73.7817 5.57135 74.0295 5.67554 74.2371 5.88156C74.4455 6.08994 74.5473 6.34016 74.5473 6.63143C74.5473 6.92269 74.4447 7.17213 74.2371 7.37972C74.0287 7.58811 73.7801 7.68993 73.4888 7.68993C73.1976 7.68993 72.9466 7.58732 72.739 7.37972ZM72.5432 20.8726V9.35069H74.4802V20.8726H72.5432Z" fill="#1943DA"></path><path d="M78.142 15.9867C78.142 16.3569 78.2769 16.7405 78.5461 17.1391C78.8137 17.5401 79.1255 17.8771 79.4791 18.1534C80.1256 18.6601 80.877 18.9135 81.7382 18.9135C83.1053 18.9135 84.2191 18.2536 85.0802 16.9323L86.831 17.9687C86.2327 18.9372 85.4946 19.6823 84.6201 20.2041C83.7439 20.7258 82.7841 20.9887 81.739 20.9887C80.9544 20.9887 80.2092 20.8387 79.5036 20.5388C78.7963 20.2388 78.1735 19.8213 77.6368 19.2821C77.0977 18.7454 76.6801 18.1226 76.3802 17.4154C76.0818 16.7097 75.9318 15.9646 75.9318 15.18C75.9318 14.3954 76.0818 13.6471 76.3802 12.9327C76.6801 12.2184 77.0977 11.5924 77.6368 11.0557C78.1585 10.5189 78.7774 10.1029 79.4917 9.81088C80.2061 9.51962 80.9544 9.3728 81.739 9.3728C82.5236 9.3728 83.2719 9.51962 83.9862 9.81088C84.7006 10.1021 85.3178 10.5181 85.8412 11.0557C86.9786 12.2239 87.5461 13.5752 87.5461 15.1121C87.5461 15.3883 87.524 15.6796 87.4782 15.9867H78.1435H78.142ZM79.963 11.6785C79.4104 11.9547 78.9692 12.3194 78.6385 12.7733C78.3077 13.2271 78.142 13.7063 78.142 14.2138H85.3336C85.3336 13.7055 85.1679 13.2263 84.8371 12.7733C84.5064 12.3194 84.0652 11.9547 83.5126 11.6785C82.9585 11.4022 82.3665 11.2625 81.7374 11.2625C81.1083 11.2625 80.5163 11.4022 79.9622 11.6785H79.963Z" fill="#1943DA"></path><path d="M96.7411 20.8726V13.9588C96.7411 13.2666 96.4869 12.6682 95.9786 12.1615C95.4876 11.6689 94.8893 11.4234 94.1813 11.4234C93.4733 11.4234 92.8907 11.6776 92.384 12.1836C92.1535 12.4141 91.9696 12.6864 91.8299 13.0021C91.6917 13.3179 91.6238 13.6368 91.6238 13.9588V20.8726H89.6189V9.62692H91.6238V10.5718C91.9151 10.2189 92.2987 9.92766 92.7763 9.69559C93.2522 9.4651 93.7211 9.35144 94.1813 9.35144C94.7954 9.35144 95.3835 9.47063 95.9439 9.70743C96.5051 9.94581 97.0008 10.2805 97.431 10.7099C97.8454 11.1243 98.173 11.6137 98.4098 12.1725C98.6481 12.7337 98.7681 13.3305 98.7681 13.9596V20.8734H96.7411V20.8726Z" fill="#1943DA"></path><path d="M49.9247 7.11058C49.6706 6.50358 49.313 5.96131 48.852 5.48613C48.3918 5.02594 47.8614 4.66759 47.2615 4.41342C46.6632 4.16083 46.0404 4.03296 45.3947 4.03296H41.0865V19.3587H41.0897V20.8727H43.1222V19.3579L43.1135 14.0354H45.3947C46.0412 14.0354 46.6632 13.9044 47.2615 13.6431C47.8614 13.3827 48.3918 13.0211 48.852 12.5602C49.3122 12.0984 49.6706 11.5648 49.9247 10.9578C50.1773 10.3508 50.3052 9.70987 50.3052 9.03262C50.3052 8.35537 50.1773 7.716 49.9247 7.10979V7.11058ZM47.4233 11.1086C46.8708 11.6935 46.1943 11.9847 45.3947 11.9847H43.1135V6.13023H45.3947C46.1793 6.13023 46.8542 6.41518 47.4233 6.98271C47.9908 7.55182 48.2758 8.23618 48.2758 9.03341C48.2758 9.83064 47.9908 10.5403 47.4233 11.1086Z" fill="#1943DA"></path><path d="M105.937 10.2127V8.13433H104.263V4.32184H102.366V8.13433H100.694V10.2127H102.366V19.6823H102.361V20.8727H104.27V19.6823L104.263 10.2127H105.937Z" fill="#1943DA"></path><path d="M102.392 37.2632V35.6143C101.935 36.1574 101.396 36.5852 100.775 36.8993C100.153 37.2135 99.507 37.3706 98.836 37.3706C98.0791 37.3706 97.3726 37.2317 96.7159 36.953C96.0591 36.6744 95.4877 36.2781 95.0022 35.7643C94.5026 35.2504 94.1134 34.6616 93.8348 33.9969C93.5562 33.3323 93.4172 32.6298 93.4172 31.8871C93.4172 31.1443 93.5562 30.441 93.8348 29.7772C94.1134 29.1133 94.5018 28.5245 95.0022 28.0098C95.4877 27.496 96.0591 27.0997 96.7159 26.8211C97.3726 26.5425 98.0791 26.4035 98.836 26.4035C99.593 26.4035 100.253 26.5535 100.86 26.8535C101.467 27.1534 101.977 27.5678 102.391 28.0959V23.041H104.276V37.2632H102.391H102.392ZM97.4871 28.6208C97.0584 28.7992 96.6875 29.0525 96.3733 29.3809C96.0591 29.7093 95.8089 30.0913 95.6234 30.527C95.4379 30.9627 95.3448 31.4158 95.3448 31.8871C95.3448 32.8437 95.6874 33.6796 96.3725 34.3932C96.6867 34.7216 97.0577 34.9789 97.4863 35.1644C97.9149 35.3499 98.3648 35.443 98.836 35.443C99.3073 35.443 99.7603 35.3507 100.196 35.1644C100.632 34.9789 101.006 34.7216 101.321 34.3932C102.006 33.6796 102.349 32.8437 102.349 31.8871C102.349 31.4158 102.255 30.9627 102.07 30.527C101.884 30.0913 101.634 29.7101 101.32 29.3809C101.006 29.0525 100.631 28.7992 100.195 28.6208C99.7596 28.4424 99.3065 28.3532 98.8352 28.3532C98.364 28.3532 97.9141 28.4424 97.4855 28.6208H97.4871Z" fill="#1943DA"></path></svg>