<svg width="21" height="22" viewBox="0 0 21 22" fill="none" xmlns="http://www.w3.org/2000/svg"><path fill-rule="evenodd" clip-rule="evenodd" d="M13.0786 7.29449H7.54644C4.74112 7.29449 3.33846 7.29449 2.55056 8.11479C1.76265 8.9351 1.94803 10.2025 2.31879 12.7371L2.67039 15.1408C2.96114 17.1285 3.10652 18.1223 3.85231 18.7175C4.59811 19.3127 5.69808 19.3127 7.89802 19.3127H12.727C14.927 19.3127 16.027 19.3127 16.7728 18.7175C17.5186 18.1223 17.6639 17.1285 17.9546 15.1408L18.3063 12.7371C18.677 10.2025 18.8624 8.93509 18.0745 8.11479C17.2866 7.29449 15.8839 7.29449 13.0786 7.29449ZM12.4582 14.1542C12.9223 13.8664 12.9223 13.1215 12.4582 12.8337L9.6555 11.0963C9.20438 10.8167 8.65002 11.1807 8.65002 11.7565V15.2314C8.65002 15.8072 9.20438 16.1712 9.6555 15.8916L12.4582 14.1542Z" fill="#1A1628"></path><path d="M7.41268 2.68739H13.2149C13.4081 2.68734 13.5563 2.68731 13.6858 2.69998C14.6067 2.79006 15.3605 3.34372 15.6801 4.08952H4.94751C5.26713 3.34372 6.02087 2.79006 6.94175 2.69998C7.07127 2.68731 7.21943 2.68734 7.41268 2.68739Z" fill="#1A1628"></path><path d="M5.58312 4.95072C4.42716 4.95072 3.47931 5.64877 3.163 6.57481C3.1564 6.59412 3.15009 6.61353 3.14404 6.63302C3.47501 6.53279 3.81944 6.46732 4.16813 6.42262C5.06619 6.30748 6.20113 6.30754 7.51952 6.30762H13.2486C14.567 6.30754 15.702 6.30748 16.6 6.42262C16.9487 6.46732 17.2931 6.53279 17.6241 6.63302C17.6181 6.61353 17.6117 6.59412 17.6051 6.57481C17.2888 5.64877 16.3409 4.95072 15.185 4.95072H5.58312Z" fill="#1A1628"></path></svg>