<svg width="173" height="142" viewBox="0 0 173 142" fill="none" xmlns="http://www.w3.org/2000/svg">
<g filter="url(#filter0_d_9653_7833)">
<rect x="19" y="19.9734" width="138" height="101" rx="12" fill="white"/>
</g>
<path d="M72.8928 42.4496H91.4075C94.1102 42.4496 96.3003 44.6396 96.3003 47.3424V59.2098C96.3003 61.9126 94.1102 64.1026 91.4075 64.1026H79.4381L73.0071 68.9583C72.5252 69.3228 71.8549 68.8656 72.0186 68.2849L73.1924 64.1026H72.8928C70.19 64.1026 68 61.9126 68 59.2098V47.3424C68 44.6396 70.19 42.4496 72.8928 42.4496Z" fill="#83C0FF"/>
<path d="M105.558 34.9468H87.0432C84.3404 34.9468 82.1504 37.1368 82.1504 39.8396V51.707C82.1504 54.4098 84.3404 56.5998 87.0432 56.5998H99.0125L104.977 61.1034C105.61 61.5821 106.488 60.9829 106.271 60.2199L105.255 56.5998H105.555C108.258 56.5998 110.448 54.4098 110.448 51.707V39.8396C110.448 37.1368 108.258 34.9468 105.555 34.9468H105.558Z" fill="#31508F"/>
<path d="M89.4031 51.1169C90.3959 51.1169 91.2008 50.312 91.2008 49.3191C91.2008 48.3263 90.3959 47.5214 89.4031 47.5214C88.4102 47.5214 87.6053 48.3263 87.6053 49.3191C87.6053 50.312 88.4102 51.1169 89.4031 51.1169Z" fill="#FFCC4A"/>
<path d="M102.28 51.1169C103.273 51.1169 104.078 50.3121 104.078 49.3192C104.078 48.3264 103.273 47.5215 102.28 47.5215C101.287 47.5215 100.482 48.3264 100.482 49.3192C100.482 50.3121 101.287 51.1169 102.28 51.1169Z" fill="#FFCC4A"/>
<path d="M95.8426 51.1169C96.8355 51.1169 97.6404 50.3121 97.6404 49.3192C97.6404 48.3264 96.8355 47.5215 95.8426 47.5215C94.8498 47.5215 94.0449 48.3264 94.0449 49.3192C94.0449 50.3121 94.8498 51.1169 95.8426 51.1169Z" fill="#FFCC4A"/>
<path d="M43.6353 89.0728C42.8913 89.0728 42.2253 88.8988 41.6373 88.5508C41.0533 88.2028 40.5933 87.6948 40.2573 87.0268C39.9213 86.3548 39.7533 85.5348 39.7533 84.5668C39.7533 83.6508 39.9173 82.8568 40.2453 82.1848C40.5733 81.5088 41.0313 80.9868 41.6193 80.6188C42.2073 80.2468 42.8893 80.0608 43.6653 80.0608C44.2373 80.0608 44.7633 80.1728 45.2433 80.3968C45.7273 80.6208 46.1173 80.9528 46.4133 81.3928C46.7133 81.8288 46.8733 82.3688 46.8933 83.0128H45.7473C45.7233 82.5848 45.6113 82.2308 45.4113 81.9508C45.2153 81.6668 44.9613 81.4548 44.6493 81.3148C44.3373 81.1708 43.9933 81.0988 43.6173 81.0988C43.1013 81.0988 42.6373 81.2368 42.2253 81.5128C41.8173 81.7848 41.4953 82.1788 41.2593 82.6948C41.0233 83.2108 40.9053 83.8328 40.9053 84.5608C40.9053 85.3888 41.0293 86.0588 41.2773 86.5708C41.5253 87.0788 41.8573 87.4508 42.2733 87.6868C42.6893 87.9188 43.1493 88.0348 43.6533 88.0348C44.1133 88.0348 44.4933 87.9528 44.7933 87.7888C45.0973 87.6208 45.3293 87.4008 45.4893 87.1288C45.6493 86.8568 45.7393 86.5628 45.7593 86.2468H46.8933C46.8573 86.8268 46.7033 87.3288 46.4313 87.7528C46.1633 88.1768 45.7933 88.5028 45.3213 88.7308C44.8493 88.9588 44.2873 89.0728 43.6353 89.0728ZM50.6895 89.0368C50.1135 89.0368 49.6075 88.9068 49.1715 88.6468C48.7395 88.3868 48.4015 88.0048 48.1575 87.5008C47.9175 86.9928 47.7975 86.3708 47.7975 85.6348C47.7975 84.9388 47.9255 84.3388 48.1815 83.8348C48.4375 83.3308 48.7855 82.9448 49.2255 82.6768C49.6695 82.4048 50.1655 82.2688 50.7135 82.2688C51.3095 82.2688 51.8235 82.4048 52.2555 82.6768C52.6915 82.9448 53.0275 83.3308 53.2635 83.8348C53.4995 84.3388 53.6175 84.9388 53.6175 85.6348C53.6175 86.3708 53.4855 86.9928 53.2215 87.5008C52.9615 88.0048 52.6095 88.3868 52.1655 88.6468C51.7215 88.9068 51.2295 89.0368 50.6895 89.0368ZM50.7135 88.0528C51.2495 88.0528 51.6775 87.8528 51.9975 87.4528C52.3175 87.0528 52.4775 86.4468 52.4775 85.6348C52.4775 84.8588 52.3195 84.2688 52.0035 83.8648C51.6915 83.4568 51.2535 83.2528 50.6895 83.2528C50.1575 83.2528 49.7315 83.4568 49.4115 83.8648C49.0955 84.2688 48.9375 84.8588 48.9375 85.6348C48.9375 86.4188 49.0975 87.0188 49.4175 87.4348C49.7415 87.8468 50.1735 88.0528 50.7135 88.0528ZM55.1324 88.9468V82.4008H56.0804L56.2004 84.8668L56.0924 84.3688C56.1444 83.9808 56.2524 83.6288 56.4164 83.3128C56.5844 82.9928 56.8184 82.7388 57.1184 82.5508C57.4224 82.3588 57.8044 82.2628 58.2644 82.2628C58.8724 82.2628 59.3444 82.4508 59.6804 82.8268C60.0204 83.1988 60.1904 83.7548 60.1904 84.4948V88.9468H59.0744V84.8608C59.0744 84.4888 59.0324 84.1888 58.9484 83.9608C58.8684 83.7328 58.7384 83.5668 58.5584 83.4628C58.3824 83.3588 58.1464 83.3068 57.8504 83.3068C57.4944 83.3068 57.1804 83.4048 56.9084 83.6008C56.6404 83.7968 56.4204 84.0668 56.2484 84.4108V88.9468H55.1324ZM62.0934 88.9468V82.4008H63.0414L63.1614 84.8668L63.0534 84.3688C63.1054 83.9808 63.2134 83.6288 63.3774 83.3128C63.5454 82.9928 63.7794 82.7388 64.0794 82.5508C64.3834 82.3588 64.7654 82.2628 65.2254 82.2628C65.8334 82.2628 66.3054 82.4508 66.6414 82.8268C66.9814 83.1988 67.1514 83.7548 67.1514 84.4948V88.9468H66.0354V84.8608C66.0354 84.4888 65.9934 84.1888 65.9094 83.9608C65.8294 83.7328 65.6994 83.5668 65.5194 83.4628C65.3434 83.3588 65.1074 83.3068 64.8114 83.3068C64.4554 83.3068 64.1414 83.4048 63.8694 83.6008C63.6014 83.7968 63.3814 84.0668 63.2094 84.4108V88.9468H62.0934ZM71.5678 89.0368C70.9718 89.0368 70.4478 88.9068 69.9958 88.6468C69.5478 88.3868 69.1998 88.0048 68.9518 87.5008C68.7038 86.9928 68.5798 86.3728 68.5798 85.6408C68.5798 84.9368 68.7078 84.3328 68.9638 83.8288C69.2198 83.3248 69.5718 82.9388 70.0198 82.6708C70.4678 82.4028 70.9778 82.2688 71.5498 82.2688C72.1178 82.2688 72.6038 82.3908 73.0078 82.6348C73.4158 82.8788 73.7298 83.2288 73.9498 83.6848C74.1698 84.1368 74.2778 84.6788 74.2738 85.3108C74.2738 85.4388 74.2698 85.5448 74.2617 85.6288C74.2538 85.7128 74.2478 85.8008 74.2438 85.8928H69.6958C69.7238 86.6128 69.9038 87.1588 70.2358 87.5308C70.5718 87.8988 70.9998 88.0828 71.5198 88.0828C71.9598 88.0828 72.2998 87.9908 72.5398 87.8068C72.7838 87.6188 72.9378 87.3788 73.0018 87.0868H74.0938C74.0658 87.5028 73.9378 87.8568 73.7098 88.1488C73.4858 88.4408 73.1898 88.6628 72.8218 88.8148C72.4538 88.9628 72.0358 89.0368 71.5678 89.0368ZM70.2898 85.0528H73.1518C73.1438 84.4928 73.0058 84.0528 72.7378 83.7328C72.4698 83.4128 72.0598 83.2528 71.5078 83.2528C70.9278 83.2528 70.4878 83.4508 70.1878 83.8468C69.8878 84.2388 69.7238 84.7808 69.6958 85.4728C69.7278 85.3088 69.7918 85.1988 69.8878 85.1428C69.9878 85.0828 70.1218 85.0528 70.2898 85.0528ZM78.3129 89.0548C77.7049 89.0548 77.1769 88.9168 76.7289 88.6408C76.2809 88.3648 75.9349 87.9728 75.6909 87.4648C75.4469 86.9568 75.3249 86.3588 75.3249 85.6708C75.3249 84.9468 75.4489 84.3328 75.6969 83.8288C75.9489 83.3248 76.2949 82.9408 76.7349 82.6768C77.1789 82.4088 77.6849 82.2748 78.2529 82.2748C78.7969 82.2748 79.2589 82.3808 79.6389 82.5928C80.0189 82.8008 80.3089 83.0788 80.5089 83.4268C80.7129 83.7748 80.8209 84.1588 80.8329 84.5788H79.7349C79.7269 84.4188 79.6929 84.2608 79.6329 84.1048C79.5729 83.9488 79.4829 83.8088 79.3629 83.6848C79.2429 83.5568 79.0889 83.4548 78.9009 83.3788C78.7169 83.2988 78.4949 83.2588 78.2349 83.2588C77.6309 83.2548 77.1849 83.4648 76.8969 83.8888C76.6089 84.3128 76.4649 84.8948 76.4649 85.6348C76.4649 86.4268 76.6249 87.0308 76.9449 87.4468C77.2649 87.8628 77.7449 88.0708 78.3849 88.0708C78.6329 88.0708 78.8549 88.0148 79.0509 87.9028C79.2469 87.7908 79.4029 87.6448 79.5189 87.4648C79.6389 87.2848 79.7029 87.0928 79.7109 86.8888H80.8089C80.7969 87.3008 80.6809 87.6708 80.4609 87.9988C80.2409 88.3268 79.9449 88.5848 79.5729 88.7728C79.2009 88.9608 78.7809 89.0548 78.3129 89.0548ZM84.1873 89.0368C83.6793 89.0368 83.2913 88.9068 83.0233 88.6468C82.7593 88.3828 82.6273 88.0088 82.6273 87.5248V83.9728C82.6273 83.8448 82.6533 83.7268 82.7053 83.6188C82.7573 83.5068 82.8333 83.4348 82.9333 83.4028L82.6273 82.6588V82.4548L82.8973 80.4988H83.7313V87.3388C83.7313 87.5948 83.7913 87.7688 83.9113 87.8608C84.0313 87.9488 84.2373 87.9928 84.5293 87.9928C84.7413 87.9928 84.9213 87.9928 85.0693 87.9928C85.2173 87.9888 85.3713 87.9808 85.5313 87.9688V88.9528C85.3113 88.9928 85.0833 89.0168 84.8473 89.0248C84.6153 89.0328 84.3953 89.0368 84.1873 89.0368ZM81.6733 83.4028V82.4008H85.4773V83.4028H81.6733ZM90.2639 88.9468L88.2239 82.4008H89.4719L90.3239 85.5568L90.8819 87.9748H90.9419L91.3919 85.5808L92.1959 82.4008H93.6059L94.3919 85.5868L94.8479 88.0228L94.9079 88.0168L95.4779 85.5628L96.3299 82.4008H97.5719L95.5379 88.9468H94.2179L93.3659 85.6828L92.9399 83.6428H92.8679L92.4299 85.6888L91.5839 88.9468H90.2639ZM98.7696 88.9468V82.4368H99.8976L99.8796 88.9468H98.7696ZM99.3396 81.3868C99.1196 81.3868 98.9316 81.3108 98.7756 81.1588C98.6236 81.0068 98.5476 80.8108 98.5476 80.5708C98.5476 80.3348 98.6236 80.1408 98.7756 79.9888C98.9316 79.8368 99.1196 79.7608 99.3396 79.7608C99.5556 79.7608 99.7396 79.8368 99.8916 79.9888C100.048 80.1408 100.126 80.3348 100.126 80.5708C100.126 80.8108 100.048 81.0068 99.8916 81.1588C99.7356 81.3108 99.5516 81.3868 99.3396 81.3868ZM103.723 89.0368C103.215 89.0368 102.827 88.9068 102.559 88.6468C102.295 88.3828 102.163 88.0088 102.163 87.5248V83.9728C102.163 83.8448 102.189 83.7268 102.241 83.6188C102.293 83.5068 102.369 83.4348 102.469 83.4028L102.163 82.6588V82.4548L102.433 80.4988H103.267V87.3388C103.267 87.5948 103.327 87.7688 103.447 87.8608C103.567 87.9488 103.773 87.9928 104.065 87.9928C104.277 87.9928 104.457 87.9928 104.605 87.9928C104.753 87.9888 104.907 87.9808 105.067 87.9688V88.9528C104.847 88.9928 104.619 89.0168 104.383 89.0248C104.151 89.0328 103.931 89.0368 103.723 89.0368ZM101.208 83.4028V82.4008H105.013V83.4028H101.208ZM106.338 88.9468V79.6168H107.448V82.4008L107.352 84.2668L107.406 84.7948L107.31 84.3688C107.358 84.0048 107.458 83.6628 107.61 83.3428C107.766 83.0228 107.992 82.7628 108.288 82.5628C108.588 82.3628 108.974 82.2628 109.446 82.2628C110.066 82.2628 110.544 82.4468 110.88 82.8148C111.216 83.1828 111.384 83.7428 111.384 84.4948V88.9468H110.268V84.8608C110.268 84.3288 110.18 83.9368 110.004 83.6848C109.832 83.4328 109.514 83.3068 109.05 83.3068C108.694 83.3068 108.384 83.4128 108.12 83.6248C107.856 83.8328 107.632 84.1148 107.448 84.4708V88.9468H106.338ZM115.239 91.5328V90.4648H115.725C116.013 90.4648 116.235 90.4288 116.391 90.3568C116.551 90.2888 116.671 90.1908 116.751 90.0628C116.831 89.9348 116.895 89.7828 116.943 89.6068C117.003 89.3948 117.057 89.2408 117.105 89.1448C117.153 89.0528 117.215 88.9868 117.291 88.9468H116.931L114.735 82.4008H115.977L116.811 85.3348L117.549 87.8128H117.597L118.311 85.3348L119.145 82.4008H120.387L118.185 88.9468C118.053 89.3428 117.923 89.6988 117.795 90.0148C117.667 90.3348 117.517 90.6068 117.345 90.8308C117.173 91.0588 116.957 91.2328 116.697 91.3528C116.441 91.4728 116.117 91.5328 115.725 91.5328H115.239ZM123.932 89.0368C123.356 89.0368 122.85 88.9068 122.414 88.6468C121.982 88.3868 121.644 88.0048 121.4 87.5008C121.16 86.9928 121.04 86.3708 121.04 85.6348C121.04 84.9388 121.168 84.3388 121.424 83.8348C121.68 83.3308 122.028 82.9448 122.468 82.6768C122.912 82.4048 123.408 82.2688 123.956 82.2688C124.552 82.2688 125.066 82.4048 125.498 82.6768C125.934 82.9448 126.27 83.3308 126.506 83.8348C126.742 84.3388 126.86 84.9388 126.86 85.6348C126.86 86.3708 126.728 86.9928 126.464 87.5008C126.204 88.0048 125.852 88.3868 125.408 88.6468C124.964 88.9068 124.472 89.0368 123.932 89.0368ZM123.956 88.0528C124.492 88.0528 124.92 87.8528 125.24 87.4528C125.56 87.0528 125.72 86.4468 125.72 85.6348C125.72 84.8588 125.562 84.2688 125.246 83.8648C124.934 83.4568 124.496 83.2528 123.932 83.2528C123.4 83.2528 122.974 83.4568 122.654 83.8648C122.338 84.2688 122.18 84.8588 122.18 85.6348C122.18 86.4188 122.34 87.0188 122.66 87.4348C122.984 87.8468 123.416 88.0528 123.956 88.0528ZM130.181 89.0788C129.617 89.0788 129.163 88.8868 128.819 88.5028C128.475 88.1188 128.303 87.5828 128.303 86.8948V82.4008H129.419V86.5948C129.419 86.9228 129.457 87.1928 129.533 87.4048C129.609 87.6168 129.729 87.7748 129.893 87.8788C130.061 87.9788 130.277 88.0308 130.541 88.0348C130.901 88.0348 131.213 87.9388 131.477 87.7468C131.745 87.5508 131.967 87.2808 132.143 86.9368V82.4008H133.253V88.9468H132.305L132.179 86.6728L132.299 86.9728C132.247 87.3568 132.137 87.7088 131.969 88.0288C131.805 88.3448 131.575 88.5988 131.279 88.7908C130.987 88.9828 130.621 89.0788 130.181 89.0788ZM135.242 88.9468V82.4008H136.19L136.31 84.9148L136.178 84.5728C136.206 84.3248 136.26 84.0668 136.34 83.7988C136.424 83.5308 136.542 83.2808 136.694 83.0488C136.85 82.8128 137.048 82.6228 137.288 82.4788C137.532 82.3348 137.83 82.2628 138.182 82.2628C138.25 82.2628 138.314 82.2668 138.374 82.2748C138.438 82.2828 138.5 82.2928 138.56 82.3048V83.4868C138.46 83.4548 138.354 83.4348 138.242 83.4268C138.134 83.4148 138.032 83.4088 137.936 83.4088C137.74 83.4088 137.542 83.4468 137.342 83.5228C137.142 83.5988 136.956 83.7208 136.784 83.8888C136.612 84.0528 136.47 84.2668 136.358 84.5308V88.9468H135.242ZM47.2974 105.073C46.5534 105.073 45.8874 104.899 45.2994 104.551C44.7154 104.203 44.2554 103.695 43.9194 103.027C43.5834 102.355 43.4154 101.535 43.4154 100.567C43.4154 99.6508 43.5794 98.8568 43.9074 98.1848C44.2354 97.5088 44.6934 96.9868 45.2814 96.6188C45.8694 96.2468 46.5514 96.0608 47.3274 96.0608C47.8994 96.0608 48.4254 96.1728 48.9054 96.3968C49.3894 96.6208 49.7794 96.9528 50.0754 97.3928C50.3754 97.8288 50.5354 98.3688 50.5554 99.0128H49.4094C49.3854 98.5848 49.2734 98.2308 49.0734 97.9508C48.8774 97.6668 48.6234 97.4548 48.3114 97.3148C47.9994 97.1708 47.6554 97.0988 47.2794 97.0988C46.7634 97.0988 46.2994 97.2368 45.8874 97.5128C45.4794 97.7848 45.1574 98.1788 44.9214 98.6948C44.6854 99.2108 44.5674 99.8328 44.5674 100.561C44.5674 101.389 44.6914 102.059 44.9394 102.571C45.1874 103.079 45.5194 103.451 45.9354 103.687C46.3514 103.919 46.8114 104.035 47.3154 104.035C47.7754 104.035 48.1554 103.953 48.4554 103.789C48.7594 103.621 48.9914 103.401 49.1514 103.129C49.3114 102.857 49.4014 102.563 49.4214 102.247H50.5554C50.5194 102.827 50.3654 103.329 50.0934 103.753C49.8254 104.177 49.4554 104.503 48.9834 104.731C48.5114 104.959 47.9494 105.073 47.2974 105.073ZM52.0214 104.947V95.6168H53.1374V104.947H52.0214ZM55.17 104.947V98.4368H56.298L56.28 104.947H55.17ZM55.74 97.3868C55.52 97.3868 55.332 97.3108 55.176 97.1588C55.024 97.0068 54.948 96.8108 54.948 96.5708C54.948 96.3348 55.024 96.1408 55.176 95.9888C55.332 95.8368 55.52 95.7608 55.74 95.7608C55.956 95.7608 56.14 95.8368 56.292 95.9888C56.448 96.1408 56.526 96.3348 56.526 96.5708C56.526 96.8108 56.448 97.0068 56.292 97.1588C56.136 97.3108 55.952 97.3868 55.74 97.3868ZM58.3141 104.947V98.4008H59.2621L59.3821 100.867L59.2741 100.369C59.3261 99.9808 59.4341 99.6288 59.5981 99.3128C59.7661 98.9928 60.0001 98.7388 60.3001 98.5508C60.6041 98.3588 60.9861 98.2628 61.4461 98.2628C62.0541 98.2628 62.5261 98.4508 62.8621 98.8268C63.2021 99.1988 63.3721 99.7548 63.3721 100.495V104.947H62.2561V100.861C62.2561 100.489 62.2141 100.189 62.1301 99.9608C62.0501 99.7328 61.9201 99.5668 61.7401 99.4628C61.5641 99.3588 61.3281 99.3068 61.0321 99.3068C60.6761 99.3068 60.3621 99.4048 60.0901 99.6008C59.8221 99.7968 59.6021 100.067 59.4301 100.411V104.947H58.3141ZM65.3184 104.947V98.4368H66.4464L66.4284 104.947H65.3184ZM65.8884 97.3868C65.6684 97.3868 65.4804 97.3108 65.3244 97.1588C65.1724 97.0068 65.0964 96.8108 65.0964 96.5708C65.0964 96.3348 65.1724 96.1408 65.3244 95.9888C65.4804 95.8368 65.6684 95.7608 65.8884 95.7608C66.1044 95.7608 66.2884 95.8368 66.4404 95.9888C66.5964 96.1408 66.6744 96.3348 66.6744 96.5708C66.6744 96.8108 66.5964 97.0068 66.4404 97.1588C66.2844 97.3108 66.1004 97.3868 65.8884 97.3868ZM70.9711 105.055C70.3631 105.055 69.8351 104.917 69.3871 104.641C68.9391 104.365 68.5931 103.973 68.3491 103.465C68.1051 102.957 67.9831 102.359 67.9831 101.671C67.9831 100.947 68.1071 100.333 68.3551 99.8288C68.6071 99.3248 68.9531 98.9408 69.3931 98.6768C69.8371 98.4088 70.3431 98.2748 70.9111 98.2748C71.4551 98.2748 71.9171 98.3808 72.2971 98.5928C72.6771 98.8008 72.9671 99.0788 73.1671 99.4268C73.3711 99.7748 73.4791 100.159 73.4911 100.579H72.3931C72.3851 100.419 72.3511 100.261 72.2911 100.105C72.2311 99.9488 72.1411 99.8088 72.0211 99.6848C71.9011 99.5568 71.7471 99.4548 71.5591 99.3788C71.3751 99.2988 71.1531 99.2588 70.8931 99.2588C70.2891 99.2548 69.8431 99.4648 69.5551 99.8888C69.2671 100.313 69.1231 100.895 69.1231 101.635C69.1231 102.427 69.2831 103.031 69.6031 103.447C69.9231 103.863 70.4031 104.071 71.0431 104.071C71.2911 104.071 71.5131 104.015 71.7091 103.903C71.9051 103.791 72.0611 103.645 72.1771 103.465C72.2971 103.285 72.3611 103.093 72.3691 102.889H73.4671C73.4551 103.301 73.3391 103.671 73.1191 103.999C72.8991 104.327 72.6031 104.585 72.2311 104.773C71.8591 104.961 71.4391 105.055 70.9711 105.055ZM76.5275 105.019C76.1115 105.019 75.7515 104.941 75.4475 104.785C75.1475 104.625 74.9155 104.409 74.7515 104.137C74.5915 103.865 74.5115 103.557 74.5115 103.213C74.5115 102.857 74.5815 102.557 74.7215 102.313C74.8615 102.065 75.0635 101.863 75.3275 101.707C75.5915 101.547 75.9115 101.427 76.2875 101.347C76.5355 101.291 76.7975 101.247 77.0735 101.215C77.3535 101.183 77.6215 101.157 77.8775 101.137C78.1335 101.117 78.3515 101.103 78.5315 101.095V100.729C78.5315 100.205 78.4215 99.8288 78.2015 99.6008C77.9815 99.3688 77.6395 99.2528 77.1755 99.2528C76.8875 99.2528 76.6335 99.2908 76.4135 99.3668C76.1975 99.4428 76.0295 99.5848 75.9095 99.7928C75.7895 99.9968 75.7315 100.297 75.7355 100.693H74.6915C74.6435 100.153 74.7195 99.7048 74.9195 99.3488C75.1195 98.9888 75.4195 98.7208 75.8195 98.5448C76.2195 98.3648 76.6935 98.2748 77.2415 98.2748C77.5535 98.2748 77.8515 98.3128 78.1355 98.3888C78.4195 98.4608 78.6715 98.5848 78.8915 98.7608C79.1115 98.9328 79.2855 99.1688 79.4135 99.4688C79.5415 99.7688 79.6055 100.145 79.6055 100.597V104.947H78.5195L78.5315 103.525C78.4315 103.977 78.2055 104.339 77.8535 104.611C77.5055 104.883 77.0635 105.019 76.5275 105.019ZM76.7855 104.137C77.0775 104.137 77.3455 104.083 77.5895 103.975C77.8375 103.867 78.0455 103.729 78.2135 103.561C78.3815 103.393 78.4875 103.221 78.5315 103.045V101.773C78.2995 101.789 78.0415 101.817 77.7575 101.857C77.4735 101.893 77.2235 101.937 77.0075 101.989C76.5755 102.089 76.2535 102.223 76.0415 102.391C75.8335 102.559 75.7295 102.801 75.7295 103.117C75.7295 103.305 75.7695 103.477 75.8495 103.633C75.9335 103.785 76.0535 103.907 76.2095 103.999C76.3655 104.087 76.5575 104.133 76.7855 104.137ZM81.5175 104.947V95.6168H82.6335V104.947H81.5175ZM86.8032 104.947V96.2228H92.0832V97.2728H87.4332L87.9192 96.7388V100.213L87.4332 99.8888H91.7712V100.927H87.6072L87.9192 100.573V104.449L87.4332 103.885H92.1672V104.947H86.8032ZM95.6358 105.019C95.1038 105.019 94.6438 104.879 94.2558 104.599C93.8718 104.319 93.5758 103.925 93.3678 103.417C93.1638 102.909 93.0618 102.315 93.0618 101.635C93.0618 100.883 93.1878 100.259 93.4398 99.7628C93.6958 99.2628 94.0238 98.8908 94.4238 98.6468C94.8278 98.3988 95.2538 98.2748 95.7018 98.2748C96.1378 98.2748 96.4798 98.3488 96.7278 98.4968C96.9798 98.6448 97.1638 98.8168 97.2798 99.0128C97.3998 99.2048 97.4718 99.3708 97.4958 99.5108L97.8498 99.5708L97.4178 99.9488C97.3898 99.8648 97.3218 99.7688 97.2138 99.6608C97.1058 99.5488 96.9518 99.4528 96.7518 99.3728C96.5518 99.2888 96.2978 99.2468 95.9898 99.2468C95.4738 99.2468 95.0478 99.4408 94.7118 99.8288C94.3758 100.213 94.2078 100.823 94.2078 101.659C94.2078 102.435 94.3658 103.031 94.6818 103.447C95.0018 103.863 95.4118 104.071 95.9118 104.071C96.2238 104.071 96.4818 104.017 96.6858 103.909C96.8938 103.801 97.0558 103.669 97.1718 103.513C97.2918 103.357 97.3738 103.211 97.4178 103.075L97.4778 103.291L97.4178 103.513C97.3978 103.645 97.3538 103.797 97.2858 103.969C97.2178 104.137 97.1158 104.301 96.9798 104.461C96.8438 104.621 96.6658 104.755 96.4458 104.863C96.2298 104.967 95.9598 105.019 95.6358 105.019ZM97.4238 104.947L97.4178 95.6108H98.5278L98.5338 104.947H97.4238ZM102.331 105.079C101.767 105.079 101.313 104.887 100.969 104.503C100.625 104.119 100.453 103.583 100.453 102.895V98.4008H101.569V102.595C101.569 102.923 101.607 103.193 101.683 103.405C101.759 103.617 101.879 103.775 102.043 103.879C102.211 103.979 102.427 104.031 102.691 104.035C103.051 104.035 103.363 103.939 103.627 103.747C103.895 103.551 104.117 103.281 104.293 102.937V98.4008H105.403V104.947H104.455L104.329 102.673L104.449 102.973C104.397 103.357 104.287 103.709 104.119 104.029C103.955 104.345 103.725 104.599 103.429 104.791C103.137 104.983 102.771 105.079 102.331 105.079ZM109.901 105.055C109.293 105.055 108.765 104.917 108.317 104.641C107.869 104.365 107.523 103.973 107.279 103.465C107.035 102.957 106.913 102.359 106.913 101.671C106.913 100.947 107.037 100.333 107.285 99.8288C107.537 99.3248 107.883 98.9408 108.323 98.6768C108.767 98.4088 109.273 98.2748 109.841 98.2748C110.385 98.2748 110.847 98.3808 111.227 98.5928C111.607 98.8008 111.897 99.0788 112.097 99.4268C112.301 99.7748 112.409 100.159 112.421 100.579H111.323C111.315 100.419 111.281 100.261 111.221 100.105C111.161 99.9488 111.071 99.8088 110.951 99.6848C110.831 99.5568 110.677 99.4548 110.489 99.3788C110.305 99.2988 110.083 99.2588 109.823 99.2588C109.219 99.2548 108.773 99.4648 108.485 99.8888C108.197 100.313 108.053 100.895 108.053 101.635C108.053 102.427 108.213 103.031 108.533 103.447C108.853 103.863 109.333 104.071 109.973 104.071C110.221 104.071 110.443 104.015 110.639 103.903C110.835 103.791 110.991 103.645 111.107 103.465C111.227 103.285 111.291 103.093 111.299 102.889H112.397C112.385 103.301 112.269 103.671 112.049 103.999C111.829 104.327 111.533 104.585 111.161 104.773C110.789 104.961 110.369 105.055 109.901 105.055ZM115.457 105.019C115.041 105.019 114.681 104.941 114.377 104.785C114.077 104.625 113.845 104.409 113.681 104.137C113.521 103.865 113.441 103.557 113.441 103.213C113.441 102.857 113.511 102.557 113.651 102.313C113.791 102.065 113.993 101.863 114.257 101.707C114.521 101.547 114.841 101.427 115.217 101.347C115.465 101.291 115.727 101.247 116.003 101.215C116.283 101.183 116.551 101.157 116.807 101.137C117.063 101.117 117.281 101.103 117.461 101.095V100.729C117.461 100.205 117.351 99.8288 117.131 99.6008C116.911 99.3688 116.569 99.2528 116.105 99.2528C115.817 99.2528 115.563 99.2908 115.343 99.3668C115.127 99.4428 114.959 99.5848 114.839 99.7928C114.719 99.9968 114.661 100.297 114.665 100.693H113.621C113.573 100.153 113.649 99.7048 113.849 99.3488C114.049 98.9888 114.349 98.7208 114.749 98.5448C115.149 98.3648 115.623 98.2748 116.171 98.2748C116.483 98.2748 116.781 98.3128 117.065 98.3888C117.349 98.4608 117.601 98.5848 117.821 98.7608C118.041 98.9328 118.215 99.1688 118.343 99.4688C118.471 99.7688 118.535 100.145 118.535 100.597V104.947H117.449L117.461 103.525C117.361 103.977 117.135 104.339 116.783 104.611C116.435 104.883 115.993 105.019 115.457 105.019ZM115.715 104.137C116.007 104.137 116.275 104.083 116.519 103.975C116.767 103.867 116.975 103.729 117.143 103.561C117.311 103.393 117.417 103.221 117.461 103.045V101.773C117.229 101.789 116.971 101.817 116.687 101.857C116.403 101.893 116.153 101.937 115.937 101.989C115.505 102.089 115.183 102.223 114.971 102.391C114.763 102.559 114.659 102.801 114.659 103.117C114.659 103.305 114.699 103.477 114.779 103.633C114.863 103.785 114.983 103.907 115.139 103.999C115.295 104.087 115.487 104.133 115.715 104.137ZM122.15 105.037C121.642 105.037 121.254 104.907 120.986 104.647C120.722 104.383 120.59 104.009 120.59 103.525V99.9728C120.59 99.8448 120.616 99.7268 120.668 99.6188C120.72 99.5068 120.796 99.4348 120.896 99.4028L120.59 98.6588V98.4548L120.86 96.4988H121.694V103.339C121.694 103.595 121.754 103.769 121.874 103.861C121.994 103.949 122.2 103.993 122.492 103.993C122.704 103.993 122.884 103.993 123.032 103.993C123.18 103.989 123.334 103.981 123.494 103.969V104.953C123.274 104.993 123.046 105.017 122.81 105.025C122.578 105.033 122.358 105.037 122.15 105.037ZM119.636 99.4028V98.4008H123.44V99.4028H119.636ZM127.137 105.037C126.561 105.037 126.055 104.907 125.619 104.647C125.187 104.387 124.849 104.005 124.605 103.501C124.365 102.993 124.245 102.371 124.245 101.635C124.245 100.939 124.373 100.339 124.629 99.8348C124.885 99.3308 125.233 98.9448 125.673 98.6768C126.117 98.4048 126.613 98.2688 127.161 98.2688C127.757 98.2688 128.271 98.4048 128.703 98.6768C129.139 98.9448 129.475 99.3308 129.711 99.8348C129.947 100.339 130.065 100.939 130.065 101.635C130.065 102.371 129.933 102.993 129.669 103.501C129.409 104.005 129.057 104.387 128.613 104.647C128.169 104.907 127.677 105.037 127.137 105.037ZM127.161 104.053C127.697 104.053 128.125 103.853 128.445 103.453C128.765 103.053 128.925 102.447 128.925 101.635C128.925 100.859 128.767 100.269 128.451 99.8648C128.139 99.4568 127.701 99.2528 127.137 99.2528C126.605 99.2528 126.179 99.4568 125.859 99.8648C125.543 100.269 125.385 100.859 125.385 101.635C125.385 102.419 125.545 103.019 125.865 103.435C126.189 103.847 126.621 104.053 127.161 104.053ZM131.58 104.947V98.4008H132.528L132.648 100.915L132.516 100.573C132.544 100.325 132.598 100.067 132.678 99.7988C132.762 99.5308 132.88 99.2808 133.032 99.0488C133.188 98.8128 133.386 98.6228 133.626 98.4788C133.87 98.3348 134.168 98.2628 134.52 98.2628C134.588 98.2628 134.652 98.2668 134.712 98.2748C134.776 98.2828 134.838 98.2928 134.898 98.3048V99.4868C134.798 99.4548 134.692 99.4348 134.58 99.4268C134.472 99.4148 134.37 99.4088 134.274 99.4088C134.078 99.4088 133.88 99.4468 133.68 99.5228C133.48 99.5988 133.294 99.7208 133.122 99.8888C132.95 100.053 132.808 100.267 132.696 100.531V104.947H131.58Z" fill="#1A1628"/>
<defs>
<filter id="filter0_d_9653_7833" x="0" y="0.973389" width="178" height="141" filterUnits="userSpaceOnUse" color-interpolation-filters="sRGB">
<feFlood flood-opacity="0" result="BackgroundImageFix"/>
<feColorMatrix in="SourceAlpha" type="matrix" values="0 0 0 0 0 0 0 0 0 0 0 0 0 0 0 0 0 0 127 0" result="hardAlpha"/>
<feOffset dx="1" dy="1"/>
<feGaussianBlur stdDeviation="10"/>
<feComposite in2="hardAlpha" operator="out"/>
<feColorMatrix type="matrix" values="0 0 0 0 0.909804 0 0 0 0 0.917647 0 0 0 0 0.929412 0 0 0 0.7 0"/>
<feBlend mode="normal" in2="BackgroundImageFix" result="effect1_dropShadow_9653_7833"/>
<feBlend mode="normal" in="SourceGraphic" in2="effect1_dropShadow_9653_7833" result="shape"/>
</filter>
</defs>
</svg>
