<svg width="179" height="141" viewBox="0 0 179 141" fill="none" xmlns="http://www.w3.org/2000/svg">
<g filter="url(#filter0_d_12391_22643)">
<rect x="19.3066" y="19" width="138" height="101" rx="12" fill="white"/>
</g>
<g clip-path="url(#clip0_12391_22643)">
<path d="M66.6329 41.2236L63.3741 60.4127C62.9321 63.0118 64.7106 65.4691 67.3181 65.8603L99.4748 70.6989C102.645 71.1768 105.576 68.9161 105.921 65.7292L108.285 43.8585C108.496 41.9087 107.033 40.1789 105.077 40.0626L70.6826 38.007C68.7096 37.8886 66.9649 39.2759 66.6329 41.2236Z" fill="#31508F"/>
<path d="M71.1629 42.613L70.7674 45.4764C70.704 45.9416 71.0423 46.3645 71.5097 46.4026L74.5063 46.65C74.9525 46.686 75.3437 46.3582 75.3881 45.9141L75.6715 43.0317C75.7159 42.577 75.3776 42.1731 74.9208 42.1372L72.0384 41.9088C71.607 41.8749 71.2221 42.1837 71.1629 42.613Z" fill="#FFCC4A"/>
<path d="M76.7115 43.0356L76.6058 44.0041C76.5825 44.2156 76.739 44.4038 76.9505 44.4186L91.3054 45.4844C91.5021 45.4992 91.6755 45.3576 91.703 45.163L91.8277 44.279C91.8573 44.0654 91.7008 43.8709 91.4873 43.854L77.1133 42.7057C76.9124 42.6887 76.7327 42.8368 76.7115 43.0377V43.0356Z" fill="#FFCC4A"/>
<path d="M76.9662 45.3673C76.744 45.3488 76.5453 45.5052 76.5111 45.7255L76.468 46.0032C76.4303 46.2457 76.6054 46.4696 76.8498 46.4916L78.0258 46.5972C78.259 46.6181 78.4652 46.4465 78.4869 46.2134L78.5136 45.9266C78.5355 45.6914 78.3612 45.4834 78.1258 45.4638L76.9662 45.3673Z" fill="#FFCC4A"/>
<path d="M79.8964 45.6107C79.6641 45.5913 79.4595 45.7628 79.438 45.9949L79.4104 46.2937C79.3887 46.5277 79.5611 46.7348 79.7952 46.756L81.381 46.8994C81.6143 46.9205 81.8206 46.7488 81.8423 46.5156L81.8712 46.2058C81.893 45.9706 81.7188 45.7627 81.4834 45.743L79.8964 45.6107Z" fill="#FFCC4A"/>
<path d="M86.9182 46.6306C86.9412 46.3947 86.7669 46.1856 86.5307 46.1658L83.2813 45.8942C83.049 45.8748 82.8444 46.0462 82.8229 46.2784L82.7932 46.598C82.7715 46.8321 82.9441 47.0393 83.1782 47.0604L86.4239 47.3524C86.6564 47.3733 86.8622 47.2029 86.8849 46.9706L86.9182 46.6306Z" fill="#FFCC4A"/>
<path d="M68.9896 58.5878C68.5443 58.5377 68.1367 58.842 68.0581 59.2831L67.6812 61.3973C67.5963 61.8737 67.9259 62.3248 68.4056 62.3887L86.4762 64.7952C86.9326 64.8559 87.3543 64.5422 87.4274 64.0877L87.8272 61.6011C87.9042 61.1222 87.5652 60.676 87.0831 60.6218L68.9896 58.5878Z" fill="#83C0FF"/>
<path d="M110.462 44.8109L105.682 44.4725C104.413 44.3826 103.312 45.3383 103.222 46.607L102.847 51.9081C102.757 53.1768 103.713 54.2781 104.981 54.368L109.761 54.7064C111.03 54.7962 112.131 53.8406 112.221 52.5718L112.597 47.2708C112.686 46.0021 111.731 44.9007 110.462 44.8109Z" fill="#E69D28"/>
<path d="M105.671 49.5106L106.595 50.8695L109.23 48.9822" stroke="white" stroke-width="0.63732" stroke-miterlimit="10" stroke-linecap="round" stroke-linejoin="round"/>
<path d="M92.7326 60.1562C92.2942 60.1268 91.9057 60.4363 91.8365 60.8702L91.2251 64.703C91.1491 65.1792 91.4841 65.6231 91.9629 65.6806L96.624 66.2404C97.0882 66.2962 97.5102 65.9665 97.5684 65.5026L98.0814 61.4162C98.1423 60.9314 97.7828 60.4953 97.2952 60.4625L92.7326 60.1562Z" fill="#83C0FF"/>
</g>
<path d="M59.3611 91.12C58.7531 91.12 58.2111 90.992 57.7351 90.736C57.2591 90.48 56.8851 90.092 56.6131 89.572C56.3411 89.052 56.2051 88.396 56.2051 87.604V82.276H57.3511V87.616C57.3511 88.084 57.4051 88.476 57.5131 88.792C57.6251 89.108 57.7751 89.36 57.9631 89.548C58.1551 89.736 58.3711 89.872 58.6111 89.956C58.8511 90.036 59.1031 90.076 59.3671 90.076C59.6191 90.076 59.8611 90.036 60.0931 89.956C60.3251 89.872 60.5331 89.736 60.7171 89.548C60.9051 89.36 61.0531 89.108 61.1611 88.792C61.2691 88.476 61.3231 88.084 61.3231 87.616V82.276H62.4631V87.604C62.4631 88.396 62.3251 89.052 62.0491 89.572C61.7731 90.092 61.4011 90.48 60.9331 90.736C60.4651 90.992 59.9411 91.12 59.3611 91.12ZM67.1155 91.072C66.6915 91.072 66.3495 90.998 66.0895 90.85C65.8335 90.698 65.6435 90.524 65.5195 90.328C65.3955 90.132 65.3215 89.968 65.2975 89.836L64.9435 89.776L65.3695 89.464C65.4055 89.56 65.4835 89.662 65.6035 89.77C65.7235 89.878 65.8855 89.972 66.0895 90.052C66.2975 90.128 66.5435 90.166 66.8275 90.166C67.3195 90.166 67.7275 89.964 68.0515 89.56C68.3795 89.156 68.5435 88.522 68.5435 87.658C68.5435 86.882 68.3915 86.298 68.0875 85.906C67.7875 85.51 67.4035 85.312 66.9355 85.312C66.6195 85.312 66.3515 85.362 66.1315 85.462C65.9155 85.562 65.7435 85.684 65.6155 85.828C65.4915 85.968 65.4095 86.104 65.3695 86.236V85.792C65.3775 85.664 65.4175 85.518 65.4895 85.354C65.5615 85.186 65.6715 85.024 65.8195 84.868C65.9715 84.712 66.1655 84.584 66.4015 84.484C66.6375 84.38 66.9255 84.328 67.2655 84.328C67.7655 84.328 68.1975 84.462 68.5615 84.73C68.9255 84.998 69.2055 85.376 69.4015 85.864C69.5975 86.352 69.6955 86.924 69.6955 87.58C69.6955 88.176 69.6215 88.694 69.4735 89.134C69.3255 89.57 69.1255 89.932 68.8735 90.22C68.6255 90.508 68.3475 90.722 68.0395 90.862C67.7355 91.002 67.4275 91.072 67.1155 91.072ZM64.2595 93.418V84.454H65.3575L65.3695 85.336V89.464L65.2975 89.836L65.3695 91.006L65.3755 93.418H64.2595ZM73.3682 91.072C72.8362 91.072 72.3762 90.932 71.9882 90.652C71.6042 90.372 71.3082 89.978 71.1002 89.47C70.8962 88.962 70.7942 88.368 70.7942 87.688C70.7942 86.936 70.9202 86.312 71.1722 85.816C71.4282 85.316 71.7562 84.944 72.1562 84.7C72.5602 84.452 72.9862 84.328 73.4342 84.328C73.8702 84.328 74.2122 84.402 74.4602 84.55C74.7122 84.698 74.8962 84.87 75.0122 85.066C75.1322 85.258 75.2042 85.424 75.2282 85.564L75.5822 85.624L75.1502 86.002C75.1222 85.918 75.0542 85.822 74.9462 85.714C74.8382 85.602 74.6842 85.506 74.4842 85.426C74.2842 85.342 74.0302 85.3 73.7222 85.3C73.2062 85.3 72.7802 85.494 72.4442 85.882C72.1082 86.266 71.9402 86.876 71.9402 87.712C71.9402 88.488 72.0982 89.084 72.4142 89.5C72.7342 89.916 73.1442 90.124 73.6442 90.124C73.9562 90.124 74.2142 90.07 74.4182 89.962C74.6262 89.854 74.7882 89.722 74.9042 89.566C75.0242 89.41 75.1062 89.264 75.1502 89.128L75.2102 89.344L75.1502 89.566C75.1302 89.698 75.0862 89.85 75.0182 90.022C74.9502 90.19 74.8482 90.354 74.7122 90.514C74.5762 90.674 74.3982 90.808 74.1782 90.916C73.9622 91.02 73.6922 91.072 73.3682 91.072ZM75.1562 91L75.1502 81.664H76.2602L76.2662 91H75.1562ZM79.8303 91.072C79.4143 91.072 79.0543 90.994 78.7503 90.838C78.4503 90.678 78.2183 90.462 78.0543 90.19C77.8943 89.918 77.8143 89.61 77.8143 89.266C77.8143 88.91 77.8843 88.61 78.0243 88.366C78.1643 88.118 78.3663 87.916 78.6303 87.76C78.8943 87.6 79.2143 87.48 79.5903 87.4C79.8383 87.344 80.1003 87.3 80.3763 87.268C80.6563 87.236 80.9243 87.21 81.1803 87.19C81.4363 87.17 81.6543 87.156 81.8343 87.148V86.782C81.8343 86.258 81.7243 85.882 81.5043 85.654C81.2843 85.422 80.9423 85.306 80.4783 85.306C80.1903 85.306 79.9363 85.344 79.7163 85.42C79.5003 85.496 79.3323 85.638 79.2123 85.846C79.0923 86.05 79.0343 86.35 79.0383 86.746H77.9943C77.9463 86.206 78.0223 85.758 78.2223 85.402C78.4223 85.042 78.7223 84.774 79.1223 84.598C79.5223 84.418 79.9963 84.328 80.5443 84.328C80.8563 84.328 81.1543 84.366 81.4383 84.442C81.7223 84.514 81.9743 84.638 82.1943 84.814C82.4143 84.986 82.5883 85.222 82.7163 85.522C82.8443 85.822 82.9083 86.198 82.9083 86.65V91H81.8223L81.8343 89.578C81.7343 90.03 81.5083 90.392 81.1563 90.664C80.8083 90.936 80.3663 91.072 79.8303 91.072ZM80.0883 90.19C80.3803 90.19 80.6483 90.136 80.8923 90.028C81.1403 89.92 81.3483 89.782 81.5163 89.614C81.6843 89.446 81.7903 89.274 81.8343 89.098V87.826C81.6023 87.842 81.3443 87.87 81.0603 87.91C80.7763 87.946 80.5263 87.99 80.3103 88.042C79.8783 88.142 79.5563 88.276 79.3443 88.444C79.1363 88.612 79.0323 88.854 79.0323 89.17C79.0323 89.358 79.0723 89.53 79.1523 89.686C79.2363 89.838 79.3563 89.96 79.5123 90.052C79.6683 90.14 79.8603 90.186 80.0883 90.19ZM86.5233 91.09C86.0153 91.09 85.6273 90.96 85.3593 90.7C85.0953 90.436 84.9633 90.062 84.9633 89.578V86.026C84.9633 85.898 84.9893 85.78 85.0413 85.672C85.0933 85.56 85.1693 85.488 85.2693 85.456L84.9633 84.712V84.508L85.2333 82.552H86.0673V89.392C86.0673 89.648 86.1273 89.822 86.2473 89.914C86.3673 90.002 86.5733 90.046 86.8653 90.046C87.0773 90.046 87.2573 90.046 87.4053 90.046C87.5533 90.042 87.7073 90.034 87.8673 90.022V91.006C87.6473 91.046 87.4193 91.07 87.1833 91.078C86.9513 91.086 86.7313 91.09 86.5233 91.09ZM84.0093 85.456V84.454H87.8133V85.456H84.0093ZM91.6107 91.09C91.0147 91.09 90.4907 90.96 90.0387 90.7C89.5907 90.44 89.2427 90.058 88.9947 89.554C88.7467 89.046 88.6227 88.426 88.6227 87.694C88.6227 86.99 88.7507 86.386 89.0067 85.882C89.2627 85.378 89.6147 84.992 90.0627 84.724C90.5107 84.456 91.0207 84.322 91.5927 84.322C92.1607 84.322 92.6467 84.444 93.0507 84.688C93.4587 84.932 93.7727 85.282 93.9927 85.738C94.2127 86.19 94.3207 86.732 94.3167 87.364C94.3167 87.492 94.3127 87.598 94.3047 87.682C94.2967 87.766 94.2907 87.854 94.2867 87.946H89.7387C89.7667 88.666 89.9467 89.212 90.2787 89.584C90.6147 89.952 91.0427 90.136 91.5627 90.136C92.0027 90.136 92.3427 90.044 92.5827 89.86C92.8267 89.672 92.9807 89.432 93.0447 89.14H94.1367C94.1087 89.556 93.9807 89.91 93.7527 90.202C93.5287 90.494 93.2327 90.716 92.8647 90.868C92.4967 91.016 92.0787 91.09 91.6107 91.09ZM90.3327 87.106H93.1947C93.1867 86.546 93.0487 86.106 92.7807 85.786C92.5127 85.466 92.1027 85.306 91.5507 85.306C90.9707 85.306 90.5307 85.504 90.2307 85.9C89.9307 86.292 89.7667 86.834 89.7387 87.526C89.7707 87.362 89.8347 87.252 89.9307 87.196C90.0307 87.136 90.1647 87.106 90.3327 87.106ZM97.6763 93.586V92.518H98.1623C98.4503 92.518 98.6723 92.482 98.8283 92.41C98.9883 92.342 99.1083 92.244 99.1883 92.116C99.2683 91.988 99.3323 91.836 99.3803 91.66C99.4403 91.448 99.4943 91.294 99.5423 91.198C99.5903 91.106 99.6523 91.04 99.7283 91H99.3683L97.1723 84.454H98.4143L99.2483 87.388L99.9863 89.866H100.034L100.748 87.388L101.582 84.454H102.824L100.622 91C100.49 91.396 100.36 91.752 100.232 92.068C100.104 92.388 99.9543 92.66 99.7823 92.884C99.6103 93.112 99.3943 93.286 99.1343 93.406C98.8783 93.526 98.5543 93.586 98.1623 93.586H97.6763ZM106.369 91.09C105.793 91.09 105.287 90.96 104.851 90.7C104.419 90.44 104.081 90.058 103.837 89.554C103.597 89.046 103.477 88.424 103.477 87.688C103.477 86.992 103.605 86.392 103.861 85.888C104.117 85.384 104.465 84.998 104.905 84.73C105.349 84.458 105.845 84.322 106.393 84.322C106.989 84.322 107.503 84.458 107.935 84.73C108.371 84.998 108.707 85.384 108.943 85.888C109.179 86.392 109.297 86.992 109.297 87.688C109.297 88.424 109.165 89.046 108.901 89.554C108.641 90.058 108.289 90.44 107.845 90.7C107.401 90.96 106.909 91.09 106.369 91.09ZM106.393 90.106C106.929 90.106 107.357 89.906 107.677 89.506C107.997 89.106 108.157 88.5 108.157 87.688C108.157 86.912 107.999 86.322 107.683 85.918C107.371 85.51 106.933 85.306 106.369 85.306C105.837 85.306 105.411 85.51 105.091 85.918C104.775 86.322 104.617 86.912 104.617 87.688C104.617 88.472 104.777 89.072 105.097 89.488C105.421 89.9 105.853 90.106 106.393 90.106ZM112.618 91.132C112.054 91.132 111.6 90.94 111.256 90.556C110.912 90.172 110.74 89.636 110.74 88.948V84.454H111.856V88.648C111.856 88.976 111.894 89.246 111.97 89.458C112.046 89.67 112.166 89.828 112.33 89.932C112.498 90.032 112.714 90.084 112.978 90.088C113.338 90.088 113.65 89.992 113.914 89.8C114.182 89.604 114.404 89.334 114.58 88.99V84.454H115.69V91H114.742L114.616 88.726L114.736 89.026C114.684 89.41 114.574 89.762 114.406 90.082C114.242 90.398 114.012 90.652 113.716 90.844C113.424 91.036 113.058 91.132 112.618 91.132ZM117.679 91V84.454H118.627L118.747 86.968L118.615 86.626C118.643 86.378 118.697 86.12 118.777 85.852C118.861 85.584 118.979 85.334 119.131 85.102C119.287 84.866 119.485 84.676 119.725 84.532C119.969 84.388 120.267 84.316 120.619 84.316C120.687 84.316 120.751 84.32 120.811 84.328C120.875 84.336 120.937 84.346 120.997 84.358V85.54C120.897 85.508 120.791 85.488 120.679 85.48C120.571 85.468 120.469 85.462 120.373 85.462C120.177 85.462 119.979 85.5 119.779 85.576C119.579 85.652 119.393 85.774 119.221 85.942C119.049 86.106 118.907 86.32 118.795 86.584V91H117.679ZM49.0626 107V100.49H50.1906L50.1726 107H49.0626ZM49.6326 99.44C49.4126 99.44 49.2246 99.364 49.0686 99.212C48.9166 99.06 48.8406 98.864 48.8406 98.624C48.8406 98.388 48.9166 98.194 49.0686 98.042C49.2246 97.89 49.4126 97.814 49.6326 97.814C49.8486 97.814 50.0326 97.89 50.1846 98.042C50.3406 98.194 50.4186 98.388 50.4186 98.624C50.4186 98.864 50.3406 99.06 50.1846 99.212C50.0286 99.364 49.8446 99.44 49.6326 99.44ZM52.2067 107V100.454H53.1547L53.2747 102.92L53.1667 102.422C53.2187 102.034 53.3267 101.682 53.4907 101.366C53.6587 101.046 53.8927 100.792 54.1927 100.604C54.4967 100.412 54.8787 100.316 55.3387 100.316C55.9467 100.316 56.4187 100.504 56.7547 100.88C57.0947 101.252 57.2647 101.808 57.2647 102.548V107H56.1487V102.914C56.1487 102.542 56.1067 102.242 56.0227 102.014C55.9427 101.786 55.8127 101.62 55.6327 101.516C55.4567 101.412 55.2207 101.36 54.9247 101.36C54.5687 101.36 54.2547 101.458 53.9827 101.654C53.7147 101.85 53.4947 102.12 53.3227 102.464V107H52.2067ZM61.1324 107.102C60.6804 107.102 60.2664 107.034 59.8904 106.898C59.5184 106.758 59.2164 106.542 58.9844 106.25C58.7524 105.954 58.6224 105.574 58.5944 105.11H59.6984C59.7704 105.51 59.9284 105.786 60.1724 105.938C60.4204 106.086 60.7344 106.16 61.1144 106.16C61.3744 106.16 61.6084 106.132 61.8164 106.076C62.0284 106.02 62.1964 105.926 62.3204 105.794C62.4444 105.662 62.5064 105.482 62.5064 105.254C62.5064 105.078 62.4684 104.936 62.3924 104.828C62.3164 104.72 62.2104 104.632 62.0744 104.564C61.9384 104.492 61.7784 104.43 61.5944 104.378C61.4144 104.326 61.2184 104.27 61.0064 104.21C60.6104 104.094 60.2444 103.96 59.9084 103.808C59.5724 103.652 59.3024 103.444 59.0984 103.184C58.8944 102.924 58.7924 102.576 58.7924 102.14C58.7924 101.604 58.9964 101.17 59.4044 100.838C59.8124 100.502 60.3484 100.334 61.0124 100.334C61.4324 100.334 61.8104 100.398 62.1464 100.526C62.4864 100.654 62.7624 100.86 62.9744 101.144C63.1904 101.424 63.3224 101.8 63.3704 102.272H62.2724C62.2324 102.056 62.1584 101.874 62.0504 101.726C61.9464 101.578 61.8084 101.466 61.6364 101.39C61.4644 101.314 61.2544 101.276 61.0064 101.276C60.7984 101.276 60.6104 101.306 60.4424 101.366C60.2744 101.422 60.1404 101.512 60.0404 101.636C59.9404 101.76 59.8904 101.924 59.8904 102.128C59.8904 102.352 59.9504 102.532 60.0704 102.668C60.1904 102.804 60.3604 102.918 60.5804 103.01C60.8004 103.098 61.0584 103.186 61.3544 103.274C61.5824 103.346 61.8264 103.422 62.0864 103.502C62.3464 103.578 62.5904 103.68 62.8184 103.808C63.0504 103.936 63.2384 104.108 63.3824 104.324C63.5304 104.536 63.6044 104.814 63.6044 105.158C63.6044 105.774 63.3764 106.252 62.9204 106.592C62.4644 106.932 61.8684 107.102 61.1324 107.102ZM66.8333 107.132C66.2693 107.132 65.8153 106.94 65.4713 106.556C65.1273 106.172 64.9553 105.636 64.9553 104.948V100.454H66.0713V104.648C66.0713 104.976 66.1093 105.246 66.1853 105.458C66.2613 105.67 66.3813 105.828 66.5453 105.932C66.7133 106.032 66.9293 106.084 67.1933 106.088C67.5533 106.088 67.8653 105.992 68.1293 105.8C68.3973 105.604 68.6193 105.334 68.7953 104.99V100.454H69.9053V107H68.9573L68.8313 104.726L68.9513 105.026C68.8993 105.41 68.7893 105.762 68.6213 106.082C68.4573 106.398 68.2273 106.652 67.9313 106.844C67.6393 107.036 67.2733 107.132 66.8333 107.132ZM71.8942 107V100.454H72.8422L72.9622 102.968L72.8302 102.626C72.8582 102.378 72.9122 102.12 72.9922 101.852C73.0762 101.584 73.1942 101.334 73.3462 101.102C73.5022 100.866 73.7002 100.676 73.9402 100.532C74.1842 100.388 74.4822 100.316 74.8342 100.316C74.9022 100.316 74.9662 100.32 75.0262 100.328C75.0902 100.336 75.1522 100.346 75.2122 100.358V101.54C75.1122 101.508 75.0062 101.488 74.8942 101.48C74.7862 101.468 74.6842 101.462 74.5882 101.462C74.3922 101.462 74.1942 101.5 73.9942 101.576C73.7942 101.652 73.6082 101.774 73.4362 101.942C73.2642 102.106 73.1222 102.32 73.0102 102.584V107H71.8942ZM77.885 107.072C77.469 107.072 77.109 106.994 76.805 106.838C76.505 106.678 76.273 106.462 76.109 106.19C75.949 105.918 75.869 105.61 75.869 105.266C75.869 104.91 75.939 104.61 76.079 104.366C76.219 104.118 76.421 103.916 76.685 103.76C76.949 103.6 77.269 103.48 77.645 103.4C77.893 103.344 78.155 103.3 78.431 103.268C78.711 103.236 78.979 103.21 79.235 103.19C79.491 103.17 79.709 103.156 79.889 103.148V102.782C79.889 102.258 79.779 101.882 79.559 101.654C79.339 101.422 78.997 101.306 78.533 101.306C78.245 101.306 77.991 101.344 77.771 101.42C77.555 101.496 77.387 101.638 77.267 101.846C77.147 102.05 77.089 102.35 77.093 102.746H76.049C76.001 102.206 76.077 101.758 76.277 101.402C76.477 101.042 76.777 100.774 77.177 100.598C77.577 100.418 78.051 100.328 78.599 100.328C78.911 100.328 79.209 100.366 79.493 100.442C79.777 100.514 80.029 100.638 80.249 100.814C80.469 100.986 80.643 101.222 80.771 101.522C80.899 101.822 80.963 102.198 80.963 102.65V107H79.877L79.889 105.578C79.789 106.03 79.563 106.392 79.211 106.664C78.863 106.936 78.421 107.072 77.885 107.072ZM78.143 106.19C78.435 106.19 78.703 106.136 78.947 106.028C79.195 105.92 79.403 105.782 79.571 105.614C79.739 105.446 79.845 105.274 79.889 105.098V103.826C79.657 103.842 79.399 103.87 79.115 103.91C78.831 103.946 78.581 103.99 78.365 104.042C77.933 104.142 77.611 104.276 77.399 104.444C77.191 104.612 77.087 104.854 77.087 105.17C77.087 105.358 77.127 105.53 77.207 105.686C77.291 105.838 77.411 105.96 77.567 106.052C77.723 106.14 77.915 106.186 78.143 106.19ZM82.8512 107V100.454H83.7992L83.9192 102.92L83.8112 102.422C83.8632 102.034 83.9712 101.682 84.1352 101.366C84.3032 101.046 84.5372 100.792 84.8372 100.604C85.1412 100.412 85.5232 100.316 85.9832 100.316C86.5912 100.316 87.0632 100.504 87.3992 100.88C87.7392 101.252 87.9092 101.808 87.9092 102.548V107H86.7932V102.914C86.7932 102.542 86.7512 102.242 86.6672 102.014C86.5872 101.786 86.4572 101.62 86.2772 101.516C86.1012 101.412 85.8652 101.36 85.5692 101.36C85.2132 101.36 84.8992 101.458 84.6272 101.654C84.3592 101.85 84.1392 102.12 83.9672 102.464V107H82.8512ZM92.3441 107.108C91.7361 107.108 91.2081 106.97 90.7601 106.694C90.3121 106.418 89.9661 106.026 89.7221 105.518C89.4781 105.01 89.3561 104.412 89.3561 103.724C89.3561 103 89.4801 102.386 89.7281 101.882C89.9801 101.378 90.3261 100.994 90.7661 100.73C91.2101 100.462 91.7161 100.328 92.2841 100.328C92.8281 100.328 93.2901 100.434 93.6701 100.646C94.0501 100.854 94.3401 101.132 94.5401 101.48C94.7441 101.828 94.8521 102.212 94.8641 102.632H93.7661C93.7581 102.472 93.7241 102.314 93.6641 102.158C93.6041 102.002 93.5141 101.862 93.3941 101.738C93.2741 101.61 93.1201 101.508 92.9321 101.432C92.7481 101.352 92.5261 101.312 92.2661 101.312C91.6621 101.308 91.2161 101.518 90.9281 101.942C90.6401 102.366 90.4961 102.948 90.4961 103.688C90.4961 104.48 90.6561 105.084 90.9761 105.5C91.2961 105.916 91.7761 106.124 92.4161 106.124C92.6641 106.124 92.8861 106.068 93.0821 105.956C93.2781 105.844 93.4341 105.698 93.5501 105.518C93.6701 105.338 93.7341 105.146 93.7421 104.942H94.8401C94.8281 105.354 94.7121 105.724 94.4921 106.052C94.2721 106.38 93.9761 106.638 93.6041 106.826C93.2321 107.014 92.8121 107.108 92.3441 107.108ZM98.7826 107.09C98.1866 107.09 97.6626 106.96 97.2106 106.7C96.7626 106.44 96.4146 106.058 96.1666 105.554C95.9186 105.046 95.7946 104.426 95.7946 103.694C95.7946 102.99 95.9226 102.386 96.1786 101.882C96.4346 101.378 96.7866 100.992 97.2346 100.724C97.6826 100.456 98.1926 100.322 98.7646 100.322C99.3326 100.322 99.8186 100.444 100.223 100.688C100.631 100.932 100.945 101.282 101.165 101.738C101.385 102.19 101.493 102.732 101.489 103.364C101.489 103.492 101.485 103.598 101.477 103.682C101.469 103.766 101.463 103.854 101.459 103.946H96.9106C96.9386 104.666 97.1186 105.212 97.4506 105.584C97.7866 105.952 98.2146 106.136 98.7346 106.136C99.1746 106.136 99.5146 106.044 99.7546 105.86C99.9986 105.672 100.153 105.432 100.217 105.14H101.309C101.281 105.556 101.153 105.91 100.925 106.202C100.701 106.494 100.405 106.716 100.037 106.868C99.6686 107.016 99.2506 107.09 98.7826 107.09ZM97.5046 103.106H100.367C100.359 102.546 100.221 102.106 99.9526 101.786C99.6846 101.466 99.2746 101.306 98.7226 101.306C98.1426 101.306 97.7026 101.504 97.4026 101.9C97.1026 102.292 96.9386 102.834 96.9106 103.526C96.9426 103.362 97.0066 103.252 97.1026 103.196C97.2026 103.136 97.3366 103.106 97.5046 103.106ZM107.59 107.108C106.982 107.108 106.454 106.97 106.006 106.694C105.558 106.418 105.212 106.026 104.968 105.518C104.724 105.01 104.602 104.412 104.602 103.724C104.602 103 104.726 102.386 104.974 101.882C105.226 101.378 105.572 100.994 106.012 100.73C106.456 100.462 106.962 100.328 107.53 100.328C108.074 100.328 108.536 100.434 108.916 100.646C109.296 100.854 109.586 101.132 109.786 101.48C109.99 101.828 110.098 102.212 110.11 102.632H109.012C109.004 102.472 108.97 102.314 108.91 102.158C108.85 102.002 108.76 101.862 108.64 101.738C108.52 101.61 108.366 101.508 108.178 101.432C107.994 101.352 107.772 101.312 107.512 101.312C106.908 101.308 106.462 101.518 106.174 101.942C105.886 102.366 105.742 102.948 105.742 103.688C105.742 104.48 105.902 105.084 106.222 105.5C106.542 105.916 107.022 106.124 107.662 106.124C107.91 106.124 108.132 106.068 108.328 105.956C108.524 105.844 108.68 105.698 108.796 105.518C108.916 105.338 108.98 105.146 108.988 104.942H110.086C110.074 105.354 109.958 105.724 109.738 106.052C109.518 106.38 109.222 106.638 108.85 106.826C108.478 107.014 108.058 107.108 107.59 107.108ZM113.147 107.072C112.731 107.072 112.371 106.994 112.067 106.838C111.767 106.678 111.535 106.462 111.371 106.19C111.211 105.918 111.131 105.61 111.131 105.266C111.131 104.91 111.201 104.61 111.341 104.366C111.481 104.118 111.683 103.916 111.947 103.76C112.211 103.6 112.531 103.48 112.907 103.4C113.155 103.344 113.417 103.3 113.693 103.268C113.973 103.236 114.241 103.21 114.497 103.19C114.753 103.17 114.971 103.156 115.151 103.148V102.782C115.151 102.258 115.041 101.882 114.821 101.654C114.601 101.422 114.259 101.306 113.795 101.306C113.507 101.306 113.253 101.344 113.033 101.42C112.817 101.496 112.649 101.638 112.529 101.846C112.409 102.05 112.351 102.35 112.355 102.746H111.311C111.263 102.206 111.339 101.758 111.539 101.402C111.739 101.042 112.039 100.774 112.439 100.598C112.839 100.418 113.313 100.328 113.861 100.328C114.173 100.328 114.471 100.366 114.755 100.442C115.039 100.514 115.291 100.638 115.511 100.814C115.731 100.986 115.905 101.222 116.033 101.522C116.161 101.822 116.225 102.198 116.225 102.65V107H115.139L115.151 105.578C115.051 106.03 114.825 106.392 114.473 106.664C114.125 106.936 113.683 107.072 113.147 107.072ZM113.405 106.19C113.697 106.19 113.965 106.136 114.209 106.028C114.457 105.92 114.665 105.782 114.833 105.614C115.001 105.446 115.107 105.274 115.151 105.098V103.826C114.919 103.842 114.661 103.87 114.377 103.91C114.093 103.946 113.843 103.99 113.627 104.042C113.195 104.142 112.873 104.276 112.661 104.444C112.453 104.612 112.349 104.854 112.349 105.17C112.349 105.358 112.389 105.53 112.469 105.686C112.553 105.838 112.673 105.96 112.829 106.052C112.985 106.14 113.177 106.186 113.405 106.19ZM118.113 107V100.454H119.061L119.181 102.968L119.049 102.626C119.077 102.378 119.131 102.12 119.211 101.852C119.295 101.584 119.413 101.334 119.565 101.102C119.721 100.866 119.919 100.676 120.159 100.532C120.403 100.388 120.701 100.316 121.053 100.316C121.121 100.316 121.185 100.32 121.245 100.328C121.309 100.336 121.371 100.346 121.431 100.358V101.54C121.331 101.508 121.225 101.488 121.113 101.48C121.005 101.468 120.903 101.462 120.807 101.462C120.611 101.462 120.413 101.5 120.213 101.576C120.013 101.652 119.827 101.774 119.655 101.942C119.483 102.106 119.341 102.32 119.229 102.584V107H118.113ZM124.743 107.072C124.211 107.072 123.751 106.932 123.363 106.652C122.979 106.372 122.683 105.978 122.475 105.47C122.271 104.962 122.169 104.368 122.169 103.688C122.169 102.936 122.295 102.312 122.547 101.816C122.803 101.316 123.131 100.944 123.531 100.7C123.935 100.452 124.361 100.328 124.809 100.328C125.245 100.328 125.587 100.402 125.835 100.55C126.087 100.698 126.271 100.87 126.387 101.066C126.507 101.258 126.579 101.424 126.603 101.564L126.957 101.624L126.525 102.002C126.497 101.918 126.429 101.822 126.321 101.714C126.213 101.602 126.059 101.506 125.859 101.426C125.659 101.342 125.405 101.3 125.097 101.3C124.581 101.3 124.155 101.494 123.819 101.882C123.483 102.266 123.315 102.876 123.315 103.712C123.315 104.488 123.473 105.084 123.789 105.5C124.109 105.916 124.519 106.124 125.019 106.124C125.331 106.124 125.589 106.07 125.793 105.962C126.001 105.854 126.163 105.722 126.279 105.566C126.399 105.41 126.481 105.264 126.525 105.128L126.585 105.344L126.525 105.566C126.505 105.698 126.461 105.85 126.393 106.022C126.325 106.19 126.223 106.354 126.087 106.514C125.951 106.674 125.773 106.808 125.553 106.916C125.337 107.02 125.067 107.072 124.743 107.072ZM126.531 107L126.525 97.664H127.635L127.641 107H126.531Z" fill="#1A1628"/>
<defs>
<filter id="filter0_d_12391_22643" x="0.306641" y="0" width="178" height="141" filterUnits="userSpaceOnUse" color-interpolation-filters="sRGB">
<feFlood flood-opacity="0" result="BackgroundImageFix"/>
<feColorMatrix in="SourceAlpha" type="matrix" values="0 0 0 0 0 0 0 0 0 0 0 0 0 0 0 0 0 0 127 0" result="hardAlpha"/>
<feOffset dx="1" dy="1"/>
<feGaussianBlur stdDeviation="10"/>
<feComposite in2="hardAlpha" operator="out"/>
<feColorMatrix type="matrix" values="0 0 0 0 0.909804 0 0 0 0 0.917647 0 0 0 0 0.929412 0 0 0 0.7 0"/>
<feBlend mode="normal" in2="BackgroundImageFix" result="effect1_dropShadow_12391_22643"/>
<feBlend mode="normal" in="SourceGraphic" in2="effect1_dropShadow_12391_22643" result="shape"/>
</filter>
<clipPath id="clip0_12391_22643">
<rect width="50" height="50" fill="white" transform="translate(63.3066 29)"/>
</clipPath>
</defs>
</svg>
